M48
; DRILL file {KiCad (6.0.2)} date Sat Apr  9 00:46:16 2022
; FORMAT={-:-/ absolute / metric / decimal}
; #@! TF.CreationDate,2022-04-09T00:46:16+08:00
; #@! TF.GenerationSoftware,Kicad,Pcbnew,(6.0.2)
; #@! TF.FileFunction,Plated,1,2,PTH
FMAT,2
METRIC
; #@! TA.AperFunction,Plated,PTH,ViaDrill
T1C0.300
; #@! TA.AperFunction,Plated,PTH,ComponentDrill
T2C1.200
%
G90
G05
T1
X181.07Y-119.45
T2
X65.483Y-111.884G85X63.26Y-124.49
G05
X63.26Y-124.49G85X75.866Y-126.713
G05
X65.483Y-111.884G85X78.089Y-114.107
G05
X78.09Y-114.097G85X75.868Y-126.703
G05
X80.943Y-133.954G85X78.72Y-146.56
G05
X84.253Y-115.194G85X82.03Y-127.8
G05
X78.72Y-146.56G85X91.326Y-148.783
G05
X87.563Y-96.434G85X85.34Y-109.04
G05
X80.943Y-133.954G85X93.549Y-136.177
G05
X82.03Y-127.8G85X94.636Y-130.023
G05
X84.253Y-115.194G85X96.859Y-117.417
G05
X85.34Y-109.04G85X97.946Y-111.263
G05
X93.55Y-136.167G85X91.328Y-148.773
G05
X87.563Y-96.434G85X100.169Y-98.657
G05
X96.86Y-117.407G85X94.638Y-130.013
G05
X100.17Y-98.647G85X97.948Y-111.253
G05
X100.693Y-131.634G85X98.47Y-144.24
G05
X104.003Y-112.874G85X101.78Y-125.48
G05
X98.47Y-144.24G85X111.076Y-146.463
G05
X107.313Y-94.114G85X105.09Y-106.72
G05
X100.693Y-131.634G85X113.299Y-133.857
G05
X101.78Y-125.48G85X114.386Y-127.703
G05
X104.003Y-112.874G85X116.609Y-115.097
G05
X105.09Y-106.72G85X117.696Y-108.943
G05
X113.3Y-133.847G85X111.078Y-146.453
G05
X107.313Y-94.114G85X119.919Y-96.337
G05
X116.61Y-115.087G85X114.388Y-127.693
G05
X119.92Y-96.327G85X117.698Y-108.933
G05
X120.943Y-126.504G85X118.72Y-139.11
G05
X124.253Y-107.744G85X122.03Y-120.35
G05
X118.72Y-139.11G85X131.326Y-141.333
G05
X127.563Y-88.974G85X125.34Y-101.58
G05
X120.943Y-126.504G85X133.549Y-128.727
G05
X122.03Y-120.35G85X134.636Y-122.573
G05
X124.253Y-107.744G85X136.859Y-109.967
G05
X125.34Y-101.58G85X137.946Y-103.803
G05
X133.55Y-128.717G85X131.328Y-141.323
G05
X127.563Y-88.974G85X140.169Y-91.197
G05
X134.218Y-150.32G85X134.218Y-163.12
G05
X136.86Y-109.957G85X134.638Y-122.563
G05
X140.17Y-91.187G85X137.948Y-103.793
G05
X140.533Y-125.124G85X138.31Y-137.73
G05
X134.218Y-150.32G85X147.018Y-150.32
G05
X134.218Y-163.12G85X147.018Y-163.12
G05
X143.843Y-106.364G85X141.62Y-118.97
G05
X138.31Y-137.73G85X150.916Y-139.953
G05
X147.143Y-87.604G85X144.92Y-100.21
G05
X140.533Y-125.124G85X153.139Y-127.347
G05
X147.018Y-150.31G85X147.018Y-163.11
G05
X141.62Y-118.97G85X154.226Y-121.193
G05
X143.843Y-106.364G85X156.449Y-108.587
G05
X144.92Y-100.21G85X157.526Y-102.433
G05
X153.14Y-127.337G85X150.918Y-139.943
G05
X147.143Y-87.604G85X159.749Y-89.827
G05
X156.45Y-108.577G85X154.228Y-121.183
G05
X158.463Y-133.114G85X156.24Y-145.72
G05
X159.75Y-89.817G85X157.528Y-102.423
G05
X159.843Y-160.434G85X157.62Y-173.04
G05
X161.773Y-114.354G85X159.55Y-126.96
G05
X156.24Y-145.72G85X168.846Y-147.943
G05
X157.62Y-173.04G85X170.226Y-175.263
G05
X165.083Y-95.594G85X162.86Y-108.2
G05
X158.463Y-133.114G85X171.069Y-135.337
G05
X159.55Y-126.96G85X172.156Y-129.183
G05
X159.843Y-160.434G85X172.449Y-162.657
G05
X161.773Y-114.354G85X174.379Y-116.577
G05
X162.86Y-108.2G85X175.466Y-110.423
G05
X171.07Y-135.327G85X168.848Y-147.933
G05
X172.45Y-162.647G85X170.228Y-175.253
G05
X165.083Y-95.594G85X177.689Y-97.817
G05
X174.38Y-116.567G85X172.158Y-129.173
G05
X176.403Y-141.114G85X174.18Y-153.72
G05
X177.69Y-97.807G85X175.468Y-110.413
G05
X179.703Y-122.354G85X177.48Y-134.96
G05
X174.18Y-153.72G85X186.786Y-155.943
G05
X183.013Y-103.594G85X180.79Y-116.2
G05
X176.403Y-141.114G85X189.009Y-143.337
G05
X184.274Y-164.746G85X182.051Y-177.351
G05
X177.48Y-134.96G85X190.086Y-137.183
G05
X179.703Y-122.354G85X192.309Y-124.577
G05
X180.79Y-116.2G85X193.396Y-118.423
G05
X189.01Y-143.327G85X186.788Y-155.933
G05
X182.051Y-177.351G85X194.657Y-179.574
G05
X183.013Y-103.594G85X195.619Y-105.817
G05
X184.274Y-164.746G85X196.88Y-166.968
G05
X192.31Y-124.567G85X190.088Y-137.173
G05
X195.62Y-105.807G85X193.398Y-118.413
G05
X196.881Y-166.958G85X194.659Y-179.564
G05
X212.585Y-166.985G85X214.808Y-179.59
G05
X213.935Y-105.816G85X216.157Y-118.421
G05
X217.245Y-124.576G85X219.467Y-137.181
G05
X212.585Y-166.985G85X225.191Y-164.762
G05
X213.935Y-105.816G85X226.54Y-103.593
G05
X214.808Y-179.59G85X227.414Y-177.367
G05
X220.555Y-143.336G85X222.777Y-155.941
G05
X216.157Y-118.421G85X228.763Y-116.199
G05
X217.245Y-124.576G85X229.85Y-122.353
G05
X219.467Y-137.181G85X232.073Y-134.959
G05
X225.189Y-164.752G85X227.412Y-177.358
G05
X220.555Y-143.336G85X233.16Y-141.113
G05
X226.539Y-103.583G85X228.761Y-116.189
G05
X222.777Y-155.941G85X235.383Y-153.719
G05
X229.849Y-122.343G85X232.071Y-134.949
G05
X231.865Y-97.816G85X234.087Y-110.421
G05
X233.159Y-141.103G85X235.381Y-153.709
G05
X235.175Y-116.576G85X237.397Y-129.181
G05
X231.865Y-97.816G85X244.47Y-95.593
G05
X237.115Y-162.666G85X239.337Y-175.271
G05
X238.485Y-135.336G85X240.707Y-147.941
G05
X234.087Y-110.421G85X246.693Y-108.199
G05
X235.175Y-116.576G85X247.78Y-114.353
G05
X237.115Y-162.666G85X249.72Y-160.443
G05
X237.397Y-129.181G85X250.003Y-126.959
G05
X238.485Y-135.336G85X251.09Y-133.113
G05
X244.469Y-95.583G85X246.691Y-108.189
G05
X239.337Y-175.271G85X251.943Y-173.049
G05
X240.707Y-147.941G85X253.313Y-145.719
G05
X247.779Y-114.343G85X250.001Y-126.949
G05
X249.719Y-160.433G85X251.941Y-173.039
G05
X249.805Y-89.816G85X252.027Y-102.421
G05
X251.089Y-133.103G85X253.311Y-145.709
G05
X253.105Y-108.586G85X255.327Y-121.191
G05
X249.805Y-89.816G85X262.41Y-87.593
G05
X256.415Y-127.336G85X258.637Y-139.941
G05
X252.027Y-102.421G85X264.633Y-100.199
G05
X253.105Y-108.586G85X265.71Y-106.363
G05
X255.327Y-121.191G85X267.933Y-118.969
G05
X262.428Y-150.32G85X262.428Y-163.12
G05
X256.415Y-127.336G85X269.02Y-125.113
G05
X262.409Y-87.583G85X264.631Y-100.189
G05
X258.637Y-139.941G85X271.243Y-137.719
G05
X265.709Y-106.353G85X267.931Y-118.959
G05
X262.428Y-150.32G85X275.228Y-150.32
G05
X262.428Y-163.12G85X275.228Y-163.12
G05
X269.019Y-125.103G85X271.241Y-137.709
G05
X269.385Y-91.206G85X271.607Y-103.811
G05
X272.705Y-109.966G85X274.927Y-122.571
G05
X275.228Y-150.31G85X275.228Y-163.11
G05
X269.385Y-91.206G85X281.99Y-88.983
G05
X276.005Y-128.716G85X278.227Y-141.321
G05
X271.607Y-103.811G85X284.213Y-101.589
G05
X272.705Y-109.966G85X285.31Y-107.743
G05
X274.927Y-122.571G85X287.533Y-120.349
G05
X276.005Y-128.716G85X288.61Y-126.493
G05
X281.989Y-88.973G85X284.211Y-101.579
G05
X278.227Y-141.321G85X290.833Y-139.099
G05
X285.309Y-107.733G85X287.531Y-120.339
G05
X288.609Y-126.483G85X290.831Y-139.089
G05
X289.635Y-96.336G85X291.857Y-108.941
G05
X292.945Y-115.096G85X295.167Y-127.701
G05
X289.635Y-96.336G85X302.24Y-94.113
G05
X296.255Y-133.856G85X298.477Y-146.461
G05
X291.857Y-108.941G85X304.463Y-106.719
G05
X292.945Y-115.096G85X305.55Y-112.873
G05
X295.167Y-127.701G85X307.773Y-125.479
G05
X296.255Y-133.856G85X308.86Y-131.633
G05
X302.239Y-94.103G85X304.461Y-106.709
G05
X298.477Y-146.461G85X311.083Y-144.239
G05
X305.549Y-112.863G85X307.771Y-125.469
G05
X308.859Y-131.623G85X311.081Y-144.229
G05
X309.395Y-98.656G85X311.617Y-111.261
G05
X312.695Y-117.416G85X314.917Y-130.021
G05
X309.395Y-98.656G85X322.0Y-96.433
G05
X316.015Y-136.176G85X318.237Y-148.781
G05
X311.617Y-111.261G85X324.223Y-109.039
G05
X312.695Y-117.416G85X325.3Y-115.193
G05
X314.917Y-130.021G85X327.523Y-127.799
G05
X316.015Y-136.176G85X328.62Y-133.953
G05
X321.999Y-96.423G85X324.221Y-109.029
G05
X318.237Y-148.781G85X330.843Y-146.559
G05
X325.299Y-115.183G85X327.521Y-127.789
G05
X328.619Y-133.943G85X330.841Y-146.549
G05
X331.465Y-114.106G85X333.687Y-126.711
G05
X331.465Y-114.106G85X344.07Y-111.883
G05
X333.687Y-126.711G85X346.293Y-124.489
G05
X344.069Y-111.873G85X346.291Y-124.479
G05
T0
M30
