G04 #@! TF.GenerationSoftware,KiCad,Pcbnew,(6.0.2)*
G04 #@! TF.CreationDate,2022-04-09T00:46:14+08:00*
G04 #@! TF.ProjectId,plate,706c6174-652e-46b6-9963-61645f706362,rev?*
G04 #@! TF.SameCoordinates,Original*
G04 #@! TF.FileFunction,Soldermask,Bot*
G04 #@! TF.FilePolarity,Negative*
%FSLAX46Y46*%
G04 Gerber Fmt 4.6, Leading zero omitted, Abs format (unit mm)*
G04 Created by KiCad (PCBNEW (6.0.2)) date 2022-04-09 00:46:14*
%MOMM*%
%LPD*%
G01*
G04 APERTURE LIST*
G04 Aperture macros list*
%AMHorizOval*
0 Thick line with rounded ends*
0 $1 width*
0 $2 $3 position (X,Y) of the first rounded end (center of the circle)*
0 $4 $5 position (X,Y) of the second rounded end (center of the circle)*
0 Add line between two ends*
20,1,$1,$2,$3,$4,$5,0*
0 Add two circle primitives to create the rounded ends*
1,1,$1,$2,$3*
1,1,$1,$4,$5*%
G04 Aperture macros list end*
%ADD10HorizOval,2.000000X1.111348X-6.302770X-1.111348X6.302770X0*%
%ADD11HorizOval,2.000000X6.302770X1.111348X-6.302770X-1.111348X0*%
%ADD12HorizOval,2.000000X6.302770X-1.111348X-6.302770X1.111348X0*%
%ADD13HorizOval,2.000000X-1.111348X-6.302770X1.111348X6.302770X0*%
%ADD14C,2.100000*%
%ADD15O,14.800000X2.000000*%
%ADD16O,2.000000X14.800000*%
G04 APERTURE END LIST*
D10*
X252199933Y-139406104D03*
D11*
X244787552Y-134224530D03*
X247010248Y-146830070D03*
D10*
X239596130Y-141638648D03*
D11*
X301470248Y-126590070D03*
D10*
X306659933Y-119166104D03*
X294056130Y-121398648D03*
D11*
X299247552Y-113984530D03*
X337767552Y-112994530D03*
D10*
X332576130Y-120408648D03*
D11*
X339990248Y-125600070D03*
D10*
X345179933Y-118176104D03*
D12*
X125023252Y-140221170D03*
X127245948Y-127615630D03*
D13*
X132439106Y-135019900D03*
X119831830Y-132807052D03*
D14*
X236615900Y-157280500D03*
D12*
X151223252Y-101321170D03*
X153445948Y-88715630D03*
D13*
X158639106Y-96119900D03*
X146031830Y-93907052D03*
D11*
X259407552Y-107474530D03*
D10*
X266819933Y-112656104D03*
X254216130Y-114888648D03*
D11*
X261630248Y-120080070D03*
D10*
X309969933Y-137926104D03*
D11*
X304780248Y-145350070D03*
X302557552Y-132744530D03*
D10*
X297366130Y-140158648D03*
D12*
X164765948Y-134225630D03*
D13*
X157351830Y-139417052D03*
X169959106Y-141629900D03*
D12*
X162543252Y-146831170D03*
D11*
X238167552Y-96704530D03*
D10*
X245579933Y-101886104D03*
D11*
X240390248Y-109310070D03*
D10*
X232976130Y-104118648D03*
D11*
X243700248Y-128070070D03*
D10*
X236286130Y-122878648D03*
X248889933Y-120646104D03*
D11*
X241477552Y-115464530D03*
D10*
X329729933Y-140246104D03*
D11*
X322317552Y-135064530D03*
X324540248Y-147670070D03*
D10*
X317126130Y-142478648D03*
D12*
X147923252Y-120081170D03*
D13*
X155339106Y-114879900D03*
X142731830Y-112667052D03*
D12*
X150145948Y-107475630D03*
D11*
X258330248Y-101310070D03*
X256107552Y-88704530D03*
D10*
X263519933Y-93886104D03*
X250916130Y-96118648D03*
D14*
X312319800Y-147800600D03*
D11*
X318997552Y-116304530D03*
D10*
X313806130Y-123718648D03*
X326409933Y-121486104D03*
D11*
X321220248Y-128910070D03*
D14*
X178923500Y-94259700D03*
D12*
X180483252Y-154831170D03*
X182705948Y-142225630D03*
D13*
X175291830Y-147417052D03*
X187899106Y-149629900D03*
D12*
X130555948Y-108855630D03*
D13*
X123141830Y-114047052D03*
X135749106Y-116259900D03*
D12*
X128333252Y-121461170D03*
X113615948Y-95225630D03*
X111393252Y-107831170D03*
D13*
X118809106Y-102629900D03*
X106201830Y-100417052D03*
X115499106Y-121389900D03*
D12*
X108083252Y-126591170D03*
X110305948Y-113985630D03*
D13*
X102891830Y-119177052D03*
D10*
X283099933Y-95276104D03*
D11*
X275687552Y-90094530D03*
D10*
X270496130Y-97508648D03*
D11*
X277910248Y-102700070D03*
D13*
X163971830Y-101897052D03*
X176579106Y-104109900D03*
D12*
X169163252Y-109311170D03*
X171385948Y-96705630D03*
D14*
X172939100Y-157280200D03*
D10*
X221666130Y-149638648D03*
D11*
X229080248Y-154830070D03*
X226857552Y-142224530D03*
D10*
X234269933Y-147406104D03*
X227649933Y-109886104D03*
X215046130Y-112118648D03*
D11*
X222460248Y-117310070D03*
X220237552Y-104704530D03*
D13*
X181901830Y-109897052D03*
X194509106Y-112109900D03*
D12*
X187093252Y-117311170D03*
X189315948Y-104705630D03*
D11*
X281230248Y-121460070D03*
D10*
X286419933Y-114036104D03*
D11*
X279007552Y-108854530D03*
D10*
X273816130Y-116268648D03*
D12*
X90555948Y-116305630D03*
X88333252Y-128911170D03*
D13*
X95749106Y-123709900D03*
X83141830Y-121497052D03*
X183162630Y-171048352D03*
X195769906Y-173261200D03*
D12*
X188354052Y-178462470D03*
X190576748Y-165856930D03*
D11*
X218888252Y-165873230D03*
D10*
X226300633Y-171054804D03*
D11*
X221110948Y-178478770D03*
D10*
X213696830Y-173287348D03*
D11*
X315697552Y-97544530D03*
D10*
X310506130Y-104958648D03*
D11*
X317920248Y-110150070D03*
D10*
X323109933Y-102726104D03*
D13*
X79831830Y-140257052D03*
X92439106Y-142469900D03*
D12*
X85023252Y-147671170D03*
X87245948Y-135065630D03*
X168075948Y-115465630D03*
D13*
X160661830Y-120657052D03*
X173269106Y-122869900D03*
D12*
X165853252Y-128071170D03*
X131643252Y-102691170D03*
D13*
X139059106Y-97489900D03*
D12*
X133865948Y-90085630D03*
D13*
X126451830Y-95277052D03*
D10*
X238226130Y-168968648D03*
X250829933Y-166736104D03*
D11*
X243417552Y-161554530D03*
X245640248Y-174160070D03*
D14*
X101400200Y-95098200D03*
D10*
X289719933Y-132786104D03*
X277116130Y-135018648D03*
D11*
X282307552Y-127604530D03*
X284530248Y-140210070D03*
D15*
X140618000Y-150320000D03*
D16*
X134218000Y-156720000D03*
X147018000Y-156710000D03*
D15*
X140618000Y-163120000D03*
D13*
X76979106Y-120399900D03*
D12*
X71785948Y-112995630D03*
D13*
X64371830Y-118187052D03*
D12*
X69563252Y-125601170D03*
D14*
X230631500Y-94259700D03*
X308154900Y-95098200D03*
D12*
X104773252Y-145351170D03*
D13*
X112189106Y-140149900D03*
D12*
X106995948Y-132745630D03*
D13*
X99581830Y-137937052D03*
D11*
X262717552Y-126224530D03*
D10*
X257526130Y-133638648D03*
D11*
X264940248Y-138830070D03*
D10*
X270129933Y-131406104D03*
D12*
X93865948Y-97545630D03*
D13*
X99059106Y-104949900D03*
X86451830Y-102737052D03*
D12*
X91643252Y-110151170D03*
X166145948Y-161545630D03*
D13*
X171339106Y-168949900D03*
X158731830Y-166737052D03*
D12*
X163923252Y-174151170D03*
D16*
X262428000Y-156720000D03*
X275228000Y-156710000D03*
D15*
X268828000Y-150320000D03*
X268828000Y-163120000D03*
D12*
X183783252Y-136071170D03*
X186005948Y-123465630D03*
D13*
X178591830Y-128657052D03*
X191199106Y-130869900D03*
D12*
X146835948Y-126235630D03*
D13*
X139421830Y-131427052D03*
X152029106Y-133639900D03*
D12*
X144613252Y-138841170D03*
D14*
X97235200Y-147800600D03*
D11*
X298160248Y-107830070D03*
D10*
X303349933Y-100406104D03*
D11*
X295937552Y-95224530D03*
D10*
X290746130Y-102638648D03*
X230959933Y-128646104D03*
X218356130Y-130878648D03*
D11*
X225770248Y-136070070D03*
X223547552Y-123464530D03*
M02*
