G04 #@! TF.GenerationSoftware,KiCad,Pcbnew,(6.0.2)*
G04 #@! TF.CreationDate,2022-04-12T17:12:53+08:00*
G04 #@! TF.ProjectId,plate,706c6174-652e-46b6-9963-61645f706362,rev?*
G04 #@! TF.SameCoordinates,Original*
G04 #@! TF.FileFunction,Profile,NP*
%FSLAX46Y46*%
G04 Gerber Fmt 4.6, Leading zero omitted, Abs format (unit mm)*
G04 Created by KiCad (PCBNEW (6.0.2)) date 2022-04-12 17:12:53*
%MOMM*%
%LPD*%
G01*
G04 APERTURE LIST*
G04 #@! TA.AperFunction,Profile*
%ADD10C,0.100000*%
G04 #@! TD*
G04 APERTURE END LIST*
D10*
X330323235Y-125680995D02*
G75*
G03*
X331413313Y-125489440I545039J95778D01*
G01*
X328665006Y-116230000D02*
X330323235Y-125680995D01*
X328035006Y-112710000D02*
G75*
G03*
X329125084Y-112518445I545039J95778D01*
G01*
X329755084Y-116038445D02*
G75*
G03*
X328665006Y-116230000I-545039J-95778D01*
G01*
X329755084Y-116038445D02*
X331413313Y-125489440D01*
X78141693Y-125489440D02*
G75*
G03*
X79231771Y-125680995I545039J-95777D01*
G01*
X79231771Y-125680995D02*
X80890000Y-116230000D01*
X80429922Y-112518445D02*
G75*
G03*
X81520000Y-112710000I545039J-95777D01*
G01*
X80890000Y-116230000D02*
G75*
G03*
X79799922Y-116038445I-545039J95777D01*
G01*
X78141693Y-125489440D02*
X79799922Y-116038445D01*
X80090739Y-111289183D02*
X63939104Y-108440854D01*
X346774359Y-109252013D02*
G75*
G03*
X345615902Y-108440854I-984807J-173647D01*
G01*
X78601771Y-129200995D02*
G75*
G03*
X77511693Y-129009440I-545039J95777D01*
G01*
X255205304Y-175643955D02*
G75*
G03*
X255898909Y-175456112I-695307J3941882D01*
G01*
X163028593Y-87225250D02*
G75*
G03*
X163723185Y-87286019I694586J3939158D01*
G01*
X76083697Y-149270027D02*
X120461265Y-157094990D01*
X279696012Y-166650013D02*
G75*
G03*
X281488950Y-165323575I-1386351J3748893D01*
G01*
X329470000Y-111280001D02*
G75*
G03*
X329020739Y-111920817I95779J-545039D01*
G01*
X210316987Y-183558977D02*
X255205304Y-175643955D01*
X84782206Y-94179560D02*
X81520000Y-112710000D01*
X349735059Y-126042986D02*
X346774358Y-109252013D01*
X128066056Y-165323575D02*
G75*
G03*
X129858994Y-166650013I3179289J2422455D01*
G01*
X334282470Y-148111571D02*
X330953236Y-129200995D01*
X332149184Y-129600739D02*
G75*
G03*
X332790000Y-130050000I545039J95779D01*
G01*
X86385427Y-92560704D02*
G75*
G03*
X84782206Y-94179560I367354J-1967103D01*
G01*
X76760000Y-130040001D02*
G75*
G03*
X77400817Y-129590739I95777J545041D01*
G01*
X153656097Y-175456112D02*
X129858994Y-166650013D01*
X284753925Y-85401908D02*
G75*
G03*
X284302686Y-85344134I-734308J-3944182D01*
G01*
X328035007Y-112710000D02*
X324772801Y-94179560D01*
X80540000Y-111930000D02*
X80429923Y-112518445D01*
X199238019Y-183558977D02*
X154349702Y-175643955D01*
X78601771Y-129200995D02*
X75272537Y-148111571D01*
X265433565Y-84012682D02*
G75*
G03*
X264457422Y-84063530I-281012J-4000408D01*
G01*
X122947808Y-158609272D02*
G75*
G03*
X120461265Y-157094990I-3180243J-2423483D01*
G01*
X333471310Y-149270027D02*
G75*
G03*
X334282470Y-148111571I-173648J984808D01*
G01*
X80540001Y-111930000D02*
G75*
G03*
X80090739Y-111289183I-545041J95777D01*
G01*
X63939104Y-108440854D02*
G75*
G03*
X62780649Y-109252013I-173647J-984808D01*
G01*
X125025056Y-85360171D02*
X144121442Y-84012682D01*
X289093742Y-157094990D02*
G75*
G03*
X286607199Y-158609272I693696J-3937759D01*
G01*
X333471310Y-149270027D02*
X289093742Y-157094990D01*
X284302686Y-85344134D02*
X265433565Y-84012682D01*
X202710061Y-101730000D02*
G75*
G03*
X202710061Y-101730000I-820061J0D01*
G01*
X163723185Y-87286019D02*
X245831821Y-87286019D01*
X153656097Y-175456112D02*
G75*
G03*
X154349702Y-175643955I1388912J3754039D01*
G01*
X246526414Y-87225250D02*
X264457422Y-84063530D01*
X255898909Y-175456112D02*
X279696012Y-166650013D01*
X199238019Y-183558977D02*
G75*
G03*
X199932612Y-183619746I694588J3939181D01*
G01*
X284753925Y-85401908D02*
X323169580Y-92560704D01*
X324772801Y-94179560D02*
G75*
G03*
X323169580Y-92560704I-1970570J-348241D01*
G01*
X329125084Y-112518445D02*
X329020739Y-111920817D01*
X245831821Y-87286019D02*
G75*
G03*
X246526414Y-87225250I5J3999950D01*
G01*
X332043314Y-129009440D02*
G75*
G03*
X330953236Y-129200995I-545039J-95778D01*
G01*
X332043314Y-129009440D02*
X332149183Y-129600739D01*
X145097585Y-84063530D02*
X163028593Y-87225250D01*
X209622395Y-183619746D02*
G75*
G03*
X210316987Y-183558977I6J3999927D01*
G01*
X62780649Y-109252013D02*
X59819947Y-126042986D01*
X77400817Y-129590739D02*
X77511693Y-129009440D01*
X125025056Y-85360171D02*
X86385427Y-92560704D01*
X348923900Y-127201441D02*
G75*
G03*
X349735059Y-126042986I-173649J984808D01*
G01*
X208490061Y-101720000D02*
G75*
G03*
X208490061Y-101720000I-820061J0D01*
G01*
X59819947Y-126042986D02*
G75*
G03*
X60631107Y-127201441I984810J-173646D01*
G01*
X332790000Y-130050000D02*
X348923900Y-127201441D01*
X199932612Y-183619746D02*
X209622395Y-183619746D01*
X75272537Y-148111571D02*
G75*
G03*
X76083697Y-149270027I984808J-173648D01*
G01*
X345615902Y-108440854D02*
X329470000Y-111280000D01*
X281488950Y-165323575D02*
X286607199Y-158609272D01*
X76760000Y-130040000D02*
X60631107Y-127201441D01*
X145097585Y-84063530D02*
G75*
G03*
X144121442Y-84012682I-695131J-3949560D01*
G01*
X128066056Y-165323575D02*
X122947808Y-158609272D01*
M02*
