M48
; DRILL file {KiCad (6.0.2)} date Tue Apr  5 05:22:49 2022
; FORMAT={-:-/ absolute / inch / decimal}
; #@! TF.CreationDate,2022-04-05T05:22:49+08:00
; #@! TF.GenerationSoftware,Kicad,Pcbnew,(6.0.2)
; #@! TF.FileFunction,NonPlated,1,2,NPTH
FMAT,2
INCH
; #@! TA.AperFunction,NonPlated,NPTH,ComponentDrill
T1C0.0354
; #@! TA.AperFunction,NonPlated,NPTH,ComponentDrill
T2C0.0689
; #@! TA.AperFunction,NonPlated,NPTH,ComponentDrill
T3C0.1201
; #@! TA.AperFunction,NonPlated,NPTH,ComponentDrill
T4C0.1575
; #@! TA.AperFunction,NonPlated,NPTH,ComponentDrill
T5C0.1732
%
G90
G05
T1
X8.7177Y-4.4941
X8.8358Y-4.4941
T2
X2.7024Y-5.6569
X3.0964Y-5.7264
X3.3111Y-6.5258
X3.4414Y-5.7873
X3.5717Y-5.0487
X3.705Y-6.5953
X3.8353Y-5.8567
X3.9656Y-5.1181
X4.0887Y-6.4345
X4.219Y-5.6959
X4.3493Y-4.9573
X4.4826Y-6.504
X4.6129Y-5.7654
X4.7432Y-5.0268
X4.8859Y-6.2325
X5.0162Y-5.4939
X5.1465Y-4.755
X5.2798Y-6.302
X5.4101Y-5.5634
X5.455Y-7.165
X5.5404Y-4.8244
X5.6572Y-6.1782
X5.7875Y-5.4396
X5.855Y-7.165
X5.9174Y-4.701
X6.0511Y-6.2477
X6.1814Y-5.5091
X6.3113Y-4.7705
X6.3631Y-6.4928
X6.4174Y-7.5684
X6.4934Y-5.7542
X6.6237Y-5.0156
X6.757Y-6.5622
X6.8113Y-7.6378
X6.8873Y-5.8236
X7.0176Y-5.0851
X7.0694Y-6.8077
X7.1993Y-6.0691
X7.3296Y-5.3306
X7.3812Y-7.7384
X7.4633Y-6.8772
X7.5932Y-6.1386
X7.7235Y-5.4
X7.7751Y-7.8079
X8.5833Y-7.8079
X8.6345Y-5.4
X8.7648Y-6.1386
X8.8951Y-6.8771
X8.9772Y-7.7384
X9.0284Y-5.3305
X9.1587Y-6.0691
X9.289Y-6.8077
X9.3404Y-5.085
X9.4707Y-5.8236
X9.5471Y-7.6382
X9.601Y-6.5622
X9.7343Y-5.0156
X9.8646Y-5.7541
X9.941Y-7.5687
X9.9949Y-6.4927
X10.0467Y-4.7701
X10.1766Y-5.509
X10.3069Y-6.2472
X10.4406Y-4.7006
X10.5027Y-7.165
X10.5705Y-5.4396
X10.7009Y-6.1778
X10.8176Y-4.8248
X10.9027Y-7.165
X10.9483Y-5.5634
X11.0782Y-6.3016
X11.2115Y-4.7553
X11.3422Y-5.4939
X11.4721Y-6.2321
X11.6148Y-5.0267
X11.7451Y-5.7653
X11.8754Y-6.5039
X12.0087Y-4.9573
X12.139Y-5.6959
X12.2694Y-6.4345
X12.3928Y-5.1181
X12.5227Y-5.8567
X12.6534Y-6.5953
X12.7867Y-5.0486
X12.9166Y-5.7872
X13.0473Y-6.5258
X13.2617Y-5.7264
X13.6556Y-5.6569
T3
X2.769Y-5.5671
X3.0326Y-5.5121
X3.3777Y-6.436
X3.508Y-5.6975
X3.6383Y-4.9589
X3.6413Y-6.381
X3.7716Y-5.6424
X3.9019Y-4.9038
X4.1553Y-6.3447
X4.2856Y-5.6061
X4.4159Y-4.8675
X4.4188Y-6.2896
X4.5491Y-5.551
X4.6795Y-4.8125
X4.9525Y-6.1427
X5.0828Y-5.4041
X5.2131Y-4.6652
X5.2161Y-6.0877
X5.3464Y-5.3491
X5.4767Y-4.6101
X5.505Y-7.065
X5.7238Y-6.0884
X5.755Y-6.965
X5.8541Y-5.3498
X5.984Y-4.6112
X5.9873Y-6.0333
X6.1176Y-5.2947
X6.2476Y-4.5562
X6.4297Y-6.403
X6.484Y-7.4786
X6.56Y-5.6644
X6.6903Y-4.9258
X6.6932Y-6.3479
X6.7476Y-7.4235
X6.8235Y-5.6093
X6.9539Y-4.8707
X7.136Y-6.7179
X7.2659Y-5.9793
X7.3962Y-5.2408
X7.3995Y-6.6629
X7.4478Y-7.6486
X7.5295Y-5.9243
X7.6598Y-5.1857
X7.7113Y-7.5936
X8.6152Y-7.7007
X8.6664Y-5.2928
X8.7967Y-6.0314
X8.844Y-7.5588
X8.8952Y-5.1509
X8.927Y-6.77
X9.0255Y-5.8895
X9.1558Y-6.6281
X9.3723Y-4.9779
X9.5026Y-5.7164
X9.579Y-7.531
X9.6011Y-4.836
X9.6329Y-6.455
X9.7314Y-5.5745
X9.8078Y-7.3891
X9.8617Y-6.3131
X10.0786Y-4.6629
X10.2085Y-5.4019
X10.3074Y-4.521
X10.3388Y-6.1401
X10.4373Y-5.26
X10.5527Y-7.065
X10.5676Y-5.9982
X10.8027Y-6.965
X10.8494Y-4.7176
X10.9801Y-5.4562
X11.0783Y-4.5757
X11.1101Y-6.1944
X11.209Y-5.3143
X11.3389Y-6.0525
X11.6467Y-4.9196
X11.777Y-5.6582
X11.8755Y-4.7777
X11.9073Y-6.3968
X12.0058Y-5.5163
X12.1361Y-6.2549
X12.4246Y-5.0109
X12.5546Y-5.7495
X12.6535Y-4.869
X12.6853Y-6.4881
X12.7834Y-5.6076
X12.9141Y-6.3462
X13.2935Y-5.6192
X13.5224Y-5.4773
T4
X2.8994Y-5.6917
X3.5081Y-6.5606
X3.6384Y-5.822
X3.7687Y-5.0834
X4.2856Y-6.4692
X4.4159Y-5.7306
X4.5462Y-4.9921
X5.0829Y-6.2673
X5.2132Y-5.5287
X5.3435Y-4.7897
X5.655Y-7.165
X5.8541Y-6.2129
X5.9844Y-5.4743
X6.1144Y-4.7358
X6.56Y-6.5275
X6.6144Y-7.6031
X6.6903Y-5.7889
X6.8207Y-5.0503
X7.2663Y-6.8425
X7.3962Y-6.1039
X7.5266Y-5.3653
X7.5781Y-7.7732
X8.7803Y-7.7731
X8.8315Y-5.3652
X8.9618Y-6.1038
X9.0921Y-6.8424
X9.5374Y-5.0503
X9.6677Y-5.7889
X9.7441Y-7.6034
X9.798Y-6.5275
X10.2437Y-4.7353
X10.3736Y-5.4743
X10.5039Y-6.2125
X10.7027Y-7.165
X11.0145Y-4.7901
X11.1452Y-5.5286
X11.2752Y-6.2668
X11.8118Y-4.992
X11.9421Y-5.7306
X12.0724Y-6.4692
X12.5897Y-5.0834
X12.7196Y-5.8219
X12.8504Y-6.5605
X13.4586Y-5.6916
T5
X3.9451Y-6.8138
X4.1091Y-4.7389
X6.9256Y-7.187
X7.1777Y-4.7067
X9.1969Y-4.7059
X9.4325Y-7.187
X12.249Y-4.7389
X12.413Y-6.8138
T0
M30
