%TF.GenerationSoftware,KiCad,Pcbnew,(6.0.2)*%
%TF.CreationDate,2022-04-05T05:22:49+08:00*%
%TF.ProjectId,TK44,544b3434-2e6b-4696-9361-645f70636258,rev?*%
%TF.SameCoordinates,Original*%
%TF.FileFunction,Legend,Bot*%
%TF.FilePolarity,Positive*%
%FSLAX46Y46*%
G04 Gerber Fmt 4.6, Leading zero omitted, Abs format (unit mm)*
G04 Created by KiCad (PCBNEW (6.0.2)) date 2022-04-05 05:22:49*
%MOMM*%
%LPD*%
G01*
G04 APERTURE LIST*
%ADD10C,0.250000*%
%ADD11C,0.200000*%
%ADD12C,0.120000*%
G04 APERTURE END LIST*
D10*
X210915714Y-153827142D02*
X210701428Y-153898571D01*
X210344285Y-153898571D01*
X210201428Y-153827142D01*
X210130000Y-153755714D01*
X210058571Y-153612857D01*
X210058571Y-153470000D01*
X210130000Y-153327142D01*
X210201428Y-153255714D01*
X210344285Y-153184285D01*
X210630000Y-153112857D01*
X210772857Y-153041428D01*
X210844285Y-152970000D01*
X210915714Y-152827142D01*
X210915714Y-152684285D01*
X210844285Y-152541428D01*
X210772857Y-152470000D01*
X210630000Y-152398571D01*
X210272857Y-152398571D01*
X210058571Y-152470000D01*
X209558571Y-152398571D02*
X209201428Y-153898571D01*
X208915714Y-152827142D01*
X208630000Y-153898571D01*
X208272857Y-152398571D01*
X207701428Y-153898571D02*
X207701428Y-152398571D01*
X207344285Y-152398571D01*
X207130000Y-152470000D01*
X206987142Y-152612857D01*
X206915714Y-152755714D01*
X206844285Y-153041428D01*
X206844285Y-153255714D01*
X206915714Y-153541428D01*
X206987142Y-153684285D01*
X207130000Y-153827142D01*
X207344285Y-153898571D01*
X207701428Y-153898571D01*
X210022857Y-157600000D02*
X210165714Y-157528571D01*
X210380000Y-157528571D01*
X210594285Y-157600000D01*
X210737142Y-157742857D01*
X210808571Y-157885714D01*
X210880000Y-158171428D01*
X210880000Y-158385714D01*
X210808571Y-158671428D01*
X210737142Y-158814285D01*
X210594285Y-158957142D01*
X210380000Y-159028571D01*
X210237142Y-159028571D01*
X210022857Y-158957142D01*
X209951428Y-158885714D01*
X209951428Y-158385714D01*
X210237142Y-158385714D01*
X209308571Y-159028571D02*
X209308571Y-157528571D01*
X208451428Y-159028571D01*
X208451428Y-157528571D01*
X207737142Y-159028571D02*
X207737142Y-157528571D01*
X207380000Y-157528571D01*
X207165714Y-157600000D01*
X207022857Y-157742857D01*
X206951428Y-157885714D01*
X206880000Y-158171428D01*
X206880000Y-158385714D01*
X206951428Y-158671428D01*
X207022857Y-158814285D01*
X207165714Y-158957142D01*
X207380000Y-159028571D01*
X207737142Y-159028571D01*
X210915714Y-151287142D02*
X210701428Y-151358571D01*
X210344285Y-151358571D01*
X210201428Y-151287142D01*
X210130000Y-151215714D01*
X210058571Y-151072857D01*
X210058571Y-150930000D01*
X210130000Y-150787142D01*
X210201428Y-150715714D01*
X210344285Y-150644285D01*
X210630000Y-150572857D01*
X210772857Y-150501428D01*
X210844285Y-150430000D01*
X210915714Y-150287142D01*
X210915714Y-150144285D01*
X210844285Y-150001428D01*
X210772857Y-149930000D01*
X210630000Y-149858571D01*
X210272857Y-149858571D01*
X210058571Y-149930000D01*
X209558571Y-149858571D02*
X209201428Y-151358571D01*
X208915714Y-150287142D01*
X208630000Y-151358571D01*
X208272857Y-149858571D01*
X206844285Y-151215714D02*
X206915714Y-151287142D01*
X207130000Y-151358571D01*
X207272857Y-151358571D01*
X207487142Y-151287142D01*
X207630000Y-151144285D01*
X207701428Y-151001428D01*
X207772857Y-150715714D01*
X207772857Y-150501428D01*
X207701428Y-150215714D01*
X207630000Y-150072857D01*
X207487142Y-149930000D01*
X207272857Y-149858571D01*
X207130000Y-149858571D01*
X206915714Y-149930000D01*
X206844285Y-150001428D01*
X210880000Y-154938571D02*
X210380000Y-156438571D01*
X209880000Y-154938571D01*
X208522857Y-156295714D02*
X208594285Y-156367142D01*
X208808571Y-156438571D01*
X208951428Y-156438571D01*
X209165714Y-156367142D01*
X209308571Y-156224285D01*
X209380000Y-156081428D01*
X209451428Y-155795714D01*
X209451428Y-155581428D01*
X209380000Y-155295714D01*
X209308571Y-155152857D01*
X209165714Y-155010000D01*
X208951428Y-154938571D01*
X208808571Y-154938571D01*
X208594285Y-155010000D01*
X208522857Y-155081428D01*
X207022857Y-156295714D02*
X207094285Y-156367142D01*
X207308571Y-156438571D01*
X207451428Y-156438571D01*
X207665714Y-156367142D01*
X207808571Y-156224285D01*
X207880000Y-156081428D01*
X207951428Y-155795714D01*
X207951428Y-155581428D01*
X207880000Y-155295714D01*
X207808571Y-155152857D01*
X207665714Y-155010000D01*
X207451428Y-154938571D01*
X207308571Y-154938571D01*
X207094285Y-155010000D01*
X207022857Y-155081428D01*
D11*
%TO.C,SW45*%
X221046666Y-117188095D02*
X220799047Y-117188095D01*
X220675238Y-117250000D01*
X220551428Y-117373809D01*
X220489523Y-117621428D01*
X220489523Y-118054761D01*
X220551428Y-118302380D01*
X220675238Y-118426190D01*
X220799047Y-118488095D01*
X221046666Y-118488095D01*
X221170476Y-118426190D01*
X221294285Y-118302380D01*
X221356190Y-118054761D01*
X221356190Y-117621428D01*
X221294285Y-117373809D01*
X221170476Y-117250000D01*
X221046666Y-117188095D01*
X220118095Y-117621428D02*
X219622857Y-117621428D01*
X219932380Y-118488095D02*
X219932380Y-117373809D01*
X219870476Y-117250000D01*
X219746666Y-117188095D01*
X219622857Y-117188095D01*
X219375238Y-117621428D02*
X218880000Y-117621428D01*
X219189523Y-118488095D02*
X219189523Y-117373809D01*
X219127619Y-117250000D01*
X219003809Y-117188095D01*
X218880000Y-117188095D01*
X226591904Y-117188095D02*
X226344285Y-117188095D01*
X226220476Y-117250000D01*
X226096666Y-117373809D01*
X226034761Y-117621428D01*
X226034761Y-118054761D01*
X226096666Y-118302380D01*
X226220476Y-118426190D01*
X226344285Y-118488095D01*
X226591904Y-118488095D01*
X226715714Y-118426190D01*
X226839523Y-118302380D01*
X226901428Y-118054761D01*
X226901428Y-117621428D01*
X226839523Y-117373809D01*
X226715714Y-117250000D01*
X226591904Y-117188095D01*
X225477619Y-117621428D02*
X225477619Y-118488095D01*
X225477619Y-117745238D02*
X225415714Y-117683333D01*
X225291904Y-117621428D01*
X225106190Y-117621428D01*
X224982380Y-117683333D01*
X224920476Y-117807142D01*
X224920476Y-118488095D01*
D12*
%TO.C,D5*%
X166022562Y-133063835D02*
X166157313Y-132299624D01*
X165728314Y-133269870D02*
X164652904Y-133080246D01*
X164446870Y-132785998D02*
X164581621Y-132021787D01*
X164446870Y-132785998D02*
G75*
G03*
X164652904Y-133080246I250141J-44107D01*
G01*
X165728314Y-133269870D02*
G75*
G03*
X166022562Y-133063835I44107J250141D01*
G01*
%TO.C,D25*%
X80306870Y-171145998D02*
X80441621Y-170381787D01*
X81588314Y-171629870D02*
X80512904Y-171440246D01*
X81882562Y-171423835D02*
X82017313Y-170659624D01*
X80306870Y-171145998D02*
G75*
G03*
X80512904Y-171440246I250141J-44107D01*
G01*
X81588314Y-171629870D02*
G75*
G03*
X81882562Y-171423835I44107J250141D01*
G01*
%TO.C,D32*%
X242147438Y-173043835D02*
X242012687Y-172279624D01*
X243517096Y-173060246D02*
X242441686Y-173249870D01*
X243723130Y-172765998D02*
X243588379Y-172001787D01*
X243517096Y-173060246D02*
G75*
G03*
X243723130Y-172765998I-44107J250141D01*
G01*
X242147438Y-173043835D02*
G75*
G03*
X242441686Y-173249870I250141J44106D01*
G01*
%TO.C,D7*%
X218947896Y-143396746D02*
X217872486Y-143586370D01*
X217578238Y-143380335D02*
X217443487Y-142616124D01*
X219153930Y-143102498D02*
X219019179Y-142338287D01*
X217578238Y-143380335D02*
G75*
G03*
X217872486Y-143586370I250141J44106D01*
G01*
X218947896Y-143396746D02*
G75*
G03*
X219153930Y-143102498I-44107J250141D01*
G01*
%TO.C,D28*%
X141178314Y-162799870D02*
X140102904Y-162610246D01*
X141472562Y-162593835D02*
X141607313Y-161829624D01*
X139896870Y-162315998D02*
X140031621Y-161551787D01*
X139896870Y-162315998D02*
G75*
G03*
X140102904Y-162610246I250141J-44107D01*
G01*
X141178314Y-162799870D02*
G75*
G03*
X141472562Y-162593835I44107J250141D01*
G01*
%TO.C,D21*%
X258343130Y-146015998D02*
X258208379Y-145251787D01*
X258137096Y-146310246D02*
X257061686Y-146499870D01*
X256767438Y-146293835D02*
X256632687Y-145529624D01*
X256767438Y-146293835D02*
G75*
G03*
X257061686Y-146499870I250141J44106D01*
G01*
X258137096Y-146310246D02*
G75*
G03*
X258343130Y-146015998I-44107J250141D01*
G01*
%TO.C,D8*%
X237103130Y-135245998D02*
X236968379Y-134481787D01*
X236897096Y-135540246D02*
X235821686Y-135729870D01*
X235527438Y-135523835D02*
X235392687Y-134759624D01*
X236897096Y-135540246D02*
G75*
G03*
X237103130Y-135245998I-44107J250141D01*
G01*
X235527438Y-135523835D02*
G75*
G03*
X235821686Y-135729870I250141J44106D01*
G01*
%TO.C,D6*%
X183952562Y-141063835D02*
X184087313Y-140299624D01*
X182376870Y-140785998D02*
X182511621Y-140021787D01*
X183658314Y-141269870D02*
X182582904Y-141080246D01*
X183658314Y-141269870D02*
G75*
G03*
X183952562Y-141063835I44107J250141D01*
G01*
X182376870Y-140785998D02*
G75*
G03*
X182582904Y-141080246I250141J-44107D01*
G01*
%TO.C,D14*%
X103366870Y-150065998D02*
X103501621Y-149301787D01*
X104942562Y-150343835D02*
X105077313Y-149579624D01*
X104648314Y-150549870D02*
X103572904Y-150360246D01*
X103366870Y-150065998D02*
G75*
G03*
X103572904Y-150360246I250141J-44107D01*
G01*
X104648314Y-150549870D02*
G75*
G03*
X104942562Y-150343835I44107J250141D01*
G01*
%TO.C,D4*%
X147788314Y-125279870D02*
X146712904Y-125090246D01*
X146506870Y-124795998D02*
X146641621Y-124031787D01*
X148082562Y-125073835D02*
X148217313Y-124309624D01*
X147788314Y-125279870D02*
G75*
G03*
X148082562Y-125073835I44107J250141D01*
G01*
X146506870Y-124795998D02*
G75*
G03*
X146712904Y-125090246I250141J-44107D01*
G01*
%TO.C,D23*%
X296607438Y-152803835D02*
X296472687Y-152039624D01*
X298183130Y-152525998D02*
X298048379Y-151761787D01*
X297977096Y-152820246D02*
X296901686Y-153009870D01*
X296607438Y-152803835D02*
G75*
G03*
X296901686Y-153009870I250141J44106D01*
G01*
X297977096Y-152820246D02*
G75*
G03*
X298183130Y-152525998I-44107J250141D01*
G01*
%TO.C,D37*%
X64856870Y-149075998D02*
X64991621Y-148311787D01*
X66432562Y-149353835D02*
X66567313Y-148589624D01*
X66138314Y-149559870D02*
X65062904Y-149370246D01*
X64856870Y-149075998D02*
G75*
G03*
X65062904Y-149370246I250141J-44107D01*
G01*
X66138314Y-149559870D02*
G75*
G03*
X66432562Y-149353835I44107J250141D01*
G01*
%TO.C,D18*%
X180642562Y-159823835D02*
X180777313Y-159059624D01*
X179066870Y-159545998D02*
X179201621Y-158781787D01*
X180348314Y-160029870D02*
X179272904Y-159840246D01*
X179066870Y-159545998D02*
G75*
G03*
X179272904Y-159840246I250141J-44107D01*
G01*
X180348314Y-160029870D02*
G75*
G03*
X180642562Y-159823835I44107J250141D01*
G01*
%TO.C,D3*%
X126926870Y-126165998D02*
X127061621Y-125401787D01*
X128502562Y-126443835D02*
X128637313Y-125679624D01*
X128208314Y-126649870D02*
X127132904Y-126460246D01*
X126926870Y-126165998D02*
G75*
G03*
X127132904Y-126460246I250141J-44107D01*
G01*
X128208314Y-126649870D02*
G75*
G03*
X128502562Y-126443835I44107J250141D01*
G01*
%TO.C,D43*%
X265570000Y-187956000D02*
X265570000Y-187180000D01*
X263970000Y-187956000D02*
X263970000Y-187180000D01*
X265316000Y-188210000D02*
X264224000Y-188210000D01*
X265316000Y-188210000D02*
G75*
G03*
X265570000Y-187956000I0J254000D01*
G01*
X263970000Y-187956000D02*
G75*
G03*
X264224000Y-188210000I254000J0D01*
G01*
%TO.C,D2*%
X106676870Y-131305998D02*
X106811621Y-130541787D01*
X108252562Y-131583835D02*
X108387313Y-130819624D01*
X107958314Y-131789870D02*
X106882904Y-131600246D01*
X107958314Y-131789870D02*
G75*
G03*
X108252562Y-131583835I44107J250141D01*
G01*
X106676870Y-131305998D02*
G75*
G03*
X106882904Y-131600246I250141J-44107D01*
G01*
%TO.C,D12*%
X314427096Y-136380246D02*
X313351686Y-136569870D01*
X313057438Y-136363835D02*
X312922687Y-135599624D01*
X314633130Y-136085998D02*
X314498379Y-135321787D01*
X314427096Y-136380246D02*
G75*
G03*
X314633130Y-136085998I-44107J250141D01*
G01*
X313057438Y-136363835D02*
G75*
G03*
X313351686Y-136569870I250141J44106D01*
G01*
%TO.C,D38*%
X135760000Y-187956000D02*
X135760000Y-187180000D01*
X137106000Y-188210000D02*
X136014000Y-188210000D01*
X137360000Y-187956000D02*
X137360000Y-187180000D01*
X135760000Y-187956000D02*
G75*
G03*
X136014000Y-188210000I254000J0D01*
G01*
X137106000Y-188210000D02*
G75*
G03*
X137360000Y-187956000I0J254000D01*
G01*
%TO.C,D22*%
X276367438Y-147673835D02*
X276232687Y-146909624D01*
X277737096Y-147690246D02*
X276661686Y-147879870D01*
X277943130Y-147395998D02*
X277808379Y-146631787D01*
X277737096Y-147690246D02*
G75*
G03*
X277943130Y-147395998I-44107J250141D01*
G01*
X276367438Y-147673835D02*
G75*
G03*
X276661686Y-147879870I250141J44106D01*
G01*
%TO.C,J1*%
X225343179Y-123102632D02*
X225082707Y-121625420D01*
X225834603Y-125889638D02*
X225574131Y-124412426D01*
X226442973Y-125020796D02*
X224965761Y-125281268D01*
%TO.C,D26*%
X101632562Y-169103835D02*
X101767313Y-168339624D01*
X101338314Y-169309870D02*
X100262904Y-169120246D01*
X100056870Y-168825998D02*
X100191621Y-168061787D01*
X100056870Y-168825998D02*
G75*
G03*
X100262904Y-169120246I250141J-44107D01*
G01*
X101338314Y-169309870D02*
G75*
G03*
X101632562Y-169103835I44107J250141D01*
G01*
%TO.C,D36*%
X319677438Y-173883835D02*
X319542687Y-173119624D01*
X321253130Y-173605998D02*
X321118379Y-172841787D01*
X321047096Y-173900246D02*
X319971686Y-174089870D01*
X321047096Y-173900246D02*
G75*
G03*
X321253130Y-173605998I-44107J250141D01*
G01*
X319677438Y-173883835D02*
G75*
G03*
X319971686Y-174089870I250141J44106D01*
G01*
%TO.C,D27*%
X121882562Y-163973835D02*
X122017313Y-163209624D01*
X120306870Y-163695998D02*
X120441621Y-162931787D01*
X121588314Y-164179870D02*
X120512904Y-163990246D01*
X120306870Y-163695998D02*
G75*
G03*
X120512904Y-163990246I250141J-44107D01*
G01*
X121588314Y-164179870D02*
G75*
G03*
X121882562Y-163973835I44107J250141D01*
G01*
%TO.C,D20*%
X240207096Y-154300246D02*
X239131686Y-154489870D01*
X238837438Y-154283835D02*
X238702687Y-153519624D01*
X240413130Y-154005998D02*
X240278379Y-153241787D01*
X240207096Y-154300246D02*
G75*
G03*
X240413130Y-154005998I-44107J250141D01*
G01*
X238837438Y-154283835D02*
G75*
G03*
X239131686Y-154489870I250141J44106D01*
G01*
%TO.C,D16*%
X143206870Y-143555998D02*
X143341621Y-142791787D01*
X144782562Y-143833835D02*
X144917313Y-143069624D01*
X144488314Y-144039870D02*
X143412904Y-143850246D01*
X144488314Y-144039870D02*
G75*
G03*
X144782562Y-143833835I44107J250141D01*
G01*
X143206870Y-143555998D02*
G75*
G03*
X143412904Y-143850246I250141J-44107D01*
G01*
%TO.C,D11*%
X294873130Y-133765998D02*
X294738379Y-133001787D01*
X293297438Y-134043835D02*
X293162687Y-133279624D01*
X294667096Y-134060246D02*
X293591686Y-134249870D01*
X294667096Y-134060246D02*
G75*
G03*
X294873130Y-133765998I-44107J250141D01*
G01*
X293297438Y-134043835D02*
G75*
G03*
X293591686Y-134249870I250141J44106D01*
G01*
%TO.C,D31*%
X224217438Y-181043835D02*
X224082687Y-180279624D01*
X225793130Y-180765998D02*
X225658379Y-180001787D01*
X225587096Y-181060246D02*
X224511686Y-181249870D01*
X225587096Y-181060246D02*
G75*
G03*
X225793130Y-180765998I-44107J250141D01*
G01*
X224217438Y-181043835D02*
G75*
G03*
X224511686Y-181249870I250141J44106D01*
G01*
%TO.C,D35*%
X301493130Y-171285998D02*
X301358379Y-170521787D01*
X301287096Y-171580246D02*
X300211686Y-171769870D01*
X299917438Y-171563835D02*
X299782687Y-170799624D01*
X301287096Y-171580246D02*
G75*
G03*
X301493130Y-171285998I-44107J250141D01*
G01*
X299917438Y-171563835D02*
G75*
G03*
X300211686Y-171769870I250141J44106D01*
G01*
%TO.C,D9*%
X253467438Y-127523835D02*
X253332687Y-126759624D01*
X254837096Y-127540246D02*
X253761686Y-127729870D01*
X255043130Y-127245998D02*
X254908379Y-126481787D01*
X253467438Y-127523835D02*
G75*
G03*
X253761686Y-127729870I250141J44106D01*
G01*
X254837096Y-127540246D02*
G75*
G03*
X255043130Y-127245998I-44107J250141D01*
G01*
%TO.C,D44*%
X336703130Y-151535998D02*
X336568379Y-150771787D01*
X336497096Y-151830246D02*
X335421686Y-152019870D01*
X335127438Y-151813835D02*
X334992687Y-151049624D01*
X336497096Y-151830246D02*
G75*
G03*
X336703130Y-151535998I-44107J250141D01*
G01*
X335127438Y-151813835D02*
G75*
G03*
X335421686Y-152019870I250141J44106D01*
G01*
%TO.C,D40*%
X185262562Y-202223835D02*
X185397313Y-201459624D01*
X183686870Y-201945998D02*
X183821621Y-201181787D01*
X184968314Y-202429870D02*
X183892904Y-202240246D01*
X183686870Y-201945998D02*
G75*
G03*
X183892904Y-202240246I250141J-44107D01*
G01*
X184968314Y-202429870D02*
G75*
G03*
X185262562Y-202223835I44107J250141D01*
G01*
%TO.C,D34*%
X281037096Y-166440246D02*
X279961686Y-166629870D01*
X279667438Y-166423835D02*
X279532687Y-165659624D01*
X281243130Y-166145998D02*
X281108379Y-165381787D01*
X281037096Y-166440246D02*
G75*
G03*
X281243130Y-166145998I-44107J250141D01*
G01*
X279667438Y-166423835D02*
G75*
G03*
X279961686Y-166629870I250141J44106D01*
G01*
%TO.C,D1*%
X88208314Y-134109870D02*
X87132904Y-133920246D01*
X86926870Y-133625998D02*
X87061621Y-132861787D01*
X88502562Y-133903835D02*
X88637313Y-133139624D01*
X88208314Y-134109870D02*
G75*
G03*
X88502562Y-133903835I44107J250141D01*
G01*
X86926870Y-133625998D02*
G75*
G03*
X87132904Y-133920246I250141J-44107D01*
G01*
%TO.C,D39*%
X160488314Y-198109870D02*
X159412904Y-197920246D01*
X160782562Y-197903835D02*
X160917313Y-197139624D01*
X159206870Y-197625998D02*
X159341621Y-196861787D01*
X159206870Y-197625998D02*
G75*
G03*
X159412904Y-197920246I250141J-44107D01*
G01*
X160488314Y-198109870D02*
G75*
G03*
X160782562Y-197903835I44107J250141D01*
G01*
%TO.C,D42*%
X240777438Y-200373835D02*
X240642687Y-199609624D01*
X242147096Y-200390246D02*
X241071686Y-200579870D01*
X242353130Y-200095998D02*
X242218379Y-199331787D01*
X240777438Y-200373835D02*
G75*
G03*
X241071686Y-200579870I250141J44106D01*
G01*
X242147096Y-200390246D02*
G75*
G03*
X242353130Y-200095998I-44107J250141D01*
G01*
%TO.C,D17*%
X162418314Y-152029870D02*
X161342904Y-151840246D01*
X162712562Y-151823835D02*
X162847313Y-151059624D01*
X161136870Y-151545998D02*
X161271621Y-150781787D01*
X162418314Y-152029870D02*
G75*
G03*
X162712562Y-151823835I44107J250141D01*
G01*
X161136870Y-151545998D02*
G75*
G03*
X161342904Y-151840246I250141J-44107D01*
G01*
%TO.C,D15*%
X125192562Y-145213835D02*
X125327313Y-144449624D01*
X124898314Y-145419870D02*
X123822904Y-145230246D01*
X123616870Y-144935998D02*
X123751621Y-144171787D01*
X123616870Y-144935998D02*
G75*
G03*
X123822904Y-145230246I250141J-44107D01*
G01*
X124898314Y-145419870D02*
G75*
G03*
X125192562Y-145213835I44107J250141D01*
G01*
%TO.C,D33*%
X261653130Y-164765998D02*
X261518379Y-164001787D01*
X260077438Y-165043835D02*
X259942687Y-164279624D01*
X261447096Y-165060246D02*
X260371686Y-165249870D01*
X260077438Y-165043835D02*
G75*
G03*
X260371686Y-165249870I250141J44106D01*
G01*
X261447096Y-165060246D02*
G75*
G03*
X261653130Y-164765998I-44107J250141D01*
G01*
%TO.C,D24*%
X317933130Y-154845998D02*
X317798379Y-154081787D01*
X316357438Y-155123835D02*
X316222687Y-154359624D01*
X317727096Y-155140246D02*
X316651686Y-155329870D01*
X316357438Y-155123835D02*
G75*
G03*
X316651686Y-155329870I250141J44106D01*
G01*
X317727096Y-155140246D02*
G75*
G03*
X317933130Y-154845998I-44107J250141D01*
G01*
%TO.C,D13*%
X85192562Y-152663835D02*
X85327313Y-151899624D01*
X83616870Y-152385998D02*
X83751621Y-151621787D01*
X84898314Y-152869870D02*
X83822904Y-152680246D01*
X83616870Y-152385998D02*
G75*
G03*
X83822904Y-152680246I250141J-44107D01*
G01*
X84898314Y-152869870D02*
G75*
G03*
X85192562Y-152663835I44107J250141D01*
G01*
%TO.C,D10*%
X274623130Y-128635998D02*
X274488379Y-127871787D01*
X273047438Y-128913835D02*
X272912687Y-128149624D01*
X274417096Y-128930246D02*
X273341686Y-129119870D01*
X273047438Y-128913835D02*
G75*
G03*
X273341686Y-129119870I250141J44106D01*
G01*
X274417096Y-128930246D02*
G75*
G03*
X274623130Y-128635998I-44107J250141D01*
G01*
%TO.C,D19*%
X220907438Y-162283835D02*
X220772687Y-161519624D01*
X222483130Y-162005998D02*
X222348379Y-161241787D01*
X222277096Y-162300246D02*
X221201686Y-162489870D01*
X222277096Y-162300246D02*
G75*
G03*
X222483130Y-162005998I-44107J250141D01*
G01*
X220907438Y-162283835D02*
G75*
G03*
X221201686Y-162489870I250141J44106D01*
G01*
%TO.C,D41*%
X217873130Y-204405998D02*
X217738379Y-203641787D01*
X217667096Y-204700246D02*
X216591686Y-204889870D01*
X216297438Y-204683835D02*
X216162687Y-203919624D01*
X217667096Y-204700246D02*
G75*
G03*
X217873130Y-204405998I-44107J250141D01*
G01*
X216297438Y-204683835D02*
G75*
G03*
X216591686Y-204889870I250141J44106D01*
G01*
%TO.C,D30*%
X175766870Y-178305998D02*
X175901621Y-177541787D01*
X177342562Y-178583835D02*
X177477313Y-177819624D01*
X177048314Y-178789870D02*
X175972904Y-178600246D01*
X177048314Y-178789870D02*
G75*
G03*
X177342562Y-178583835I44107J250141D01*
G01*
X175766870Y-178305998D02*
G75*
G03*
X175972904Y-178600246I250141J-44107D01*
G01*
%TO.C,D29*%
X159108314Y-170789870D02*
X158032904Y-170600246D01*
X157826870Y-170305998D02*
X157961621Y-169541787D01*
X159402562Y-170583835D02*
X159537313Y-169819624D01*
X157826870Y-170305998D02*
G75*
G03*
X158032904Y-170600246I250141J-44107D01*
G01*
X159108314Y-170789870D02*
G75*
G03*
X159402562Y-170583835I44107J250141D01*
G01*
%TD*%
M02*
