M48
; DRILL file {KiCad (6.0.2)} date Tue Apr  5 05:22:49 2022
; FORMAT={-:-/ absolute / inch / decimal}
; #@! TF.CreationDate,2022-04-05T05:22:49+08:00
; #@! TF.GenerationSoftware,Kicad,Pcbnew,(6.0.2)
; #@! TF.FileFunction,Plated,1,2,PTH
FMAT,2
INCH
; #@! TA.AperFunction,Plated,PTH,ViaDrill
T1C0.0118
; #@! TA.AperFunction,Plated,PTH,ComponentDrill
T2C0.0157
; #@! TA.AperFunction,Plated,PTH,ComponentDrill
T3C0.0236
%
G90
G05
T1
X5.3473Y-6.4098
X7.6993Y-5.8145
X7.7397Y-5.8912
X7.7801Y-5.8968
X7.8256Y-5.5787
X7.866Y-5.9213
X7.8663Y-5.9736
X7.8673Y-5.4319
X7.9134Y-5.2118
X7.955Y-4.9368
X7.9591Y-6.2554
X7.9601Y-6.0714
X7.9603Y-5.9692
X7.9626Y-5.6177
X7.9913Y-4.8011
X8.0398Y-4.9161
X8.0628Y-5.3894
X8.0711Y-5.3574
X8.0925Y-5.5157
X8.1102Y-4.754
X8.1244Y-4.8902
X8.1398Y-5.4155
X8.1693Y-4.7516
X8.2145Y-4.7709
X8.2211Y-4.9894
X8.2781Y-4.7542
X8.2929Y-4.924
X8.3669Y-5.1389
X8.3979Y-5.7864
X8.3982Y-6.2427
X8.4006Y-4.8184
X8.4191Y-5.0813
X8.4376Y-5.7186
X8.4861Y-5.0044
X8.4893Y-5.7356
X8.4912Y-5.9736
X8.4921Y-5.9391
X8.5435Y-5.7101
X8.6542Y-5.6929
X11.8399Y-6.8146
T2
X2.5871Y-5.8592
X2.6097Y-5.7313
X2.6421Y-5.5448
X3.1606Y-5.5346
X3.1954Y-6.7281
X3.218Y-6.6002
X3.2507Y-6.4136
X3.3257Y-5.9896
X3.3483Y-5.8616
X3.381Y-5.6751
X3.456Y-5.251
X3.4786Y-5.123
X3.5114Y-4.9365
X3.7693Y-6.4035
X3.8996Y-5.665
X3.973Y-6.6368
X3.9955Y-6.5089
X4.0283Y-6.3223
X4.0299Y-4.9264
X4.1033Y-5.8982
X4.1258Y-5.7703
X4.1586Y-5.5837
X4.2336Y-5.1596
X4.2562Y-5.0317
X4.2889Y-4.8451
X4.5468Y-6.3122
X4.6772Y-5.5736
X4.7702Y-6.4348
X4.7928Y-6.3069
X4.8075Y-4.835
X4.8255Y-6.1203
X4.9005Y-5.6963
X4.9231Y-5.5683
X4.9558Y-5.3818
X5.0308Y-4.9573
X5.0534Y-4.8293
X5.0862Y-4.6428
X5.3441Y-6.1102
X5.3761Y-7.065
X5.3764Y-7.2543
X5.3764Y-7.3843
X5.4744Y-5.3717
X5.5415Y-6.3805
X5.564Y-6.2526
X5.5968Y-6.066
X5.6047Y-4.6327
X5.6718Y-5.6419
X5.6944Y-5.514
X5.7271Y-5.3274
X5.8017Y-4.9033
X5.8243Y-4.7754
X5.857Y-4.5888
X5.885Y-6.965
X6.1154Y-6.0559
X6.2457Y-5.3173
X6.2474Y-6.6951
X6.2699Y-6.5671
X6.3017Y-7.7707
X6.3027Y-6.3806
X6.3243Y-7.6427
X6.357Y-7.4562
X6.3756Y-4.5787
X6.3777Y-5.9565
X6.4003Y-5.8285
X6.433Y-5.642
X6.508Y-5.2179
X6.5306Y-5.09
X6.5633Y-4.9034
X6.8213Y-6.3705
X6.8756Y-7.4461
X6.9516Y-5.6319
X6.9537Y-7.01
X6.9762Y-6.8821
X7.009Y-6.6955
X7.0819Y-4.8933
X7.0836Y-6.2715
X7.1062Y-6.1435
X7.1389Y-5.957
X7.2139Y-5.5329
X7.2365Y-5.4049
X7.2655Y-7.9407
X7.2692Y-5.2184
X7.2881Y-7.8128
X7.3208Y-7.6262
X7.5276Y-6.6854
X7.6575Y-5.9469
X7.7878Y-5.2083
X7.8394Y-7.6161
X8.1846Y-4.935
X8.1846Y-5.065
X8.4882Y-7.7231
X8.5214Y-7.9096
X8.5394Y-5.3152
X8.544Y-8.0376
X8.5718Y-5.4961
X8.5944Y-5.6241
X8.6697Y-6.0538
X8.7029Y-6.2404
X8.7255Y-6.3683
X8.7989Y-4.8618
X8.8Y-6.7924
X8.8071Y-4.9083
X8.8332Y-6.9789
X8.8558Y-7.1069
X8.972Y-7.5362
X9.0232Y-5.1283
X9.1535Y-5.8669
X9.2453Y-5.0002
X9.2785Y-5.1868
X9.2839Y-6.6055
X9.301Y-5.3148
X9.3756Y-5.7388
X9.4088Y-5.9254
X9.4314Y-6.0533
X9.452Y-7.5534
X9.4852Y-7.74
X9.5059Y-6.4774
X9.5077Y-7.8679
X9.5391Y-6.664
X9.5617Y-6.7919
X9.7291Y-4.8134
X9.8594Y-5.552
X9.9358Y-7.3665
X9.9516Y-4.6853
X9.9848Y-4.8719
X9.9898Y-6.2906
X10.0073Y-4.9998
X10.0815Y-5.4243
X10.1147Y-5.6108
X10.1373Y-5.7388
X10.2118Y-6.1624
X10.245Y-6.349
X10.2676Y-6.477
X10.4237Y-7.065
X10.424Y-7.2543
X10.424Y-7.3843
X10.4354Y-4.4984
X10.5654Y-5.2374
X10.6957Y-5.9756
X10.7225Y-4.74
X10.7556Y-4.9266
X10.7782Y-5.0545
X10.8532Y-5.4786
X10.8864Y-5.6652
X10.9089Y-5.7931
X10.9327Y-6.965
X10.9831Y-6.2168
X11.0163Y-6.4033
X11.0388Y-6.5313
X11.2063Y-4.5532
X11.337Y-5.2917
X11.4669Y-6.0299
X11.5197Y-4.942
X11.5529Y-5.1285
X11.5755Y-5.2565
X11.65Y-5.6806
X11.6832Y-5.8671
X11.7058Y-5.9951
X11.7803Y-6.4191
X11.8135Y-6.6057
X11.8361Y-6.7337
X12.0035Y-4.7551
X12.1339Y-5.4937
X12.2642Y-6.2323
X12.2977Y-5.0333
X12.3308Y-5.2199
X12.3534Y-5.3478
X12.4276Y-5.7719
X12.4608Y-5.9585
X12.4833Y-6.0864
X12.5583Y-6.5105
X12.5915Y-6.697
X12.614Y-6.825
X12.7815Y-4.8465
X12.9114Y-5.585
X13.0421Y-6.3236
X13.1666Y-5.6416
X13.1997Y-5.8282
X13.2223Y-5.9561
X13.6504Y-5.4547
T3
G00X7.9596Y-4.6575
M15
G01X7.9596Y-4.6858
M16
G05
G00X7.9596Y-4.4887
M15
G01X7.9596Y-4.5367
M16
G05
G00X8.3986Y-4.4892
M15
G01X8.3986Y-4.5372
M16
G05
G00X8.3986Y-4.6575
M15
G01X8.3986Y-4.6858
M16
G05
T0
M30
