%TF.GenerationSoftware,KiCad,Pcbnew,(6.0.2)*%
%TF.CreationDate,2022-04-05T05:22:49+08:00*%
%TF.ProjectId,TK44,544b3434-2e6b-4696-9361-645f70636258,rev?*%
%TF.SameCoordinates,Original*%
%TF.FileFunction,Legend,Top*%
%TF.FilePolarity,Positive*%
%FSLAX46Y46*%
G04 Gerber Fmt 4.6, Leading zero omitted, Abs format (unit mm)*
G04 Created by KiCad (PCBNEW (6.0.2)) date 2022-04-05 05:22:49*
%MOMM*%
%LPD*%
G01*
G04 APERTURE LIST*
%ADD10C,0.150000*%
%ADD11C,0.120000*%
G04 APERTURE END LIST*
D10*
%TO.C,R8*%
X207202380Y-131836666D02*
X207202380Y-132408095D01*
X207202380Y-132122380D02*
X206202380Y-132122380D01*
X206345238Y-132217619D01*
X206440476Y-132312857D01*
X206488095Y-132408095D01*
X206202380Y-131217619D02*
X206202380Y-131122380D01*
X206250000Y-131027142D01*
X206297619Y-130979523D01*
X206392857Y-130931904D01*
X206583333Y-130884285D01*
X206821428Y-130884285D01*
X207011904Y-130931904D01*
X207107142Y-130979523D01*
X207154761Y-131027142D01*
X207202380Y-131122380D01*
X207202380Y-131217619D01*
X207154761Y-131312857D01*
X207107142Y-131360476D01*
X207011904Y-131408095D01*
X206821428Y-131455714D01*
X206583333Y-131455714D01*
X206392857Y-131408095D01*
X206297619Y-131360476D01*
X206250000Y-131312857D01*
X206202380Y-131217619D01*
X206202380Y-130265238D02*
X206202380Y-130170000D01*
X206250000Y-130074761D01*
X206297619Y-130027142D01*
X206392857Y-129979523D01*
X206583333Y-129931904D01*
X206821428Y-129931904D01*
X207011904Y-129979523D01*
X207107142Y-130027142D01*
X207154761Y-130074761D01*
X207202380Y-130170000D01*
X207202380Y-130265238D01*
X207154761Y-130360476D01*
X207107142Y-130408095D01*
X207011904Y-130455714D01*
X206821428Y-130503333D01*
X206583333Y-130503333D01*
X206392857Y-130455714D01*
X206297619Y-130408095D01*
X206250000Y-130360476D01*
X206202380Y-130265238D01*
X207202380Y-129503333D02*
X206202380Y-129503333D01*
X207202380Y-128931904D02*
X206630952Y-129360476D01*
X206202380Y-128931904D02*
X206773809Y-129503333D01*
%TO.C,R1*%
X213672380Y-124986190D02*
X213672380Y-125462380D01*
X214148571Y-125510000D01*
X214100952Y-125462380D01*
X214053333Y-125367142D01*
X214053333Y-125129047D01*
X214100952Y-125033809D01*
X214148571Y-124986190D01*
X214243809Y-124938571D01*
X214481904Y-124938571D01*
X214577142Y-124986190D01*
X214624761Y-125033809D01*
X214672380Y-125129047D01*
X214672380Y-125367142D01*
X214624761Y-125462380D01*
X214577142Y-125510000D01*
X214577142Y-124510000D02*
X214624761Y-124462380D01*
X214672380Y-124510000D01*
X214624761Y-124557619D01*
X214577142Y-124510000D01*
X214672380Y-124510000D01*
X214672380Y-123510000D02*
X214672380Y-124081428D01*
X214672380Y-123795714D02*
X213672380Y-123795714D01*
X213815238Y-123890952D01*
X213910476Y-123986190D01*
X213958095Y-124081428D01*
X214672380Y-123081428D02*
X213672380Y-123081428D01*
X214672380Y-122510000D02*
X214100952Y-122938571D01*
X213672380Y-122510000D02*
X214243809Y-123081428D01*
%TO.C,R3*%
X209192380Y-131824285D02*
X209192380Y-132395714D01*
X209192380Y-132110000D02*
X208192380Y-132110000D01*
X208335238Y-132205238D01*
X208430476Y-132300476D01*
X208478095Y-132395714D01*
X209192380Y-131395714D02*
X208192380Y-131395714D01*
X209192380Y-130824285D02*
X208620952Y-131252857D01*
X208192380Y-130824285D02*
X208763809Y-131395714D01*
%TO.C,R6*%
X204312380Y-132417619D02*
X204312380Y-131798571D01*
X204693333Y-132131904D01*
X204693333Y-131989047D01*
X204740952Y-131893809D01*
X204788571Y-131846190D01*
X204883809Y-131798571D01*
X205121904Y-131798571D01*
X205217142Y-131846190D01*
X205264761Y-131893809D01*
X205312380Y-131989047D01*
X205312380Y-132274761D01*
X205264761Y-132370000D01*
X205217142Y-132417619D01*
X205217142Y-131370000D02*
X205264761Y-131322380D01*
X205312380Y-131370000D01*
X205264761Y-131417619D01*
X205217142Y-131370000D01*
X205312380Y-131370000D01*
X204312380Y-130989047D02*
X204312380Y-130370000D01*
X204693333Y-130703333D01*
X204693333Y-130560476D01*
X204740952Y-130465238D01*
X204788571Y-130417619D01*
X204883809Y-130370000D01*
X205121904Y-130370000D01*
X205217142Y-130417619D01*
X205264761Y-130465238D01*
X205312380Y-130560476D01*
X205312380Y-130846190D01*
X205264761Y-130941428D01*
X205217142Y-130989047D01*
X205312380Y-129941428D02*
X204312380Y-129941428D01*
X205312380Y-129370000D02*
X204740952Y-129798571D01*
X204312380Y-129370000D02*
X204883809Y-129941428D01*
%TO.C,R2*%
X200742380Y-124986190D02*
X200742380Y-125462380D01*
X201218571Y-125510000D01*
X201170952Y-125462380D01*
X201123333Y-125367142D01*
X201123333Y-125129047D01*
X201170952Y-125033809D01*
X201218571Y-124986190D01*
X201313809Y-124938571D01*
X201551904Y-124938571D01*
X201647142Y-124986190D01*
X201694761Y-125033809D01*
X201742380Y-125129047D01*
X201742380Y-125367142D01*
X201694761Y-125462380D01*
X201647142Y-125510000D01*
X201647142Y-124510000D02*
X201694761Y-124462380D01*
X201742380Y-124510000D01*
X201694761Y-124557619D01*
X201647142Y-124510000D01*
X201742380Y-124510000D01*
X201742380Y-123510000D02*
X201742380Y-124081428D01*
X201742380Y-123795714D02*
X200742380Y-123795714D01*
X200885238Y-123890952D01*
X200980476Y-123986190D01*
X201028095Y-124081428D01*
X201742380Y-123081428D02*
X200742380Y-123081428D01*
X201742380Y-122510000D02*
X201170952Y-122938571D01*
X200742380Y-122510000D02*
X201313809Y-123081428D01*
%TO.C,R5*%
X203432380Y-131844285D02*
X203432380Y-132415714D01*
X203432380Y-132130000D02*
X202432380Y-132130000D01*
X202575238Y-132225238D01*
X202670476Y-132320476D01*
X202718095Y-132415714D01*
X203432380Y-131415714D02*
X202432380Y-131415714D01*
X203432380Y-130844285D02*
X202860952Y-131272857D01*
X202432380Y-130844285D02*
X203003809Y-131415714D01*
%TO.C,R7*%
X210177619Y-132407142D02*
X210130000Y-132359523D01*
X210082380Y-132264285D01*
X210082380Y-132026190D01*
X210130000Y-131930952D01*
X210177619Y-131883333D01*
X210272857Y-131835714D01*
X210368095Y-131835714D01*
X210510952Y-131883333D01*
X211082380Y-132454761D01*
X211082380Y-131835714D01*
X211082380Y-131407142D02*
X210082380Y-131407142D01*
X210796666Y-131073809D01*
X210082380Y-130740476D01*
X211082380Y-130740476D01*
%TO.C,R4*%
X212400952Y-132207619D02*
X212353333Y-132302857D01*
X212305714Y-132350476D01*
X212210476Y-132398095D01*
X212162857Y-132398095D01*
X212067619Y-132350476D01*
X212020000Y-132302857D01*
X211972380Y-132207619D01*
X211972380Y-132017142D01*
X212020000Y-131921904D01*
X212067619Y-131874285D01*
X212162857Y-131826666D01*
X212210476Y-131826666D01*
X212305714Y-131874285D01*
X212353333Y-131921904D01*
X212400952Y-132017142D01*
X212400952Y-132207619D01*
X212448571Y-132302857D01*
X212496190Y-132350476D01*
X212591428Y-132398095D01*
X212781904Y-132398095D01*
X212877142Y-132350476D01*
X212924761Y-132302857D01*
X212972380Y-132207619D01*
X212972380Y-132017142D01*
X212924761Y-131921904D01*
X212877142Y-131874285D01*
X212781904Y-131826666D01*
X212591428Y-131826666D01*
X212496190Y-131874285D01*
X212448571Y-131921904D01*
X212400952Y-132017142D01*
X212972380Y-130874285D02*
X212972380Y-131445714D01*
X212972380Y-131160000D02*
X211972380Y-131160000D01*
X212115238Y-131255238D01*
X212210476Y-131350476D01*
X212258095Y-131445714D01*
X211972380Y-130255238D02*
X211972380Y-130160000D01*
X212020000Y-130064761D01*
X212067619Y-130017142D01*
X212162857Y-129969523D01*
X212353333Y-129921904D01*
X212591428Y-129921904D01*
X212781904Y-129969523D01*
X212877142Y-130017142D01*
X212924761Y-130064761D01*
X212972380Y-130160000D01*
X212972380Y-130255238D01*
X212924761Y-130350476D01*
X212877142Y-130398095D01*
X212781904Y-130445714D01*
X212591428Y-130493333D01*
X212353333Y-130493333D01*
X212162857Y-130445714D01*
X212067619Y-130398095D01*
X212020000Y-130350476D01*
X211972380Y-130255238D01*
X212972380Y-129493333D02*
X211972380Y-129493333D01*
X212972380Y-128921904D02*
X212400952Y-129350476D01*
X211972380Y-128921904D02*
X212543809Y-129493333D01*
D11*
%TO.C,U2*%
X201480000Y-137240000D02*
X202355000Y-137240000D01*
X201180000Y-138015000D02*
X201180000Y-137540000D01*
X201480000Y-137240000D02*
G75*
G03*
X201180000Y-137540000I0J-300000D01*
G01*
%TO.C,D46*%
X207090000Y-129046000D02*
X207090000Y-128270000D01*
X207344000Y-129300000D02*
X208436000Y-129300000D01*
X208690000Y-129046000D02*
X208690000Y-128270000D01*
X208436000Y-129300000D02*
G75*
G03*
X208690000Y-129046000I0J254000D01*
G01*
X207090000Y-129046000D02*
G75*
G03*
X207344000Y-129300000I254000J0D01*
G01*
%TO.C,D45*%
X209905000Y-127339900D02*
X209905000Y-128389900D01*
X210165000Y-128650045D02*
X211114855Y-128649900D01*
X211375000Y-128389900D02*
X211375000Y-127339900D01*
X211114855Y-128649900D02*
G75*
G03*
X211375000Y-128389900I144J260001D01*
G01*
X209905000Y-128389900D02*
G75*
G03*
X210165000Y-128650045I260001J-144D01*
G01*
%TO.C,U3*%
X214320000Y-139365000D02*
X214320000Y-139840000D01*
X214020000Y-140140000D02*
X213145000Y-140140000D01*
X214020000Y-140140000D02*
G75*
G03*
X214320000Y-139840000I0J300000D01*
G01*
%TO.C,D47*%
X205595000Y-128399900D02*
X205595000Y-127349900D01*
X204125000Y-127349900D02*
X204125000Y-128399900D01*
X204385000Y-128660045D02*
X205334855Y-128659900D01*
X205334855Y-128659900D02*
G75*
G03*
X205595000Y-128399900I144J260001D01*
G01*
X204125000Y-128399900D02*
G75*
G03*
X204385000Y-128660045I260001J-144D01*
G01*
%TO.C,Q1*%
X209400000Y-139290000D02*
X209400000Y-139940000D01*
X209100000Y-140240000D02*
X208350000Y-140240000D01*
X209100000Y-140240000D02*
G75*
G03*
X209400000Y-139940000I0J300000D01*
G01*
%TD*%
M02*
