%TF.GenerationSoftware,KiCad,Pcbnew,(6.0.2)*%
%TF.CreationDate,2022-04-05T05:22:49+08:00*%
%TF.ProjectId,TK44,544b3434-2e6b-4696-9361-645f70636258,rev?*%
%TF.SameCoordinates,Original*%
%TF.FileFunction,Soldermask,Bot*%
%TF.FilePolarity,Negative*%
%FSLAX46Y46*%
G04 Gerber Fmt 4.6, Leading zero omitted, Abs format (unit mm)*
G04 Created by KiCad (PCBNEW (6.0.2)) date 2022-04-05 05:22:49*
%MOMM*%
%LPD*%
G01*
G04 APERTURE LIST*
G04 Aperture macros list*
%AMRoundRect*
0 Rectangle with rounded corners*
0 $1 Rounding radius*
0 $2 $3 $4 $5 $6 $7 $8 $9 X,Y pos of 4 corners*
0 Add a 4 corners polygon primitive as box body*
4,1,4,$2,$3,$4,$5,$6,$7,$8,$9,$2,$3,0*
0 Add four circle primitives for the rounded corners*
1,1,$1+$1,$2,$3*
1,1,$1+$1,$4,$5*
1,1,$1+$1,$6,$7*
1,1,$1+$1,$8,$9*
0 Add four rect primitives between the rounded corners*
20,1,$1+$1,$2,$3,$4,$5,0*
20,1,$1+$1,$4,$5,$6,$7,0*
20,1,$1+$1,$6,$7,$8,$9,0*
20,1,$1+$1,$8,$9,$2,$3,0*%
G04 Aperture macros list end*
%ADD10C,3.050000*%
%ADD11C,4.000000*%
%ADD12C,1.750000*%
%ADD13RoundRect,0.250000X-1.183076X-0.806818X0.835780X-1.162797X1.183076X0.806818X-0.835780X1.162797X0*%
%ADD14C,0.800000*%
%ADD15C,4.400000*%
%ADD16RoundRect,0.250000X-0.835780X-1.162797X1.183076X-0.806818X0.835780X1.162797X-1.183076X0.806818X0*%
%ADD17RoundRect,0.250000X-1.025000X-1.000000X1.025000X-1.000000X1.025000X1.000000X-1.025000X1.000000X0*%
%ADD18O,1.000000X1.762000*%
%ADD19O,1.000000X2.219000*%
%ADD20RoundRect,0.425000X0.425000X0.425000X-0.425000X0.425000X-0.425000X-0.425000X0.425000X-0.425000X0*%
%ADD21O,1.700000X1.700000*%
%ADD22RoundRect,0.225000X0.330232X-0.286700X0.408374X0.156464X-0.330232X0.286700X-0.408374X-0.156464X0*%
%ADD23RoundRect,0.225000X0.408374X-0.156464X0.330232X0.286700X-0.408374X0.156464X-0.330232X-0.286700X0*%
%ADD24RoundRect,0.200000X-0.300000X-0.200000X0.300000X-0.200000X0.300000X0.200000X-0.300000X0.200000X0*%
%ADD25C,0.900000*%
%ADD26RoundRect,0.175000X-0.175000X-0.575000X0.175000X-0.575000X0.175000X0.575000X-0.175000X0.575000X0*%
%ADD27RoundRect,0.300000X-0.692219X-0.182571X0.588031X-0.408314X0.692219X0.182571X-0.588031X0.408314X0*%
%ADD28RoundRect,0.225000X0.375000X-0.225000X0.375000X0.225000X-0.375000X0.225000X-0.375000X-0.225000X0*%
G04 APERTURE END LIST*
D10*
%TO.C,SW28*%
X152078144Y-153246643D03*
D11*
X148694600Y-157808400D03*
D12*
X153697423Y-158690533D03*
D10*
X145383549Y-154645389D03*
D12*
X143691777Y-156926267D03*
D13*
X142158303Y-154076691D03*
D14*
X142158303Y-154076691D03*
X155329980Y-153820029D03*
D13*
X155329980Y-153820029D03*
%TD*%
D15*
%TO.C,H8*%
X100205200Y-173070600D03*
%TD*%
D10*
%TO.C,SW30*%
X181253549Y-170635389D03*
D12*
X189567423Y-174680533D03*
D11*
X184564600Y-173798400D03*
D12*
X179561777Y-172916267D03*
D10*
X187948144Y-169236643D03*
D14*
X178028303Y-170066691D03*
D13*
X178028303Y-170066691D03*
X191199980Y-169810029D03*
D14*
X191199980Y-169810029D03*
%TD*%
D15*
%TO.C,H4*%
X239585900Y-182550500D03*
%TD*%
%TO.C,H7*%
X104370200Y-120368200D03*
%TD*%
D12*
%TO.C,SW32*%
X243866077Y-166679433D03*
X253871723Y-164915167D03*
D10*
X250488179Y-160353410D03*
X244675716Y-163957488D03*
D11*
X248868900Y-165797300D03*
D14*
X241450471Y-164526186D03*
D16*
X241450471Y-164526186D03*
D14*
X253740014Y-159780024D03*
D16*
X253740014Y-159780024D03*
%TD*%
D10*
%TO.C,SW34*%
X288008179Y-153733410D03*
D12*
X291391723Y-158295167D03*
D10*
X282195716Y-157337488D03*
D11*
X286388900Y-159177300D03*
D12*
X281386077Y-160059433D03*
D14*
X278970471Y-157906186D03*
D16*
X278970471Y-157906186D03*
X291260014Y-153160024D03*
D14*
X291260014Y-153160024D03*
%TD*%
D10*
%TO.C,SW3*%
X139108144Y-117096643D03*
D11*
X135724600Y-121658400D03*
D12*
X130721777Y-120776267D03*
X140727423Y-122540533D03*
D10*
X132413549Y-118495389D03*
D13*
X129188303Y-117926691D03*
D14*
X129188303Y-117926691D03*
D13*
X142359980Y-117670029D03*
D14*
X142359980Y-117670029D03*
%TD*%
D10*
%TO.C,SW31*%
X226745716Y-171957488D03*
X232558179Y-168353410D03*
D12*
X225936077Y-174679433D03*
X235941723Y-172915167D03*
D11*
X230938900Y-173797300D03*
D16*
X223520471Y-172526186D03*
D14*
X223520471Y-172526186D03*
D16*
X235810014Y-167780024D03*
D14*
X235810014Y-167780024D03*
%TD*%
D12*
%TO.C,SW26*%
X103851777Y-163436267D03*
X113857423Y-165200533D03*
D10*
X112238144Y-159756643D03*
X105543549Y-161155389D03*
D11*
X108854600Y-164318400D03*
D13*
X102318303Y-160586691D03*
D14*
X102318303Y-160586691D03*
D13*
X115489980Y-160330029D03*
D14*
X115489980Y-160330029D03*
%TD*%
D12*
%TO.C,SW37*%
X78647423Y-145450533D03*
D10*
X77028144Y-140006643D03*
D12*
X68641777Y-143686267D03*
D10*
X70333549Y-141405389D03*
D11*
X73644600Y-144568400D03*
D13*
X67108303Y-140836691D03*
D14*
X67108303Y-140836691D03*
X80279980Y-140580029D03*
D13*
X80279980Y-140580029D03*
%TD*%
D12*
%TO.C,SW2*%
X110471777Y-125916267D03*
D11*
X115474600Y-126798400D03*
D10*
X112163549Y-123635389D03*
X118858144Y-122236643D03*
D12*
X120477423Y-127680533D03*
D14*
X108938303Y-123066691D03*
D13*
X108938303Y-123066691D03*
D14*
X122109980Y-122810029D03*
D13*
X122109980Y-122810029D03*
%TD*%
D12*
%TO.C,SW43*%
X276928000Y-181990000D03*
D10*
X268038000Y-179450000D03*
X274388000Y-176910000D03*
D11*
X271848000Y-181990000D03*
D12*
X266768000Y-181990000D03*
D14*
X264763000Y-179450000D03*
D17*
X264763000Y-179450000D03*
D14*
X277690000Y-176910000D03*
D17*
X277690000Y-176910000D03*
%TD*%
D12*
%TO.C,SW5*%
X168241777Y-127396267D03*
D10*
X169933549Y-125115389D03*
X176628144Y-123716643D03*
D11*
X173244600Y-128278400D03*
D12*
X178247423Y-129160533D03*
D13*
X166708303Y-124546691D03*
D14*
X166708303Y-124546691D03*
X179879980Y-124290029D03*
D13*
X179879980Y-124290029D03*
%TD*%
D10*
%TO.C,SW19*%
X229248179Y-149593410D03*
X223435716Y-153197488D03*
D12*
X232631723Y-154155167D03*
D11*
X227628900Y-155037300D03*
D12*
X222626077Y-155919433D03*
D16*
X220210471Y-153766186D03*
D14*
X220210471Y-153766186D03*
X232500014Y-149020024D03*
D16*
X232500014Y-149020024D03*
%TD*%
D15*
%TO.C,H3*%
X233601500Y-119529700D03*
%TD*%
D12*
%TO.C,SW13*%
X87411777Y-146996267D03*
D10*
X89103549Y-144715389D03*
D12*
X97417423Y-148760533D03*
D10*
X95798144Y-143316643D03*
D11*
X92414600Y-147878400D03*
D13*
X85878303Y-144146691D03*
D14*
X85878303Y-144146691D03*
X99049980Y-143890029D03*
D13*
X99049980Y-143890029D03*
%TD*%
D11*
%TO.C,SW40*%
X192484640Y-197438382D03*
D10*
X189173589Y-194275371D03*
X195868185Y-192876625D03*
D12*
X187481817Y-196556250D03*
X197487464Y-198320515D03*
D13*
X185948344Y-193706673D03*
D14*
X185948344Y-193706673D03*
X199120020Y-193450012D03*
D13*
X199120020Y-193450012D03*
%TD*%
D11*
%TO.C,SW17*%
X169934600Y-147038400D03*
D10*
X166623549Y-143875389D03*
X173318144Y-142476643D03*
D12*
X174937423Y-147920533D03*
X164931777Y-146156267D03*
D13*
X163398303Y-143306691D03*
D14*
X163398303Y-143306691D03*
X176569980Y-143050029D03*
D13*
X176569980Y-143050029D03*
%TD*%
D11*
%TO.C,SW7*%
X224318900Y-136277300D03*
D10*
X220125716Y-134437488D03*
D12*
X219316077Y-137159433D03*
D10*
X225938179Y-130833410D03*
D12*
X229321723Y-135395167D03*
D14*
X216900471Y-135006186D03*
D16*
X216900471Y-135006186D03*
X229190014Y-130260024D03*
D14*
X229190014Y-130260024D03*
%TD*%
D12*
%TO.C,SW24*%
X318076077Y-148759433D03*
D10*
X324698179Y-142433410D03*
D11*
X323078900Y-147877300D03*
D10*
X318885716Y-146037488D03*
D12*
X328081723Y-146995167D03*
D16*
X315660471Y-146606186D03*
D14*
X315660471Y-146606186D03*
X327950014Y-141860024D03*
D16*
X327950014Y-141860024D03*
%TD*%
D10*
%TO.C,SW11*%
X295825716Y-124957488D03*
X301638179Y-121353410D03*
D12*
X305021723Y-125915167D03*
X295016077Y-127679433D03*
D11*
X300018900Y-126797300D03*
D14*
X292600471Y-125526186D03*
D16*
X292600471Y-125526186D03*
X304890014Y-120780024D03*
D14*
X304890014Y-120780024D03*
%TD*%
D12*
%TO.C,SW1*%
X90721777Y-128236267D03*
D10*
X92413549Y-125955389D03*
X99108144Y-124556643D03*
D11*
X95724600Y-129118400D03*
D12*
X100727423Y-130000533D03*
D13*
X89188303Y-125386691D03*
D14*
X89188303Y-125386691D03*
D13*
X102359980Y-125130029D03*
D14*
X102359980Y-125130029D03*
%TD*%
D12*
%TO.C,SW38*%
X148718000Y-181990000D03*
D10*
X146178000Y-176910000D03*
D11*
X143638000Y-181990000D03*
D10*
X139828000Y-179450000D03*
D12*
X138558000Y-181990000D03*
D17*
X136553000Y-179450000D03*
D14*
X136553000Y-179450000D03*
D17*
X149480000Y-176910000D03*
D14*
X149480000Y-176910000D03*
%TD*%
D12*
%TO.C,SW18*%
X192867423Y-155920533D03*
D11*
X187864600Y-155038400D03*
D12*
X182861777Y-154156267D03*
D10*
X184553549Y-151875389D03*
X191248144Y-150476643D03*
D14*
X181328303Y-151306691D03*
D13*
X181328303Y-151306691D03*
X194499980Y-151050029D03*
D14*
X194499980Y-151050029D03*
%TD*%
D12*
%TO.C,SW10*%
X274766077Y-122549433D03*
D11*
X279768900Y-121667300D03*
D12*
X284771723Y-120785167D03*
D10*
X275575716Y-119827488D03*
X281388179Y-116223410D03*
D14*
X272350471Y-120396186D03*
D16*
X272350471Y-120396186D03*
X284640014Y-115650024D03*
D14*
X284640014Y-115650024D03*
%TD*%
D12*
%TO.C,SW20*%
X250561723Y-146155167D03*
D10*
X247178179Y-141593410D03*
X241365716Y-145197488D03*
D12*
X240556077Y-147919433D03*
D11*
X245558900Y-147037300D03*
D16*
X238140471Y-145766186D03*
D14*
X238140471Y-145766186D03*
D16*
X250430014Y-141020024D03*
D14*
X250430014Y-141020024D03*
%TD*%
D10*
%TO.C,SW9*%
X261808179Y-114833410D03*
D12*
X255186077Y-121159433D03*
D10*
X255995716Y-118437488D03*
D12*
X265191723Y-119395167D03*
D11*
X260188900Y-120277300D03*
D14*
X252770471Y-119006186D03*
D16*
X252770471Y-119006186D03*
D14*
X265060014Y-114260024D03*
D16*
X265060014Y-114260024D03*
%TD*%
D10*
%TO.C,SW4*%
X158688144Y-115726643D03*
D12*
X160307423Y-121170533D03*
D10*
X151993549Y-117125389D03*
D12*
X150301777Y-119406267D03*
D11*
X155304600Y-120288400D03*
D14*
X148768303Y-116556691D03*
D13*
X148768303Y-116556691D03*
X161939980Y-116300029D03*
D14*
X161939980Y-116300029D03*
%TD*%
D10*
%TO.C,SW21*%
X265108179Y-133603410D03*
D12*
X258486077Y-139929433D03*
D11*
X263488900Y-139047300D03*
D10*
X259295716Y-137207488D03*
D12*
X268491723Y-138165167D03*
D16*
X256070471Y-137776186D03*
D14*
X256070471Y-137776186D03*
D16*
X268360014Y-133030024D03*
D14*
X268360014Y-133030024D03*
%TD*%
D15*
%TO.C,H6*%
X182313500Y-119549700D03*
%TD*%
D12*
%TO.C,SW44*%
X336846077Y-145449433D03*
D11*
X341848900Y-144567300D03*
D10*
X337655716Y-142727488D03*
D12*
X346851723Y-143685167D03*
D10*
X343468179Y-139123410D03*
D14*
X334430471Y-143296186D03*
D16*
X334430471Y-143296186D03*
D14*
X346720014Y-138550024D03*
D16*
X346720014Y-138550024D03*
%TD*%
D15*
%TO.C,H1*%
X315289800Y-173070600D03*
%TD*%
D10*
%TO.C,SW42*%
X249118179Y-187683410D03*
D12*
X252501723Y-192245167D03*
X242496077Y-194009433D03*
D10*
X243305716Y-191287488D03*
D11*
X247498900Y-193127300D03*
D14*
X240080471Y-191856186D03*
D16*
X240080471Y-191856186D03*
D14*
X252370014Y-187110024D03*
D16*
X252370014Y-187110024D03*
%TD*%
D10*
%TO.C,SW36*%
X322205716Y-164797488D03*
X328018179Y-161193410D03*
D12*
X321396077Y-167519433D03*
X331401723Y-165755167D03*
D11*
X326398900Y-166637300D03*
D16*
X318980471Y-165366186D03*
D14*
X318980471Y-165366186D03*
D16*
X331270014Y-160620024D03*
D14*
X331270014Y-160620024D03*
%TD*%
D10*
%TO.C,SW12*%
X315585716Y-127277488D03*
D11*
X319778900Y-129117300D03*
D10*
X321398179Y-123673410D03*
D12*
X324781723Y-128235167D03*
X314776077Y-129999433D03*
D14*
X312360471Y-127846186D03*
D16*
X312360471Y-127846186D03*
D14*
X324650014Y-123100024D03*
D16*
X324650014Y-123100024D03*
%TD*%
D18*
%TO.C,J3*%
X213325300Y-118661000D03*
D19*
X202174700Y-114622400D03*
X213325300Y-114635100D03*
D18*
X202174600Y-118661000D03*
%TD*%
D15*
%TO.C,H5*%
X175909100Y-182550200D03*
%TD*%
%TO.C,H2*%
X311124900Y-120368200D03*
%TD*%
D12*
%TO.C,SW41*%
X228021664Y-196555185D03*
D10*
X224638119Y-191993428D03*
X218825656Y-195597505D03*
D12*
X218016017Y-198319450D03*
D11*
X223018840Y-197437318D03*
D16*
X215600411Y-196166203D03*
D14*
X215600411Y-196166203D03*
D16*
X227889955Y-191420042D03*
D14*
X227889955Y-191420042D03*
%TD*%
D10*
%TO.C,SW6*%
X194558144Y-131716643D03*
D12*
X196177423Y-137160533D03*
X186171777Y-135396267D03*
D10*
X187863549Y-133115389D03*
D11*
X191174600Y-136278400D03*
D13*
X184638303Y-132546691D03*
D14*
X184638303Y-132546691D03*
X197809980Y-132290029D03*
D13*
X197809980Y-132290029D03*
%TD*%
D12*
%TO.C,SW23*%
X308331723Y-144675167D03*
D10*
X299135716Y-143717488D03*
D11*
X303328900Y-145557300D03*
D12*
X298326077Y-146439433D03*
D10*
X304948179Y-140113410D03*
D16*
X295910471Y-144286186D03*
D14*
X295910471Y-144286186D03*
D16*
X308200014Y-139540024D03*
D14*
X308200014Y-139540024D03*
%TD*%
D11*
%TO.C,SW29*%
X166624600Y-165798400D03*
D10*
X163313549Y-162635389D03*
D12*
X161621777Y-164916267D03*
D10*
X170008144Y-161236643D03*
D12*
X171627423Y-166680533D03*
D13*
X160088303Y-162066691D03*
D14*
X160088303Y-162066691D03*
D13*
X173259980Y-161810029D03*
D14*
X173259980Y-161810029D03*
%TD*%
D11*
%TO.C,SW39*%
X168004600Y-193118400D03*
D10*
X171388144Y-188556643D03*
D12*
X163001777Y-192236267D03*
D10*
X164693549Y-189955389D03*
D12*
X173007423Y-194000533D03*
D13*
X161468303Y-189386691D03*
D14*
X161468303Y-189386691D03*
X174639980Y-189130029D03*
D13*
X174639980Y-189130029D03*
%TD*%
D12*
%TO.C,SW35*%
X311641723Y-163435167D03*
D10*
X308258179Y-158873410D03*
D11*
X306638900Y-164317300D03*
D12*
X301636077Y-165199433D03*
D10*
X302445716Y-162477488D03*
D16*
X299220471Y-163046186D03*
D14*
X299220471Y-163046186D03*
X311510014Y-158300024D03*
D16*
X311510014Y-158300024D03*
%TD*%
D10*
%TO.C,SW25*%
X85793549Y-163475389D03*
D12*
X84101777Y-165756267D03*
D10*
X92488144Y-162076643D03*
D11*
X89104600Y-166638400D03*
D12*
X94107423Y-167520533D03*
D14*
X82568303Y-162906691D03*
D13*
X82568303Y-162906691D03*
X95739980Y-162650029D03*
D14*
X95739980Y-162650029D03*
%TD*%
D10*
%TO.C,SW8*%
X243868179Y-122833410D03*
D12*
X247251723Y-127395167D03*
X237246077Y-129159433D03*
D10*
X238055716Y-126437488D03*
D11*
X242248900Y-128277300D03*
D16*
X234830471Y-127006186D03*
D14*
X234830471Y-127006186D03*
D16*
X247120014Y-122260024D03*
D14*
X247120014Y-122260024D03*
%TD*%
D12*
%TO.C,SW16*%
X147001777Y-138166267D03*
X157007423Y-139930533D03*
D10*
X148693549Y-135885389D03*
D11*
X152004600Y-139048400D03*
D10*
X155388144Y-134486643D03*
D14*
X145468303Y-135316691D03*
D13*
X145468303Y-135316691D03*
X158639980Y-135060029D03*
D14*
X158639980Y-135060029D03*
%TD*%
D11*
%TO.C,SW33*%
X266798900Y-157797300D03*
D12*
X261796077Y-158679433D03*
X271801723Y-156915167D03*
D10*
X262605716Y-155957488D03*
X268418179Y-152353410D03*
D16*
X259380471Y-156526186D03*
D14*
X259380471Y-156526186D03*
X271670014Y-151780024D03*
D16*
X271670014Y-151780024D03*
%TD*%
D12*
%TO.C,SW14*%
X107161777Y-144676267D03*
D10*
X108853549Y-142395389D03*
X115548144Y-140996643D03*
D11*
X112164600Y-145558400D03*
D12*
X117167423Y-146440533D03*
D14*
X105628303Y-141826691D03*
D13*
X105628303Y-141826691D03*
X118799980Y-141570029D03*
D14*
X118799980Y-141570029D03*
%TD*%
D11*
%TO.C,SW22*%
X283088900Y-140427300D03*
D12*
X278086077Y-141309433D03*
D10*
X284708179Y-134983410D03*
D12*
X288091723Y-139545167D03*
D10*
X278895716Y-138587488D03*
D16*
X275670471Y-139156186D03*
D14*
X275670471Y-139156186D03*
D16*
X287960014Y-134410024D03*
D14*
X287960014Y-134410024D03*
%TD*%
D10*
%TO.C,SW27*%
X125793549Y-156025389D03*
D12*
X124101777Y-158306267D03*
X134107423Y-160070533D03*
D10*
X132488144Y-154626643D03*
D11*
X129104600Y-159188400D03*
D13*
X122568303Y-155456691D03*
D14*
X122568303Y-155456691D03*
X135739980Y-155200029D03*
D13*
X135739980Y-155200029D03*
%TD*%
D20*
%TO.C,J2*%
X204520000Y-158300000D03*
D21*
X204520000Y-155760000D03*
X204520000Y-153220000D03*
X204520000Y-150680000D03*
%TD*%
D12*
%TO.C,SW15*%
X127411777Y-139546267D03*
D10*
X135798144Y-135866643D03*
X129103549Y-137265389D03*
D11*
X132414600Y-140428400D03*
D12*
X137417423Y-141310533D03*
D13*
X125878303Y-136696691D03*
D14*
X125878303Y-136696691D03*
D13*
X139049980Y-136440029D03*
D14*
X139049980Y-136440029D03*
%TD*%
%TO.C,D5*%
X165303481Y-132534933D03*
D22*
X165303481Y-132534933D03*
D14*
X165876519Y-129285067D03*
D22*
X165876519Y-129285067D03*
%TD*%
%TO.C,D25*%
X81163481Y-170894933D03*
D14*
X81163481Y-170894933D03*
D22*
X81736519Y-167645067D03*
D14*
X81736519Y-167645067D03*
%TD*%
D23*
%TO.C,D32*%
X242866519Y-172514933D03*
D14*
X242866519Y-172514933D03*
X242293481Y-169265067D03*
D23*
X242293481Y-169265067D03*
%TD*%
%TO.C,D7*%
X218297319Y-142851433D03*
D14*
X218297319Y-142851433D03*
D23*
X217724281Y-139601567D03*
D14*
X217724281Y-139601567D03*
%TD*%
D22*
%TO.C,D28*%
X140753481Y-162064933D03*
D14*
X140753481Y-162064933D03*
X141326519Y-158815067D03*
D22*
X141326519Y-158815067D03*
%TD*%
D24*
%TO.C,SW45*%
X226580000Y-115260000D03*
X226580000Y-113050000D03*
D25*
X224430000Y-114150000D03*
D24*
X219280000Y-113050000D03*
X219280000Y-115260000D03*
D25*
X221430000Y-114150000D03*
D26*
X220680000Y-115910000D03*
X223680000Y-115910000D03*
X225180000Y-115910000D03*
%TD*%
D27*
%TO.C,SWT1*%
X189707924Y-125404143D03*
X195912213Y-126498126D03*
X196572076Y-122755857D03*
X190367787Y-121661874D03*
%TD*%
D14*
%TO.C,D21*%
X257486519Y-145764933D03*
D23*
X257486519Y-145764933D03*
D14*
X256913481Y-142515067D03*
D23*
X256913481Y-142515067D03*
%TD*%
%TO.C,D8*%
X236246519Y-134994933D03*
D14*
X236246519Y-134994933D03*
D23*
X235673481Y-131745067D03*
D14*
X235673481Y-131745067D03*
%TD*%
D22*
%TO.C,D6*%
X183233481Y-140534933D03*
D14*
X183233481Y-140534933D03*
D22*
X183806519Y-137285067D03*
D14*
X183806519Y-137285067D03*
%TD*%
D22*
%TO.C,D14*%
X104223481Y-149814933D03*
D14*
X104223481Y-149814933D03*
D22*
X104796519Y-146565067D03*
D14*
X104796519Y-146565067D03*
%TD*%
D22*
%TO.C,D4*%
X147363481Y-124544933D03*
D14*
X147363481Y-124544933D03*
D22*
X147936519Y-121295067D03*
D14*
X147936519Y-121295067D03*
%TD*%
D23*
%TO.C,D23*%
X297326519Y-152274933D03*
D14*
X297326519Y-152274933D03*
D23*
X296753481Y-149025067D03*
D14*
X296753481Y-149025067D03*
%TD*%
D22*
%TO.C,D37*%
X65713481Y-148824933D03*
D14*
X65713481Y-148824933D03*
X66286519Y-145575067D03*
D22*
X66286519Y-145575067D03*
%TD*%
%TO.C,D18*%
X179923481Y-159294933D03*
D14*
X179923481Y-159294933D03*
D22*
X180496519Y-156045067D03*
D14*
X180496519Y-156045067D03*
%TD*%
D22*
%TO.C,D3*%
X127783481Y-125914933D03*
D14*
X127783481Y-125914933D03*
X128356519Y-122665067D03*
D22*
X128356519Y-122665067D03*
%TD*%
D14*
%TO.C,D43*%
X264770000Y-187560000D03*
D28*
X264770000Y-187560000D03*
X264770000Y-184260000D03*
D14*
X264770000Y-184260000D03*
%TD*%
D22*
%TO.C,D2*%
X107533481Y-131054933D03*
D14*
X107533481Y-131054933D03*
D22*
X108106519Y-127805067D03*
D14*
X108106519Y-127805067D03*
%TD*%
%TO.C,D12*%
X313776519Y-135834933D03*
D23*
X313776519Y-135834933D03*
D14*
X313203481Y-132585067D03*
D23*
X313203481Y-132585067D03*
%TD*%
D28*
%TO.C,D38*%
X136560000Y-187560000D03*
D14*
X136560000Y-187560000D03*
X136560000Y-184260000D03*
D28*
X136560000Y-184260000D03*
%TD*%
D23*
%TO.C,D22*%
X277086519Y-147144933D03*
D14*
X277086519Y-147144933D03*
D23*
X276513481Y-143895067D03*
D14*
X276513481Y-143895067D03*
%TD*%
%TO.C,J1*%
X223700689Y-124671685D03*
X223492311Y-123489915D03*
%TD*%
D22*
%TO.C,D26*%
X100913481Y-168574933D03*
D14*
X100913481Y-168574933D03*
X101486519Y-165325067D03*
D22*
X101486519Y-165325067D03*
%TD*%
D14*
%TO.C,D36*%
X320396519Y-173354933D03*
D23*
X320396519Y-173354933D03*
X319823481Y-170105067D03*
D14*
X319823481Y-170105067D03*
%TD*%
%TO.C,D27*%
X121163481Y-163444933D03*
D22*
X121163481Y-163444933D03*
D14*
X121736519Y-160195067D03*
D22*
X121736519Y-160195067D03*
%TD*%
D23*
%TO.C,D20*%
X239556519Y-153754933D03*
D14*
X239556519Y-153754933D03*
X238983481Y-150505067D03*
D23*
X238983481Y-150505067D03*
%TD*%
D14*
%TO.C,D16*%
X144063481Y-143304933D03*
D22*
X144063481Y-143304933D03*
X144636519Y-140055067D03*
D14*
X144636519Y-140055067D03*
%TD*%
%TO.C,D11*%
X294016519Y-133514933D03*
D23*
X294016519Y-133514933D03*
X293443481Y-130265067D03*
D14*
X293443481Y-130265067D03*
%TD*%
D23*
%TO.C,D31*%
X224936519Y-180514933D03*
D14*
X224936519Y-180514933D03*
X224363481Y-177265067D03*
D23*
X224363481Y-177265067D03*
%TD*%
D14*
%TO.C,D35*%
X300636519Y-171034933D03*
D23*
X300636519Y-171034933D03*
D14*
X300063481Y-167785067D03*
D23*
X300063481Y-167785067D03*
%TD*%
%TO.C,D9*%
X254186519Y-126994933D03*
D14*
X254186519Y-126994933D03*
X253613481Y-123745067D03*
D23*
X253613481Y-123745067D03*
%TD*%
%TO.C,D44*%
X335846519Y-151284933D03*
D14*
X335846519Y-151284933D03*
D23*
X335273481Y-148035067D03*
D14*
X335273481Y-148035067D03*
%TD*%
D22*
%TO.C,D40*%
X184543481Y-201694933D03*
D14*
X184543481Y-201694933D03*
X185116519Y-198445067D03*
D22*
X185116519Y-198445067D03*
%TD*%
D23*
%TO.C,D34*%
X280386519Y-165894933D03*
D14*
X280386519Y-165894933D03*
X279813481Y-162645067D03*
D23*
X279813481Y-162645067D03*
%TD*%
D22*
%TO.C,D1*%
X87783481Y-133374933D03*
D14*
X87783481Y-133374933D03*
D22*
X88356519Y-130125067D03*
D14*
X88356519Y-130125067D03*
%TD*%
%TO.C,D39*%
X160063481Y-197374933D03*
D22*
X160063481Y-197374933D03*
X160636519Y-194125067D03*
D14*
X160636519Y-194125067D03*
%TD*%
D23*
%TO.C,D42*%
X241496519Y-199844933D03*
D14*
X241496519Y-199844933D03*
X240923481Y-196595067D03*
D23*
X240923481Y-196595067D03*
%TD*%
D22*
%TO.C,D17*%
X161993481Y-151294933D03*
D14*
X161993481Y-151294933D03*
X162566519Y-148045067D03*
D22*
X162566519Y-148045067D03*
%TD*%
D14*
%TO.C,D15*%
X124473481Y-144684933D03*
D22*
X124473481Y-144684933D03*
X125046519Y-141435067D03*
D14*
X125046519Y-141435067D03*
%TD*%
D23*
%TO.C,D33*%
X260796519Y-164514933D03*
D14*
X260796519Y-164514933D03*
X260223481Y-161265067D03*
D23*
X260223481Y-161265067D03*
%TD*%
%TO.C,D24*%
X317076519Y-154594933D03*
D14*
X317076519Y-154594933D03*
X316503481Y-151345067D03*
D23*
X316503481Y-151345067D03*
%TD*%
D14*
%TO.C,D13*%
X84473481Y-152134933D03*
D22*
X84473481Y-152134933D03*
D14*
X85046519Y-148885067D03*
D22*
X85046519Y-148885067D03*
%TD*%
D23*
%TO.C,D10*%
X273766519Y-128384933D03*
D14*
X273766519Y-128384933D03*
X273193481Y-125135067D03*
D23*
X273193481Y-125135067D03*
%TD*%
%TO.C,D19*%
X221626519Y-161754933D03*
D14*
X221626519Y-161754933D03*
X221053481Y-158505067D03*
D23*
X221053481Y-158505067D03*
%TD*%
%TO.C,D41*%
X217016519Y-204154933D03*
D14*
X217016519Y-204154933D03*
D23*
X216443481Y-200905067D03*
D14*
X216443481Y-200905067D03*
%TD*%
%TO.C,D30*%
X176623481Y-178054933D03*
D22*
X176623481Y-178054933D03*
D14*
X177196519Y-174805067D03*
D22*
X177196519Y-174805067D03*
%TD*%
D14*
%TO.C,D29*%
X158683481Y-170054933D03*
D22*
X158683481Y-170054933D03*
D14*
X159256519Y-166805067D03*
D22*
X159256519Y-166805067D03*
%TD*%
M02*
