%TF.GenerationSoftware,KiCad,Pcbnew,(6.0.2)*%
%TF.CreationDate,2022-04-05T05:22:49+08:00*%
%TF.ProjectId,TK44,544b3434-2e6b-4696-9361-645f70636258,rev?*%
%TF.SameCoordinates,Original*%
%TF.FileFunction,Profile,NP*%
%FSLAX46Y46*%
G04 Gerber Fmt 4.6, Leading zero omitted, Abs format (unit mm)*
G04 Created by KiCad (PCBNEW (6.0.2)) date 2022-04-05 05:22:49*
%MOMM*%
%LPD*%
G01*
G04 APERTURE LIST*
%TA.AperFunction,Profile*%
%ADD10C,0.100000*%
%TD*%
G04 APERTURE END LIST*
D10*
X249496414Y-112495250D02*
X267427422Y-109333530D01*
X212275006Y-119170000D02*
X212275006Y-112556019D01*
X89355427Y-117830704D02*
G75*
G03*
X87752206Y-119449560I367354J-1967103D01*
G01*
X66909104Y-133710854D02*
G75*
G03*
X65750649Y-134522013I-173647J-984808D01*
G01*
X258175304Y-200913955D02*
G75*
G03*
X258868909Y-200726112I-695307J3941882D01*
G01*
X212275006Y-119170000D02*
X203220000Y-119170000D01*
X287272686Y-110614134D02*
X268403565Y-109282682D01*
X336441310Y-174540027D02*
X292063742Y-182364990D01*
X87752206Y-119449560D02*
X84490000Y-137980000D01*
X335013314Y-154279440D02*
G75*
G03*
X333923236Y-154470995I-545039J-95778D01*
G01*
X80270000Y-155410000D02*
X80481693Y-154279440D01*
X81571771Y-154470995D02*
G75*
G03*
X80481693Y-154279440I-545039J95777D01*
G01*
X79053697Y-174540027D02*
X123431265Y-182364990D01*
X156626097Y-200726112D02*
X132828994Y-191920013D01*
X349744359Y-134522013D02*
G75*
G03*
X348585902Y-133710854I-984807J-173647D01*
G01*
X332095084Y-137788445D02*
X331895007Y-136650000D01*
X327742801Y-119449560D02*
G75*
G03*
X326139580Y-117830704I-1970570J-348241D01*
G01*
X131036056Y-190593575D02*
G75*
G03*
X132828994Y-191920013I3179289J2422455D01*
G01*
X78242537Y-173381571D02*
G75*
G03*
X79053697Y-174540027I984808J-173648D01*
G01*
X351893900Y-152471441D02*
G75*
G03*
X352705059Y-151312986I-173649J984808D01*
G01*
X331005007Y-137980000D02*
G75*
G03*
X332095085Y-137788445I545039J95778D01*
G01*
X127995056Y-110630171D02*
X89355427Y-117830704D01*
X332594113Y-140554120D02*
G75*
G03*
X331504035Y-140745675I-545039J-95778D01*
G01*
X156626097Y-200726112D02*
G75*
G03*
X157319702Y-200913955I1388912J3754039D01*
G01*
X83399922Y-137788445D02*
G75*
G03*
X84490000Y-137980000I545039J-95777D01*
G01*
X83990972Y-140745675D02*
G75*
G03*
X82900894Y-140554120I-545039J95777D01*
G01*
X332594113Y-140554120D02*
X334514286Y-151513765D01*
X248801821Y-112556019D02*
G75*
G03*
X249496414Y-112495250I5J3999950D01*
G01*
X331005007Y-137980000D02*
X327742801Y-119449560D01*
X335013314Y-154279440D02*
X335225007Y-155410000D01*
X80270000Y-155410000D02*
X63601107Y-152471441D01*
X127995056Y-110630171D02*
X147091442Y-109282682D01*
X165998593Y-112495250D02*
G75*
G03*
X166693185Y-112556019I694586J3939158D01*
G01*
X352705059Y-151312986D02*
X349744358Y-134522013D01*
X202208019Y-208828977D02*
X157319702Y-200913955D01*
X62789947Y-151312986D02*
G75*
G03*
X63601107Y-152471441I984810J-173646D01*
G01*
X348585902Y-133710854D02*
X331895007Y-136650000D01*
X203220000Y-112556019D02*
X203220000Y-119170000D01*
X292063742Y-182364990D02*
G75*
G03*
X289577199Y-183879272I693696J-3937759D01*
G01*
X336441310Y-174540027D02*
G75*
G03*
X337252470Y-173381571I-173648J984808D01*
G01*
X212592395Y-208889746D02*
G75*
G03*
X213286987Y-208828977I6J3999927D01*
G01*
X81571771Y-154470995D02*
X78242537Y-173381571D01*
X213286987Y-208828977D02*
X258175304Y-200913955D01*
X284458950Y-190593575D02*
X289577199Y-183879272D01*
X202902612Y-208889746D02*
X212592395Y-208889746D01*
X335225007Y-155410000D02*
X351893900Y-152471441D01*
X80980721Y-151513765D02*
G75*
G03*
X82070799Y-151705320I545039J-95777D01*
G01*
X82070799Y-151705320D02*
X83990972Y-140745675D01*
X287723925Y-110671908D02*
X326139580Y-117830704D01*
X331504035Y-140745675D02*
X333424208Y-151705320D01*
X148067585Y-109333530D02*
X165998593Y-112495250D01*
X202208019Y-208828977D02*
G75*
G03*
X202902612Y-208889746I694588J3939181D01*
G01*
X333424208Y-151705320D02*
G75*
G03*
X334514286Y-151513765I545039J95778D01*
G01*
X83600000Y-136650000D02*
X83399923Y-137788445D01*
X258868909Y-200726112D02*
X282666012Y-191920013D01*
X282666012Y-191920013D02*
G75*
G03*
X284458950Y-190593575I-1386351J3748893D01*
G01*
X337252470Y-173381571D02*
X333923236Y-154470995D01*
X287723925Y-110671908D02*
G75*
G03*
X287272686Y-110614134I-734308J-3944182D01*
G01*
X131036056Y-190593575D02*
X125917808Y-183879272D01*
X125917808Y-183879272D02*
G75*
G03*
X123431265Y-182364990I-3180243J-2423483D01*
G01*
X80980721Y-151513765D02*
X82900894Y-140554120D01*
X166693185Y-112556019D02*
X203220000Y-112556019D01*
X148067585Y-109333530D02*
G75*
G03*
X147091442Y-109282682I-695131J-3949560D01*
G01*
X268403565Y-109282682D02*
G75*
G03*
X267427422Y-109333530I-281012J-4000408D01*
G01*
X65750649Y-134522013D02*
X62789947Y-151312986D01*
X83600000Y-136650000D02*
X66909104Y-133710854D01*
X212275006Y-112556019D02*
X248801821Y-112556019D01*
M02*
