G04 #@! TF.GenerationSoftware,KiCad,Pcbnew,(6.0.2)*
G04 #@! TF.CreationDate,2022-04-12T17:10:10+08:00*
G04 #@! TF.ProjectId,TK44,544b3434-2e6b-4696-9361-645f70636258,rev?*
G04 #@! TF.SameCoordinates,Original*
G04 #@! TF.FileFunction,Soldermask,Top*
G04 #@! TF.FilePolarity,Negative*
%FSLAX46Y46*%
G04 Gerber Fmt 4.6, Leading zero omitted, Abs format (unit mm)*
G04 Created by KiCad (PCBNEW (6.0.2)) date 2022-04-12 17:10:10*
%MOMM*%
%LPD*%
G01*
G04 APERTURE LIST*
G04 Aperture macros list*
%AMRoundRect*
0 Rectangle with rounded corners*
0 $1 Rounding radius*
0 $2 $3 $4 $5 $6 $7 $8 $9 X,Y pos of 4 corners*
0 Add a 4 corners polygon primitive as box body*
4,1,4,$2,$3,$4,$5,$6,$7,$8,$9,$2,$3,0*
0 Add four circle primitives for the rounded corners*
1,1,$1+$1,$2,$3*
1,1,$1+$1,$4,$5*
1,1,$1+$1,$6,$7*
1,1,$1+$1,$8,$9*
0 Add four rect primitives between the rounded corners*
20,1,$1+$1,$2,$3,$4,$5,0*
20,1,$1+$1,$4,$5,$6,$7,0*
20,1,$1+$1,$6,$7,$8,$9,0*
20,1,$1+$1,$8,$9,$2,$3,0*%
G04 Aperture macros list end*
%ADD10C,3.050000*%
%ADD11C,4.000000*%
%ADD12C,1.750000*%
%ADD13C,4.400000*%
%ADD14RoundRect,0.200000X0.275000X-0.200000X0.275000X0.200000X-0.275000X0.200000X-0.275000X-0.200000X0*%
%ADD15RoundRect,0.200000X-0.275000X0.200000X-0.275000X-0.200000X0.275000X-0.200000X0.275000X0.200000X0*%
%ADD16RoundRect,0.162500X-0.367500X-0.162500X0.367500X-0.162500X0.367500X0.162500X-0.367500X0.162500X0*%
%ADD17RoundRect,0.225000X0.375000X-0.225000X0.375000X0.225000X-0.375000X0.225000X-0.375000X-0.225000X0*%
%ADD18C,0.800000*%
%ADD19RoundRect,0.237500X0.237500X-0.287500X0.237500X0.287500X-0.237500X0.287500X-0.237500X-0.287500X0*%
%ADD20RoundRect,0.162500X0.367500X0.162500X-0.367500X0.162500X-0.367500X-0.162500X0.367500X-0.162500X0*%
%ADD21O,1.000000X1.762000*%
%ADD22O,1.000000X2.219000*%
%ADD23RoundRect,0.135000X-0.135000X-0.365000X0.135000X-0.365000X0.135000X0.365000X-0.135000X0.365000X0*%
%ADD24RoundRect,0.075000X-0.075000X-0.425000X0.075000X-0.425000X0.075000X0.425000X-0.075000X0.425000X0*%
%ADD25RoundRect,0.175000X0.500000X0.175000X-0.500000X0.175000X-0.500000X-0.175000X0.500000X-0.175000X0*%
%ADD26RoundRect,0.175000X-0.175000X0.500000X-0.175000X-0.500000X0.175000X-0.500000X0.175000X0.500000X0*%
%ADD27RoundRect,0.175000X-0.500000X-0.175000X0.500000X-0.175000X0.500000X0.175000X-0.500000X0.175000X0*%
%ADD28RoundRect,0.200000X0.250000X0.200000X-0.250000X0.200000X-0.250000X-0.200000X0.250000X-0.200000X0*%
%ADD29C,0.900000*%
G04 APERTURE END LIST*
D10*
X152078144Y-153246643D03*
D11*
X148694600Y-157808400D03*
D12*
X153697423Y-158690533D03*
D10*
X145383549Y-154645389D03*
D12*
X143691777Y-156926267D03*
D13*
X100205200Y-173070600D03*
D10*
X181253549Y-170635389D03*
D12*
X189567423Y-174680533D03*
D11*
X184564600Y-173798400D03*
D12*
X179561777Y-172916267D03*
D10*
X187948144Y-169236643D03*
D13*
X239585900Y-182550500D03*
D14*
X206750000Y-135135000D03*
X206750000Y-133485000D03*
D13*
X181893500Y-119529700D03*
X104370200Y-120368200D03*
D12*
X243866077Y-166679433D03*
X253871723Y-164915167D03*
D10*
X250488179Y-160353410D03*
X244675716Y-163957488D03*
D11*
X248868900Y-165797300D03*
D10*
X288008179Y-153733410D03*
D12*
X291391723Y-158295167D03*
D10*
X282195716Y-157337488D03*
D11*
X286388900Y-159177300D03*
D12*
X281386077Y-160059433D03*
D10*
X139108144Y-117096643D03*
D11*
X135724600Y-121658400D03*
D12*
X130721777Y-120776267D03*
X140727423Y-122540533D03*
D10*
X132413549Y-118495389D03*
X226745716Y-171957488D03*
X232558179Y-168353410D03*
D12*
X225936077Y-174679433D03*
X235941723Y-172915167D03*
D11*
X230938900Y-173797300D03*
D15*
X212530000Y-123185000D03*
X212530000Y-124835000D03*
D16*
X201880000Y-137740000D03*
X201880000Y-138690000D03*
X201880000Y-139640000D03*
X204080000Y-139640000D03*
X204080000Y-137740000D03*
D12*
X103851777Y-163436267D03*
X113857423Y-165200533D03*
D10*
X112238144Y-159756643D03*
X105543549Y-161155389D03*
D11*
X108854600Y-164318400D03*
D12*
X78647423Y-145450533D03*
D10*
X77028144Y-140006643D03*
D12*
X68641777Y-143686267D03*
D10*
X70333549Y-141405389D03*
D11*
X73644600Y-144568400D03*
D17*
X207890000Y-128650000D03*
D18*
X207890000Y-128650000D03*
X207890000Y-125350000D03*
D17*
X207890000Y-125350000D03*
D12*
X110471777Y-125916267D03*
D11*
X115474600Y-126798400D03*
D10*
X112163549Y-123635389D03*
X118858144Y-122236643D03*
D12*
X120477423Y-127680533D03*
X276928000Y-181990000D03*
D10*
X268038000Y-179450000D03*
X274388000Y-176910000D03*
D11*
X271848000Y-181990000D03*
D12*
X266768000Y-181990000D03*
X168241777Y-127396267D03*
D10*
X169933549Y-125115389D03*
X176628144Y-123716643D03*
D11*
X173244600Y-128278400D03*
D12*
X178247423Y-129160533D03*
D10*
X229248179Y-149593410D03*
X223435716Y-153197488D03*
D12*
X232631723Y-154155167D03*
D11*
X227628900Y-155037300D03*
D12*
X222626077Y-155919433D03*
D13*
X233601500Y-119529700D03*
D12*
X87411777Y-146996267D03*
D10*
X89103549Y-144715389D03*
D12*
X97417423Y-148760533D03*
D10*
X95798144Y-143316643D03*
D11*
X92414600Y-147878400D03*
X192484640Y-197438382D03*
D10*
X189173589Y-194275371D03*
X195868185Y-192876625D03*
D12*
X187481817Y-196556250D03*
X197487464Y-198320515D03*
D11*
X169934600Y-147038400D03*
D10*
X166623549Y-143875389D03*
X173318144Y-142476643D03*
D12*
X174937423Y-147920533D03*
X164931777Y-146156267D03*
D11*
X224318900Y-136277300D03*
D10*
X220125716Y-134437488D03*
D12*
X219316077Y-137159433D03*
D10*
X225938179Y-130833410D03*
D12*
X229321723Y-135395167D03*
X318076077Y-148759433D03*
D10*
X324698179Y-142433410D03*
D11*
X323078900Y-147877300D03*
D10*
X318885716Y-146037488D03*
D12*
X328081723Y-146995167D03*
D19*
X210640000Y-127864900D03*
X210640000Y-126114900D03*
D10*
X295825716Y-124957488D03*
X301638179Y-121353410D03*
D12*
X305021723Y-125915167D03*
X295016077Y-127679433D03*
D11*
X300018900Y-126797300D03*
D12*
X90721777Y-128236267D03*
D10*
X92413549Y-125955389D03*
X99108144Y-124556643D03*
D11*
X95724600Y-129118400D03*
D12*
X100727423Y-130000533D03*
D20*
X213620000Y-139640000D03*
X213620000Y-138690000D03*
X213620000Y-137740000D03*
X211420000Y-137740000D03*
X211420000Y-139640000D03*
D12*
X148718000Y-181990000D03*
D10*
X146178000Y-176910000D03*
D11*
X143638000Y-181990000D03*
D10*
X139828000Y-179450000D03*
D12*
X138558000Y-181990000D03*
X192867423Y-155920533D03*
D11*
X187864600Y-155038400D03*
D12*
X182861777Y-154156267D03*
D10*
X184553549Y-151875389D03*
X191248144Y-150476643D03*
D12*
X274766077Y-122549433D03*
D11*
X279768900Y-121667300D03*
D12*
X284771723Y-120785167D03*
D10*
X275575716Y-119827488D03*
X281388179Y-116223410D03*
D12*
X250561723Y-146155167D03*
D10*
X247178179Y-141593410D03*
X241365716Y-145197488D03*
D12*
X240556077Y-147919433D03*
D11*
X245558900Y-147037300D03*
D10*
X261808179Y-114833410D03*
D12*
X255186077Y-121159433D03*
D10*
X255995716Y-118437488D03*
D12*
X265191723Y-119395167D03*
D11*
X260188900Y-120277300D03*
D10*
X158688144Y-115726643D03*
D12*
X160307423Y-121170533D03*
D10*
X151993549Y-117125389D03*
D12*
X150301777Y-119406267D03*
D11*
X155304600Y-120288400D03*
D10*
X265108179Y-133603410D03*
D12*
X258486077Y-139929433D03*
D11*
X263488900Y-139047300D03*
D10*
X259295716Y-137207488D03*
D12*
X268491723Y-138165167D03*
D19*
X204860000Y-127874900D03*
X204860000Y-126124900D03*
D12*
X336846077Y-145449433D03*
D11*
X341848900Y-144567300D03*
D10*
X337655716Y-142727488D03*
D12*
X346851723Y-143685167D03*
D10*
X343468179Y-139123410D03*
D13*
X315289800Y-173070600D03*
D10*
X249118179Y-187683410D03*
D12*
X252501723Y-192245167D03*
X242496077Y-194009433D03*
D10*
X243305716Y-191287488D03*
D11*
X247498900Y-193127300D03*
D10*
X322205716Y-164797488D03*
X328018179Y-161193410D03*
D12*
X321396077Y-167519433D03*
X331401723Y-165755167D03*
D11*
X326398900Y-166637300D03*
D10*
X315585716Y-127277488D03*
D11*
X319778900Y-129117300D03*
D10*
X321398179Y-123673410D03*
D12*
X324781723Y-128235167D03*
X314776077Y-129999433D03*
D21*
X213325300Y-118661000D03*
D22*
X202174700Y-114622400D03*
X213325300Y-114635100D03*
D21*
X202174600Y-118661000D03*
D23*
X210950000Y-119740000D03*
X204550000Y-119740000D03*
X205350000Y-119740000D03*
X210150000Y-119740000D03*
D24*
X209000000Y-119740000D03*
X208000000Y-119740000D03*
X207500000Y-119740000D03*
X206500000Y-119740000D03*
X206000000Y-119740000D03*
X207000000Y-119740000D03*
X208500000Y-119740000D03*
X209508000Y-119740000D03*
D13*
X175909100Y-182550200D03*
X311124900Y-120368200D03*
D12*
X228021664Y-196555185D03*
D10*
X224638119Y-191993428D03*
X218825656Y-195597505D03*
D12*
X218016017Y-198319450D03*
D11*
X223018840Y-197437318D03*
D14*
X208740000Y-135135000D03*
X208740000Y-133485000D03*
X204860000Y-135145000D03*
X204860000Y-133495000D03*
D10*
X194558144Y-131716643D03*
D12*
X196177423Y-137160533D03*
X186171777Y-135396267D03*
D10*
X187863549Y-133115389D03*
D11*
X191174600Y-136278400D03*
D12*
X308331723Y-144675167D03*
D10*
X299135716Y-143717488D03*
D11*
X303328900Y-145557300D03*
D12*
X298326077Y-146439433D03*
D10*
X304948179Y-140113410D03*
D15*
X202980000Y-123185000D03*
X202980000Y-124835000D03*
D11*
X166624600Y-165798400D03*
D10*
X163313549Y-162635389D03*
D12*
X161621777Y-164916267D03*
D10*
X170008144Y-161236643D03*
D12*
X171627423Y-166680533D03*
D11*
X168004600Y-193118400D03*
D10*
X171388144Y-188556643D03*
D12*
X163001777Y-192236267D03*
D10*
X164693549Y-189955389D03*
D12*
X173007423Y-194000533D03*
D25*
X214500000Y-159430000D03*
X214500000Y-158330000D03*
X214500000Y-157230000D03*
X214500000Y-156130000D03*
X214500000Y-155030000D03*
X214500000Y-153930000D03*
X214500000Y-152830000D03*
X214500000Y-151730000D03*
X214500000Y-150630000D03*
X214500000Y-149530000D03*
X214500000Y-148430000D03*
X214500000Y-147330000D03*
X214500000Y-146230000D03*
D26*
X213250000Y-144730000D03*
X212150000Y-144730000D03*
X211050000Y-144730000D03*
X209950000Y-144730000D03*
X208850000Y-144730000D03*
X207750000Y-144730000D03*
X206650000Y-144730000D03*
X205550000Y-144730000D03*
X204450000Y-144730000D03*
X203350000Y-144730000D03*
X202250000Y-144730000D03*
D27*
X201000000Y-146230000D03*
X201000000Y-147330000D03*
X201000000Y-148430000D03*
X201000000Y-149530000D03*
X201000000Y-150630000D03*
X201000000Y-151730000D03*
X201000000Y-152830000D03*
X201000000Y-153930000D03*
X201000000Y-155030000D03*
X201000000Y-156130000D03*
X201000000Y-157230000D03*
X201000000Y-158330000D03*
X201000000Y-159430000D03*
D12*
X311641723Y-163435167D03*
D10*
X308258179Y-158873410D03*
D11*
X306638900Y-164317300D03*
D12*
X301636077Y-165199433D03*
D10*
X302445716Y-162477488D03*
X85793549Y-163475389D03*
D12*
X84101777Y-165756267D03*
D10*
X92488144Y-162076643D03*
D11*
X89104600Y-166638400D03*
D12*
X94107423Y-167520533D03*
D10*
X243868179Y-122833410D03*
D12*
X247251723Y-127395167D03*
X237246077Y-129159433D03*
D10*
X238055716Y-126437488D03*
D11*
X242248900Y-128277300D03*
D15*
X202980000Y-133495000D03*
X202980000Y-135145000D03*
D14*
X210630000Y-135145000D03*
X210630000Y-133495000D03*
D12*
X147001777Y-138166267D03*
X157007423Y-139930533D03*
D10*
X148693549Y-135885389D03*
D11*
X152004600Y-139048400D03*
D10*
X155388144Y-134486643D03*
D11*
X266798900Y-157797300D03*
D12*
X261796077Y-158679433D03*
X271801723Y-156915167D03*
D10*
X262605716Y-155957488D03*
X268418179Y-152353410D03*
D12*
X107161777Y-144676267D03*
D10*
X108853549Y-142395389D03*
X115548144Y-140996643D03*
D11*
X112164600Y-145558400D03*
D12*
X117167423Y-146440533D03*
D11*
X283088900Y-140427300D03*
D12*
X278086077Y-141309433D03*
D10*
X284708179Y-134983410D03*
D12*
X288091723Y-139545167D03*
D10*
X278895716Y-138587488D03*
X125793549Y-156025389D03*
D12*
X124101777Y-158306267D03*
X134107423Y-160070533D03*
D10*
X132488144Y-154626643D03*
D11*
X129104600Y-159188400D03*
D28*
X208750000Y-139640000D03*
X208750000Y-137740000D03*
X206750000Y-138690000D03*
D15*
X212520000Y-133495000D03*
X212520000Y-135145000D03*
D12*
X127411777Y-139546267D03*
D10*
X135798144Y-135866643D03*
X129103549Y-137265389D03*
D11*
X132414600Y-140428400D03*
D12*
X137417423Y-141310533D03*
D29*
X224430000Y-114150000D03*
X221430000Y-114150000D03*
D18*
X223700689Y-124671685D03*
X223492311Y-123489915D03*
M02*
