M48
; DRILL file {KiCad (6.0.2)} date Tue Apr 12 17:10:14 2022
; FORMAT={-:-/ absolute / metric / decimal}
; #@! TF.CreationDate,2022-04-12T17:10:14+08:00
; #@! TF.GenerationSoftware,Kicad,Pcbnew,(6.0.2)
; #@! TF.FileFunction,NonPlated,1,2,NPTH
FMAT,2
METRIC
; #@! TA.AperFunction,NonPlated,NPTH,ComponentDrill
T1C0.900
; #@! TA.AperFunction,NonPlated,NPTH,ComponentDrill
T2C1.750
; #@! TA.AperFunction,NonPlated,NPTH,ComponentDrill
T3C3.050
; #@! TA.AperFunction,NonPlated,NPTH,ComponentDrill
T4C4.000
; #@! TA.AperFunction,NonPlated,NPTH,ComponentDrill
T5C4.400
%
G90
G05
T1
X221.43Y-114.15
X224.43Y-114.15
T2
X68.642Y-143.686
X78.647Y-145.451
X84.102Y-165.756
X87.412Y-146.996
X90.722Y-128.236
X94.107Y-167.521
X97.417Y-148.761
X100.727Y-130.001
X103.852Y-163.436
X107.162Y-144.676
X110.472Y-125.916
X113.857Y-165.201
X117.167Y-146.441
X120.477Y-127.681
X124.102Y-158.306
X127.412Y-139.546
X130.722Y-120.776
X134.107Y-160.071
X137.417Y-141.311
X138.558Y-181.99
X140.727Y-122.541
X143.692Y-156.926
X147.002Y-138.166
X148.718Y-181.99
X150.302Y-119.406
X153.697Y-158.691
X157.007Y-139.931
X160.307Y-121.171
X161.622Y-164.916
X163.002Y-192.236
X164.932Y-146.156
X168.242Y-127.396
X171.627Y-166.681
X173.007Y-194.001
X174.937Y-147.921
X178.247Y-129.161
X179.562Y-172.916
X182.862Y-154.156
X186.172Y-135.396
X187.482Y-196.556
X189.567Y-174.681
X192.867Y-155.921
X196.177Y-137.161
X197.487Y-198.321
X218.016Y-198.319
X219.316Y-137.159
X222.626Y-155.919
X225.936Y-174.679
X228.022Y-196.555
X229.322Y-135.395
X232.632Y-154.155
X235.942Y-172.915
X237.246Y-129.159
X240.556Y-147.919
X242.496Y-194.009
X243.866Y-166.679
X247.252Y-127.395
X250.562Y-146.155
X252.502Y-192.245
X253.872Y-164.915
X255.186Y-121.159
X258.486Y-139.929
X261.796Y-158.679
X265.192Y-119.395
X266.768Y-181.99
X268.492Y-138.165
X271.802Y-156.915
X274.766Y-122.549
X276.928Y-181.99
X278.086Y-141.309
X281.386Y-160.059
X284.772Y-120.785
X288.092Y-139.545
X291.392Y-158.295
X295.016Y-127.679
X298.326Y-146.439
X301.636Y-165.199
X305.022Y-125.915
X308.332Y-144.675
X311.642Y-163.435
X314.776Y-129.999
X318.076Y-148.759
X321.396Y-167.519
X324.782Y-128.235
X328.082Y-146.995
X331.402Y-165.755
X336.846Y-145.449
X346.852Y-143.685
T3
X70.334Y-141.405
X77.028Y-140.007
X85.794Y-163.475
X89.104Y-144.715
X92.414Y-125.955
X92.488Y-162.077
X95.798Y-143.317
X99.108Y-124.557
X105.544Y-161.155
X108.854Y-142.395
X112.164Y-123.635
X112.238Y-159.757
X115.548Y-140.997
X118.858Y-122.237
X125.794Y-156.025
X129.104Y-137.265
X132.414Y-118.495
X132.488Y-154.627
X135.798Y-135.867
X139.108Y-117.097
X139.828Y-179.45
X145.384Y-154.645
X146.178Y-176.91
X148.694Y-135.885
X151.994Y-117.125
X152.078Y-153.247
X155.388Y-134.487
X158.688Y-115.727
X163.314Y-162.635
X164.694Y-189.955
X166.624Y-143.875
X169.934Y-125.115
X170.008Y-161.237
X171.388Y-188.557
X173.318Y-142.477
X176.628Y-123.717
X181.254Y-170.635
X184.554Y-151.875
X187.864Y-133.115
X187.948Y-169.237
X189.174Y-194.275
X191.248Y-150.477
X194.558Y-131.717
X195.868Y-192.877
X218.826Y-195.598
X220.126Y-134.437
X223.436Y-153.197
X224.638Y-191.993
X225.938Y-130.833
X226.746Y-171.957
X229.248Y-149.593
X232.558Y-168.353
X238.056Y-126.437
X241.366Y-145.197
X243.306Y-191.287
X243.868Y-122.833
X244.676Y-163.957
X247.178Y-141.593
X249.118Y-187.683
X250.488Y-160.353
X255.996Y-118.437
X259.296Y-137.207
X261.808Y-114.833
X262.606Y-155.957
X265.108Y-133.603
X268.038Y-179.45
X268.418Y-152.353
X274.388Y-176.91
X275.576Y-119.827
X278.896Y-138.587
X281.388Y-116.223
X282.196Y-157.337
X284.708Y-134.983
X288.008Y-153.733
X295.826Y-124.957
X299.136Y-143.717
X301.638Y-121.353
X302.446Y-162.477
X304.948Y-140.113
X308.258Y-158.873
X315.586Y-127.277
X318.886Y-146.037
X321.398Y-123.673
X322.206Y-164.797
X324.698Y-142.433
X328.018Y-161.193
X337.656Y-142.727
X343.468Y-139.123
T4
X73.645Y-144.568
X89.105Y-166.638
X92.415Y-147.878
X95.725Y-129.118
X108.855Y-164.318
X112.165Y-145.558
X115.475Y-126.798
X129.105Y-159.188
X132.415Y-140.428
X135.725Y-121.658
X143.638Y-181.99
X148.695Y-157.808
X152.005Y-139.048
X155.305Y-120.288
X166.625Y-165.798
X168.005Y-193.118
X169.935Y-147.038
X173.245Y-128.278
X184.565Y-173.798
X187.865Y-155.038
X191.175Y-136.278
X192.485Y-197.438
X223.019Y-197.437
X224.319Y-136.277
X227.629Y-155.037
X230.939Y-173.797
X242.249Y-128.277
X245.559Y-147.037
X247.499Y-193.127
X248.869Y-165.797
X260.189Y-120.277
X263.489Y-139.047
X266.799Y-157.797
X271.848Y-181.99
X279.769Y-121.667
X283.089Y-140.427
X286.389Y-159.177
X300.019Y-126.797
X303.329Y-145.557
X306.639Y-164.317
X319.779Y-129.117
X323.079Y-147.877
X326.399Y-166.637
X341.849Y-144.567
T5
X100.205Y-173.071
X104.37Y-120.368
X175.909Y-182.55
X181.893Y-119.53
X233.601Y-119.53
X239.586Y-182.55
X311.125Y-120.368
X315.29Y-173.071
T0
M30
