G04 #@! TF.GenerationSoftware,KiCad,Pcbnew,(6.0.5)*
G04 #@! TF.CreationDate,2022-07-19T01:19:57+08:00*
G04 #@! TF.ProjectId,TK44,544b3434-2e6b-4696-9361-645f70636258,rev?*
G04 #@! TF.SameCoordinates,Original*
G04 #@! TF.FileFunction,Profile,NP*
%FSLAX46Y46*%
G04 Gerber Fmt 4.6, Leading zero omitted, Abs format (unit mm)*
G04 Created by KiCad (PCBNEW (6.0.5)) date 2022-07-19 01:19:57*
%MOMM*%
%LPD*%
G01*
G04 APERTURE LIST*
G04 #@! TA.AperFunction,Profile*
%ADD10C,0.100000*%
G04 #@! TD*
G04 APERTURE END LIST*
D10*
X249496414Y-112495250D02*
X267427422Y-109333530D01*
X212275006Y-119170000D02*
X212275006Y-112556019D01*
X89355423Y-117830683D02*
G75*
G03*
X87752206Y-119449560I367377J-1967117D01*
G01*
X66909107Y-133710835D02*
G75*
G03*
X65750649Y-134522013I-173607J-984865D01*
G01*
X258175304Y-200913955D02*
G75*
G03*
X258868909Y-200726112I-695304J3941855D01*
G01*
X212275006Y-119170000D02*
X203220000Y-119170000D01*
X287272686Y-110614134D02*
X268403565Y-109282682D01*
X336441310Y-174540027D02*
X292063742Y-182364990D01*
X87752206Y-119449560D02*
X84490000Y-137980000D01*
X335013369Y-154279430D02*
G75*
G03*
X333923236Y-154470995I-545069J-95770D01*
G01*
X80370817Y-154860739D02*
X80481693Y-154279440D01*
X331635006Y-141500000D02*
X333293235Y-150950995D01*
X81571703Y-154470983D02*
G75*
G03*
X80481693Y-154279440I-545003J95783D01*
G01*
X79053697Y-174540027D02*
X123431265Y-182364990D01*
X156626097Y-200726112D02*
X132828994Y-191920013D01*
X349744445Y-134521998D02*
G75*
G03*
X348585902Y-133710854I-984845J-173702D01*
G01*
X332095084Y-137788445D02*
X331990739Y-137190817D01*
X327742775Y-119449565D02*
G75*
G03*
X326139580Y-117830704I-1970575J-348235D01*
G01*
X131036035Y-190593591D02*
G75*
G03*
X132828994Y-191920013I3179265J2422491D01*
G01*
X78242479Y-173381561D02*
G75*
G03*
X79053697Y-174540027I984821J-173639D01*
G01*
X351893886Y-152471364D02*
G75*
G03*
X352705059Y-151312986I-173586J984764D01*
G01*
X127995056Y-110630171D02*
X89355427Y-117830704D01*
X335119189Y-154870738D02*
G75*
G03*
X335760000Y-155320000I545011J95738D01*
G01*
X332725004Y-141308459D02*
G75*
G03*
X331635006Y-141500000I-545004J-95741D01*
G01*
X156626097Y-200726113D02*
G75*
G03*
X157319702Y-200913955I1388903J3754013D01*
G01*
X83399990Y-137788457D02*
G75*
G03*
X84490000Y-137980000I545010J-95743D01*
G01*
X331004926Y-137980014D02*
G75*
G03*
X332095084Y-137788445I545074J95814D01*
G01*
X83860068Y-141500012D02*
G75*
G03*
X82769922Y-141308445I-545068J95812D01*
G01*
X248801821Y-112556024D02*
G75*
G03*
X249496414Y-112495250I-21J3999924D01*
G01*
X331005007Y-137980000D02*
X327742801Y-119449560D01*
X335013314Y-154279440D02*
X335119183Y-154870739D01*
X79730000Y-155310000D02*
X63601107Y-152471441D01*
X332725084Y-141308445D02*
X334383313Y-150759440D01*
X127995056Y-110630171D02*
X147091442Y-109282682D01*
X165998594Y-112495246D02*
G75*
G03*
X166693185Y-112556019I694606J3939146D01*
G01*
X352705059Y-151312986D02*
X349744358Y-134522013D01*
X202208019Y-208828977D02*
X157319702Y-200913955D01*
X332439989Y-136549938D02*
G75*
G03*
X331990739Y-137190817I95811J-545062D01*
G01*
X62789945Y-151312986D02*
G75*
G03*
X63601107Y-152471441I984855J-173614D01*
G01*
X348585902Y-133710854D02*
X332440000Y-136550000D01*
X203220000Y-112556019D02*
X203220000Y-119170000D01*
X292063743Y-182364995D02*
G75*
G03*
X289577199Y-183879272I693657J-3937705D01*
G01*
X336441301Y-174539974D02*
G75*
G03*
X337252470Y-173381571I-173601J984774D01*
G01*
X212592395Y-208889746D02*
G75*
G03*
X213286987Y-208828977I5J3999946D01*
G01*
X81571771Y-154470995D02*
X78242537Y-173381571D01*
X79729999Y-155310006D02*
G75*
G03*
X80370817Y-154860739I95801J545006D01*
G01*
X213286987Y-208828977D02*
X258175304Y-200913955D01*
X284458950Y-190593575D02*
X289577199Y-183879272D01*
X202902612Y-208889746D02*
X212592395Y-208889746D01*
X335760000Y-155320000D02*
X351893900Y-152471441D01*
X81111625Y-150759428D02*
G75*
G03*
X82201771Y-150950995I545075J-95772D01*
G01*
X82201771Y-150950995D02*
X83860000Y-141500000D01*
X287723925Y-110671908D02*
X326139580Y-117830704D01*
X148067585Y-109333530D02*
X165998593Y-112495250D01*
X333293291Y-150950985D02*
G75*
G03*
X334383313Y-150759440I545009J95785D01*
G01*
X202208019Y-208828978D02*
G75*
G03*
X202902612Y-208889746I694581J3939178D01*
G01*
X83510000Y-137200000D02*
X83399923Y-137788445D01*
X258868909Y-200726112D02*
X282666012Y-191920013D01*
X282666004Y-191919990D02*
G75*
G03*
X284458950Y-190593575I-1386304J3748890D01*
G01*
X337252470Y-173381571D02*
X333923236Y-154470995D01*
X287723925Y-110671910D02*
G75*
G03*
X287272686Y-110614134I-734325J-3944190D01*
G01*
X131036056Y-190593575D02*
X125917808Y-183879272D01*
X125917839Y-183879248D02*
G75*
G03*
X123431265Y-182364990I-3180239J-2423552D01*
G01*
X81111693Y-150759440D02*
X82769922Y-141308445D01*
X166693185Y-112556019D02*
X203220000Y-112556019D01*
X148067587Y-109333519D02*
G75*
G03*
X147091442Y-109282682I-695087J-3949581D01*
G01*
X268403566Y-109282671D02*
G75*
G03*
X267427422Y-109333530I-280966J-4000429D01*
G01*
X83510006Y-137200001D02*
G75*
G03*
X83060739Y-136559183I-545006J95801D01*
G01*
X65750649Y-134522013D02*
X62789947Y-151312986D01*
X83060739Y-136559183D02*
X66909104Y-133710854D01*
X212275006Y-112556019D02*
X248801821Y-112556019D01*
M02*
