G04 #@! TF.GenerationSoftware,KiCad,Pcbnew,(6.0.5)*
G04 #@! TF.CreationDate,2022-07-19T01:19:57+08:00*
G04 #@! TF.ProjectId,TK44,544b3434-2e6b-4696-9361-645f70636258,rev?*
G04 #@! TF.SameCoordinates,Original*
G04 #@! TF.FileFunction,Legend,Top*
G04 #@! TF.FilePolarity,Positive*
%FSLAX46Y46*%
G04 Gerber Fmt 4.6, Leading zero omitted, Abs format (unit mm)*
G04 Created by KiCad (PCBNEW (6.0.5)) date 2022-07-19 01:19:57*
%MOMM*%
%LPD*%
G01*
G04 APERTURE LIST*
G04 Aperture macros list*
%AMRoundRect*
0 Rectangle with rounded corners*
0 $1 Rounding radius*
0 $2 $3 $4 $5 $6 $7 $8 $9 X,Y pos of 4 corners*
0 Add a 4 corners polygon primitive as box body*
4,1,4,$2,$3,$4,$5,$6,$7,$8,$9,$2,$3,0*
0 Add four circle primitives for the rounded corners*
1,1,$1+$1,$2,$3*
1,1,$1+$1,$4,$5*
1,1,$1+$1,$6,$7*
1,1,$1+$1,$8,$9*
0 Add four rect primitives between the rounded corners*
20,1,$1+$1,$2,$3,$4,$5,0*
20,1,$1+$1,$4,$5,$6,$7,0*
20,1,$1+$1,$6,$7,$8,$9,0*
20,1,$1+$1,$8,$9,$2,$3,0*%
G04 Aperture macros list end*
%ADD10C,0.150000*%
%ADD11C,0.120000*%
%ADD12C,3.050000*%
%ADD13C,4.000000*%
%ADD14C,1.750000*%
%ADD15C,4.400000*%
%ADD16RoundRect,0.200000X0.275000X-0.200000X0.275000X0.200000X-0.275000X0.200000X-0.275000X-0.200000X0*%
%ADD17RoundRect,0.200000X-0.275000X0.200000X-0.275000X-0.200000X0.275000X-0.200000X0.275000X0.200000X0*%
%ADD18RoundRect,0.162500X-0.367500X-0.162500X0.367500X-0.162500X0.367500X0.162500X-0.367500X0.162500X0*%
%ADD19RoundRect,0.225000X0.375000X-0.225000X0.375000X0.225000X-0.375000X0.225000X-0.375000X-0.225000X0*%
%ADD20C,0.800000*%
%ADD21RoundRect,0.237500X0.237500X-0.287500X0.237500X0.287500X-0.237500X0.287500X-0.237500X-0.287500X0*%
%ADD22RoundRect,0.162500X0.367500X0.162500X-0.367500X0.162500X-0.367500X-0.162500X0.367500X-0.162500X0*%
%ADD23O,1.000000X1.762000*%
%ADD24O,1.000000X2.219000*%
%ADD25RoundRect,0.135000X-0.135000X-0.365000X0.135000X-0.365000X0.135000X0.365000X-0.135000X0.365000X0*%
%ADD26RoundRect,0.075000X-0.075000X-0.425000X0.075000X-0.425000X0.075000X0.425000X-0.075000X0.425000X0*%
%ADD27RoundRect,0.175000X0.500000X0.175000X-0.500000X0.175000X-0.500000X-0.175000X0.500000X-0.175000X0*%
%ADD28RoundRect,0.175000X-0.175000X0.500000X-0.175000X-0.500000X0.175000X-0.500000X0.175000X0.500000X0*%
%ADD29RoundRect,0.175000X-0.500000X-0.175000X0.500000X-0.175000X0.500000X0.175000X-0.500000X0.175000X0*%
%ADD30RoundRect,0.200000X0.250000X0.200000X-0.250000X0.200000X-0.250000X-0.200000X0.250000X-0.200000X0*%
%ADD31C,0.900000*%
G04 APERTURE END LIST*
D10*
X207202380Y-131916666D02*
X206726190Y-132250000D01*
X207202380Y-132488095D02*
X206202380Y-132488095D01*
X206202380Y-132107142D01*
X206250000Y-132011904D01*
X206297619Y-131964285D01*
X206392857Y-131916666D01*
X206535714Y-131916666D01*
X206630952Y-131964285D01*
X206678571Y-132011904D01*
X206726190Y-132107142D01*
X206726190Y-132488095D01*
X206630952Y-131345238D02*
X206583333Y-131440476D01*
X206535714Y-131488095D01*
X206440476Y-131535714D01*
X206392857Y-131535714D01*
X206297619Y-131488095D01*
X206250000Y-131440476D01*
X206202380Y-131345238D01*
X206202380Y-131154761D01*
X206250000Y-131059523D01*
X206297619Y-131011904D01*
X206392857Y-130964285D01*
X206440476Y-130964285D01*
X206535714Y-131011904D01*
X206583333Y-131059523D01*
X206630952Y-131154761D01*
X206630952Y-131345238D01*
X206678571Y-131440476D01*
X206726190Y-131488095D01*
X206821428Y-131535714D01*
X207011904Y-131535714D01*
X207107142Y-131488095D01*
X207154761Y-131440476D01*
X207202380Y-131345238D01*
X207202380Y-131154761D01*
X207154761Y-131059523D01*
X207107142Y-131011904D01*
X207011904Y-130964285D01*
X206821428Y-130964285D01*
X206726190Y-131011904D01*
X206678571Y-131059523D01*
X206630952Y-131154761D01*
X214677380Y-124166666D02*
X214201190Y-124500000D01*
X214677380Y-124738095D02*
X213677380Y-124738095D01*
X213677380Y-124357142D01*
X213725000Y-124261904D01*
X213772619Y-124214285D01*
X213867857Y-124166666D01*
X214010714Y-124166666D01*
X214105952Y-124214285D01*
X214153571Y-124261904D01*
X214201190Y-124357142D01*
X214201190Y-124738095D01*
X214677380Y-123214285D02*
X214677380Y-123785714D01*
X214677380Y-123500000D02*
X213677380Y-123500000D01*
X213820238Y-123595238D01*
X213915476Y-123690476D01*
X213963095Y-123785714D01*
X210553571Y-124534523D02*
X210601190Y-124391666D01*
X210648809Y-124344047D01*
X210744047Y-124296428D01*
X210886904Y-124296428D01*
X210982142Y-124344047D01*
X211029761Y-124391666D01*
X211077380Y-124486904D01*
X211077380Y-124867857D01*
X210077380Y-124867857D01*
X210077380Y-124534523D01*
X210125000Y-124439285D01*
X210172619Y-124391666D01*
X210267857Y-124344047D01*
X210363095Y-124344047D01*
X210458333Y-124391666D01*
X210505952Y-124439285D01*
X210553571Y-124534523D01*
X210553571Y-124867857D01*
X211077380Y-123391666D02*
X211077380Y-123867857D01*
X210077380Y-123867857D01*
X210077380Y-123058333D02*
X210886904Y-123058333D01*
X210982142Y-123010714D01*
X211029761Y-122963095D01*
X211077380Y-122867857D01*
X211077380Y-122677380D01*
X211029761Y-122582142D01*
X210982142Y-122534523D01*
X210886904Y-122486904D01*
X210077380Y-122486904D01*
X210553571Y-122010714D02*
X210553571Y-121677380D01*
X211077380Y-121534523D02*
X211077380Y-122010714D01*
X210077380Y-122010714D01*
X210077380Y-121534523D01*
X205302380Y-124292857D02*
X204826190Y-124626190D01*
X205302380Y-124864285D02*
X204302380Y-124864285D01*
X204302380Y-124483333D01*
X204350000Y-124388095D01*
X204397619Y-124340476D01*
X204492857Y-124292857D01*
X204635714Y-124292857D01*
X204730952Y-124340476D01*
X204778571Y-124388095D01*
X204826190Y-124483333D01*
X204826190Y-124864285D01*
X204778571Y-123864285D02*
X204778571Y-123530952D01*
X205302380Y-123388095D02*
X205302380Y-123864285D01*
X204302380Y-123864285D01*
X204302380Y-123388095D01*
X205302380Y-122959523D02*
X204302380Y-122959523D01*
X204302380Y-122721428D01*
X204350000Y-122578571D01*
X204445238Y-122483333D01*
X204540476Y-122435714D01*
X204730952Y-122388095D01*
X204873809Y-122388095D01*
X205064285Y-122435714D01*
X205159523Y-122483333D01*
X205254761Y-122578571D01*
X205302380Y-122721428D01*
X205302380Y-122959523D01*
X209177380Y-131916666D02*
X208701190Y-132250000D01*
X209177380Y-132488095D02*
X208177380Y-132488095D01*
X208177380Y-132107142D01*
X208225000Y-132011904D01*
X208272619Y-131964285D01*
X208367857Y-131916666D01*
X208510714Y-131916666D01*
X208605952Y-131964285D01*
X208653571Y-132011904D01*
X208701190Y-132107142D01*
X208701190Y-132488095D01*
X208177380Y-131583333D02*
X208177380Y-130964285D01*
X208558333Y-131297619D01*
X208558333Y-131154761D01*
X208605952Y-131059523D01*
X208653571Y-131011904D01*
X208748809Y-130964285D01*
X208986904Y-130964285D01*
X209082142Y-131011904D01*
X209129761Y-131059523D01*
X209177380Y-131154761D01*
X209177380Y-131440476D01*
X209129761Y-131535714D01*
X209082142Y-131583333D01*
X205302380Y-131916666D02*
X204826190Y-132250000D01*
X205302380Y-132488095D02*
X204302380Y-132488095D01*
X204302380Y-132107142D01*
X204350000Y-132011904D01*
X204397619Y-131964285D01*
X204492857Y-131916666D01*
X204635714Y-131916666D01*
X204730952Y-131964285D01*
X204778571Y-132011904D01*
X204826190Y-132107142D01*
X204826190Y-132488095D01*
X204302380Y-131059523D02*
X204302380Y-131250000D01*
X204350000Y-131345238D01*
X204397619Y-131392857D01*
X204540476Y-131488095D01*
X204730952Y-131535714D01*
X205111904Y-131535714D01*
X205207142Y-131488095D01*
X205254761Y-131440476D01*
X205302380Y-131345238D01*
X205302380Y-131154761D01*
X205254761Y-131059523D01*
X205207142Y-131011904D01*
X205111904Y-130964285D01*
X204873809Y-130964285D01*
X204778571Y-131011904D01*
X204730952Y-131059523D01*
X204683333Y-131154761D01*
X204683333Y-131345238D01*
X204730952Y-131440476D01*
X204778571Y-131488095D01*
X204873809Y-131535714D01*
X201802380Y-124166666D02*
X201326190Y-124500000D01*
X201802380Y-124738095D02*
X200802380Y-124738095D01*
X200802380Y-124357142D01*
X200850000Y-124261904D01*
X200897619Y-124214285D01*
X200992857Y-124166666D01*
X201135714Y-124166666D01*
X201230952Y-124214285D01*
X201278571Y-124261904D01*
X201326190Y-124357142D01*
X201326190Y-124738095D01*
X200897619Y-123785714D02*
X200850000Y-123738095D01*
X200802380Y-123642857D01*
X200802380Y-123404761D01*
X200850000Y-123309523D01*
X200897619Y-123261904D01*
X200992857Y-123214285D01*
X201088095Y-123214285D01*
X201230952Y-123261904D01*
X201802380Y-123833333D01*
X201802380Y-123214285D01*
X203427380Y-131916666D02*
X202951190Y-132250000D01*
X203427380Y-132488095D02*
X202427380Y-132488095D01*
X202427380Y-132107142D01*
X202475000Y-132011904D01*
X202522619Y-131964285D01*
X202617857Y-131916666D01*
X202760714Y-131916666D01*
X202855952Y-131964285D01*
X202903571Y-132011904D01*
X202951190Y-132107142D01*
X202951190Y-132488095D01*
X202427380Y-131011904D02*
X202427380Y-131488095D01*
X202903571Y-131535714D01*
X202855952Y-131488095D01*
X202808333Y-131392857D01*
X202808333Y-131154761D01*
X202855952Y-131059523D01*
X202903571Y-131011904D01*
X202998809Y-130964285D01*
X203236904Y-130964285D01*
X203332142Y-131011904D01*
X203379761Y-131059523D01*
X203427380Y-131154761D01*
X203427380Y-131392857D01*
X203379761Y-131488095D01*
X203332142Y-131535714D01*
X211077380Y-131916666D02*
X210601190Y-132250000D01*
X211077380Y-132488095D02*
X210077380Y-132488095D01*
X210077380Y-132107142D01*
X210125000Y-132011904D01*
X210172619Y-131964285D01*
X210267857Y-131916666D01*
X210410714Y-131916666D01*
X210505952Y-131964285D01*
X210553571Y-132011904D01*
X210601190Y-132107142D01*
X210601190Y-132488095D01*
X210077380Y-131583333D02*
X210077380Y-130916666D01*
X211077380Y-131345238D01*
X212977380Y-131916666D02*
X212501190Y-132250000D01*
X212977380Y-132488095D02*
X211977380Y-132488095D01*
X211977380Y-132107142D01*
X212025000Y-132011904D01*
X212072619Y-131964285D01*
X212167857Y-131916666D01*
X212310714Y-131916666D01*
X212405952Y-131964285D01*
X212453571Y-132011904D01*
X212501190Y-132107142D01*
X212501190Y-132488095D01*
X212310714Y-131059523D02*
X212977380Y-131059523D01*
X211929761Y-131297619D02*
X212644047Y-131535714D01*
X212644047Y-130916666D01*
D11*
X201420000Y-137180000D02*
X202355000Y-137180000D01*
X201120000Y-138015000D02*
X201120000Y-137480000D01*
X201420000Y-137180000D02*
G75*
G03*
X201120000Y-137480000I0J-300000D01*
G01*
X207334000Y-129300000D02*
X208446000Y-129300000D01*
X207080000Y-129046000D02*
X207080000Y-128270000D01*
X208700000Y-129046000D02*
X208700000Y-128270000D01*
X207080000Y-129046000D02*
G75*
G03*
X207334000Y-129300000I254000J0D01*
G01*
X208446000Y-129300000D02*
G75*
G03*
X208700000Y-129046000I0J254000D01*
G01*
X209905000Y-127339900D02*
X209905000Y-128389900D01*
X210165000Y-128650045D02*
X211114855Y-128649900D01*
X211375000Y-128389900D02*
X211375000Y-127339900D01*
X211114855Y-128649900D02*
G75*
G03*
X211375000Y-128389900I144J260001D01*
G01*
X209905000Y-128389900D02*
G75*
G03*
X210165000Y-128650045I260001J-144D01*
G01*
X214380000Y-139365000D02*
X214380000Y-139900000D01*
X214080000Y-140200000D02*
X213145000Y-140200000D01*
X214080000Y-140200000D02*
G75*
G03*
X214380000Y-139900000I0J300000D01*
G01*
X205595000Y-128399900D02*
X205595000Y-127349900D01*
X204125000Y-127349900D02*
X204125000Y-128399900D01*
X204385000Y-128660045D02*
X205334855Y-128659900D01*
X205334855Y-128659900D02*
G75*
G03*
X205595000Y-128399900I144J260001D01*
G01*
X204125000Y-128399900D02*
G75*
G03*
X204385000Y-128660045I260001J-144D01*
G01*
X209460000Y-139290000D02*
X209460000Y-140000000D01*
X209160000Y-140300000D02*
X208350000Y-140300000D01*
X209160000Y-140300000D02*
G75*
G03*
X209460000Y-140000000I0J300000D01*
G01*
%LPC*%
D12*
X152078144Y-153246643D03*
D13*
X148694600Y-157808400D03*
D14*
X153697423Y-158690533D03*
D12*
X145383549Y-154645389D03*
D14*
X143691777Y-156926267D03*
D15*
X100205200Y-173070600D03*
D12*
X181253549Y-170635389D03*
D14*
X189567423Y-174680533D03*
D13*
X184564600Y-173798400D03*
D14*
X179561777Y-172916267D03*
D12*
X187948144Y-169236643D03*
D15*
X239585900Y-182550500D03*
D16*
X206750000Y-135135000D03*
X206750000Y-133485000D03*
D15*
X181893500Y-119529700D03*
X104370200Y-120368200D03*
D14*
X243866077Y-166679433D03*
X253871723Y-164915167D03*
D12*
X250488179Y-160353410D03*
X244675716Y-163957488D03*
D13*
X248868900Y-165797300D03*
D12*
X288008179Y-153733410D03*
D14*
X291391723Y-158295167D03*
D12*
X282195716Y-157337488D03*
D13*
X286388900Y-159177300D03*
D14*
X281386077Y-160059433D03*
D12*
X139108144Y-117096643D03*
D13*
X135724600Y-121658400D03*
D14*
X130721777Y-120776267D03*
X140727423Y-122540533D03*
D12*
X132413549Y-118495389D03*
X226745716Y-171957488D03*
X232558179Y-168353410D03*
D14*
X225936077Y-174679433D03*
X235941723Y-172915167D03*
D13*
X230938900Y-173797300D03*
D17*
X212530000Y-123185000D03*
X212530000Y-124835000D03*
D18*
X201880000Y-137740000D03*
X201880000Y-138690000D03*
X201880000Y-139640000D03*
X204080000Y-139640000D03*
X204080000Y-137740000D03*
D14*
X103851777Y-163436267D03*
X113857423Y-165200533D03*
D12*
X112238144Y-159756643D03*
X105543549Y-161155389D03*
D13*
X108854600Y-164318400D03*
D14*
X78647423Y-145450533D03*
D12*
X77028144Y-140006643D03*
D14*
X68641777Y-143686267D03*
D12*
X70333549Y-141405389D03*
D13*
X73644600Y-144568400D03*
D19*
X207890000Y-128650000D03*
D20*
X207890000Y-128650000D03*
X207890000Y-125350000D03*
D19*
X207890000Y-125350000D03*
D14*
X110471777Y-125916267D03*
D13*
X115474600Y-126798400D03*
D12*
X112163549Y-123635389D03*
X118858144Y-122236643D03*
D14*
X120477423Y-127680533D03*
X276928000Y-181990000D03*
D12*
X268038000Y-179450000D03*
X274388000Y-176910000D03*
D13*
X271848000Y-181990000D03*
D14*
X266768000Y-181990000D03*
X168241777Y-127396267D03*
D12*
X169933549Y-125115389D03*
X176628144Y-123716643D03*
D13*
X173244600Y-128278400D03*
D14*
X178247423Y-129160533D03*
D12*
X229248179Y-149593410D03*
X223435716Y-153197488D03*
D14*
X232631723Y-154155167D03*
D13*
X227628900Y-155037300D03*
D14*
X222626077Y-155919433D03*
D15*
X233601500Y-119529700D03*
D14*
X87411777Y-146996267D03*
D12*
X89103549Y-144715389D03*
D14*
X97417423Y-148760533D03*
D12*
X95798144Y-143316643D03*
D13*
X92414600Y-147878400D03*
X192484640Y-197438382D03*
D12*
X189173589Y-194275371D03*
X195868185Y-192876625D03*
D14*
X187481817Y-196556250D03*
X197487464Y-198320515D03*
D13*
X169934600Y-147038400D03*
D12*
X166623549Y-143875389D03*
X173318144Y-142476643D03*
D14*
X174937423Y-147920533D03*
X164931777Y-146156267D03*
D13*
X224318900Y-136277300D03*
D12*
X220125716Y-134437488D03*
D14*
X219316077Y-137159433D03*
D12*
X225938179Y-130833410D03*
D14*
X229321723Y-135395167D03*
X318076077Y-148759433D03*
D12*
X324698179Y-142433410D03*
D13*
X323078900Y-147877300D03*
D12*
X318885716Y-146037488D03*
D14*
X328081723Y-146995167D03*
D21*
X210640000Y-127864900D03*
X210640000Y-126114900D03*
D12*
X295825716Y-124957488D03*
X301638179Y-121353410D03*
D14*
X305021723Y-125915167D03*
X295016077Y-127679433D03*
D13*
X300018900Y-126797300D03*
D14*
X90721777Y-128236267D03*
D12*
X92413549Y-125955389D03*
X99108144Y-124556643D03*
D13*
X95724600Y-129118400D03*
D14*
X100727423Y-130000533D03*
D22*
X213620000Y-139640000D03*
X213620000Y-138690000D03*
X213620000Y-137740000D03*
X211420000Y-137740000D03*
X211420000Y-139640000D03*
D14*
X148718000Y-181990000D03*
D12*
X146178000Y-176910000D03*
D13*
X143638000Y-181990000D03*
D12*
X139828000Y-179450000D03*
D14*
X138558000Y-181990000D03*
X192867423Y-155920533D03*
D13*
X187864600Y-155038400D03*
D14*
X182861777Y-154156267D03*
D12*
X184553549Y-151875389D03*
X191248144Y-150476643D03*
D14*
X274766077Y-122549433D03*
D13*
X279768900Y-121667300D03*
D14*
X284771723Y-120785167D03*
D12*
X275575716Y-119827488D03*
X281388179Y-116223410D03*
D14*
X250561723Y-146155167D03*
D12*
X247178179Y-141593410D03*
X241365716Y-145197488D03*
D14*
X240556077Y-147919433D03*
D13*
X245558900Y-147037300D03*
D12*
X261808179Y-114833410D03*
D14*
X255186077Y-121159433D03*
D12*
X255995716Y-118437488D03*
D14*
X265191723Y-119395167D03*
D13*
X260188900Y-120277300D03*
D12*
X158688144Y-115726643D03*
D14*
X160307423Y-121170533D03*
D12*
X151993549Y-117125389D03*
D14*
X150301777Y-119406267D03*
D13*
X155304600Y-120288400D03*
D12*
X265108179Y-133603410D03*
D14*
X258486077Y-139929433D03*
D13*
X263488900Y-139047300D03*
D12*
X259295716Y-137207488D03*
D14*
X268491723Y-138165167D03*
D21*
X204860000Y-127874900D03*
X204860000Y-126124900D03*
D14*
X336846077Y-145449433D03*
D13*
X341848900Y-144567300D03*
D12*
X337655716Y-142727488D03*
D14*
X346851723Y-143685167D03*
D12*
X343468179Y-139123410D03*
D15*
X315289800Y-173070600D03*
D12*
X249118179Y-187683410D03*
D14*
X252501723Y-192245167D03*
X242496077Y-194009433D03*
D12*
X243305716Y-191287488D03*
D13*
X247498900Y-193127300D03*
D12*
X322205716Y-164797488D03*
X328018179Y-161193410D03*
D14*
X321396077Y-167519433D03*
X331401723Y-165755167D03*
D13*
X326398900Y-166637300D03*
D12*
X315585716Y-127277488D03*
D13*
X319778900Y-129117300D03*
D12*
X321398179Y-123673410D03*
D14*
X324781723Y-128235167D03*
X314776077Y-129999433D03*
D23*
X213325300Y-118661000D03*
D24*
X202174700Y-114622400D03*
X213325300Y-114635100D03*
D23*
X202174600Y-118661000D03*
D25*
X210950000Y-119740000D03*
X204550000Y-119740000D03*
X205350000Y-119740000D03*
X210150000Y-119740000D03*
D26*
X209000000Y-119740000D03*
X208000000Y-119740000D03*
X207500000Y-119740000D03*
X206500000Y-119740000D03*
X206000000Y-119740000D03*
X207000000Y-119740000D03*
X208500000Y-119740000D03*
X209508000Y-119740000D03*
D15*
X175909100Y-182550200D03*
X311124900Y-120368200D03*
D14*
X228021664Y-196555185D03*
D12*
X224638119Y-191993428D03*
X218825656Y-195597505D03*
D14*
X218016017Y-198319450D03*
D13*
X223018840Y-197437318D03*
D16*
X208740000Y-135135000D03*
X208740000Y-133485000D03*
X204860000Y-135145000D03*
X204860000Y-133495000D03*
D12*
X194558144Y-131716643D03*
D14*
X196177423Y-137160533D03*
X186171777Y-135396267D03*
D12*
X187863549Y-133115389D03*
D13*
X191174600Y-136278400D03*
D14*
X308331723Y-144675167D03*
D12*
X299135716Y-143717488D03*
D13*
X303328900Y-145557300D03*
D14*
X298326077Y-146439433D03*
D12*
X304948179Y-140113410D03*
D17*
X202980000Y-123185000D03*
X202980000Y-124835000D03*
D13*
X166624600Y-165798400D03*
D12*
X163313549Y-162635389D03*
D14*
X161621777Y-164916267D03*
D12*
X170008144Y-161236643D03*
D14*
X171627423Y-166680533D03*
D13*
X168004600Y-193118400D03*
D12*
X171388144Y-188556643D03*
D14*
X163001777Y-192236267D03*
D12*
X164693549Y-189955389D03*
D14*
X173007423Y-194000533D03*
D27*
X214500000Y-159430000D03*
X214500000Y-158330000D03*
X214500000Y-157230000D03*
X214500000Y-156130000D03*
X214500000Y-155030000D03*
X214500000Y-153930000D03*
X214500000Y-152830000D03*
X214500000Y-151730000D03*
X214500000Y-150630000D03*
X214500000Y-149530000D03*
X214500000Y-148430000D03*
X214500000Y-147330000D03*
X214500000Y-146230000D03*
D28*
X213250000Y-144730000D03*
X212150000Y-144730000D03*
X211050000Y-144730000D03*
X209950000Y-144730000D03*
X208850000Y-144730000D03*
X207750000Y-144730000D03*
X206650000Y-144730000D03*
X205550000Y-144730000D03*
X204450000Y-144730000D03*
X203350000Y-144730000D03*
X202250000Y-144730000D03*
D29*
X201000000Y-146230000D03*
X201000000Y-147330000D03*
X201000000Y-148430000D03*
X201000000Y-149530000D03*
X201000000Y-150630000D03*
X201000000Y-151730000D03*
X201000000Y-152830000D03*
X201000000Y-153930000D03*
X201000000Y-155030000D03*
X201000000Y-156130000D03*
X201000000Y-157230000D03*
X201000000Y-158330000D03*
X201000000Y-159430000D03*
D14*
X311641723Y-163435167D03*
D12*
X308258179Y-158873410D03*
D13*
X306638900Y-164317300D03*
D14*
X301636077Y-165199433D03*
D12*
X302445716Y-162477488D03*
X85793549Y-163475389D03*
D14*
X84101777Y-165756267D03*
D12*
X92488144Y-162076643D03*
D13*
X89104600Y-166638400D03*
D14*
X94107423Y-167520533D03*
D12*
X243868179Y-122833410D03*
D14*
X247251723Y-127395167D03*
X237246077Y-129159433D03*
D12*
X238055716Y-126437488D03*
D13*
X242248900Y-128277300D03*
D17*
X202980000Y-135145000D03*
X202980000Y-133495000D03*
D16*
X210630000Y-135145000D03*
X210630000Y-133495000D03*
D14*
X147001777Y-138166267D03*
X157007423Y-139930533D03*
D12*
X148693549Y-135885389D03*
D13*
X152004600Y-139048400D03*
D12*
X155388144Y-134486643D03*
D13*
X266798900Y-157797300D03*
D14*
X261796077Y-158679433D03*
X271801723Y-156915167D03*
D12*
X262605716Y-155957488D03*
X268418179Y-152353410D03*
D14*
X107161777Y-144676267D03*
D12*
X108853549Y-142395389D03*
X115548144Y-140996643D03*
D13*
X112164600Y-145558400D03*
D14*
X117167423Y-146440533D03*
D13*
X283088900Y-140427300D03*
D14*
X278086077Y-141309433D03*
D12*
X284708179Y-134983410D03*
D14*
X288091723Y-139545167D03*
D12*
X278895716Y-138587488D03*
X125793549Y-156025389D03*
D14*
X124101777Y-158306267D03*
X134107423Y-160070533D03*
D12*
X132488144Y-154626643D03*
D13*
X129104600Y-159188400D03*
D30*
X208750000Y-139640000D03*
X208750000Y-137740000D03*
X206750000Y-138690000D03*
D17*
X212520000Y-133495000D03*
X212520000Y-135145000D03*
D14*
X127411777Y-139546267D03*
D12*
X135798144Y-135866643D03*
X129103549Y-137265389D03*
D13*
X132414600Y-140428400D03*
D14*
X137417423Y-141310533D03*
D31*
X224430000Y-114150000D03*
X221430000Y-114150000D03*
D20*
X223700689Y-124671685D03*
X223492311Y-123489915D03*
M02*
