G04 #@! TF.GenerationSoftware,KiCad,Pcbnew,(6.0.2)*
G04 #@! TF.CreationDate,2022-04-12T17:10:10+08:00*
G04 #@! TF.ProjectId,TK44,544b3434-2e6b-4696-9361-645f70636258,rev?*
G04 #@! TF.SameCoordinates,Original*
G04 #@! TF.FileFunction,Paste,Bot*
G04 #@! TF.FilePolarity,Positive*
%FSLAX46Y46*%
G04 Gerber Fmt 4.6, Leading zero omitted, Abs format (unit mm)*
G04 Created by KiCad (PCBNEW (6.0.2)) date 2022-04-12 17:10:10*
%MOMM*%
%LPD*%
G01*
G04 APERTURE LIST*
G04 Aperture macros list*
%AMRoundRect*
0 Rectangle with rounded corners*
0 $1 Rounding radius*
0 $2 $3 $4 $5 $6 $7 $8 $9 X,Y pos of 4 corners*
0 Add a 4 corners polygon primitive as box body*
4,1,4,$2,$3,$4,$5,$6,$7,$8,$9,$2,$3,0*
0 Add four circle primitives for the rounded corners*
1,1,$1+$1,$2,$3*
1,1,$1+$1,$4,$5*
1,1,$1+$1,$6,$7*
1,1,$1+$1,$8,$9*
0 Add four rect primitives between the rounded corners*
20,1,$1+$1,$2,$3,$4,$5,0*
20,1,$1+$1,$4,$5,$6,$7,0*
20,1,$1+$1,$6,$7,$8,$9,0*
20,1,$1+$1,$8,$9,$2,$3,0*%
G04 Aperture macros list end*
%ADD10RoundRect,0.250000X-1.183076X-0.806818X0.835780X-1.162797X1.183076X0.806818X-0.835780X1.162797X0*%
%ADD11RoundRect,0.250000X-0.835780X-1.162797X1.183076X-0.806818X0.835780X1.162797X-1.183076X0.806818X0*%
%ADD12RoundRect,0.250000X-1.025000X-1.000000X1.025000X-1.000000X1.025000X1.000000X-1.025000X1.000000X0*%
%ADD13RoundRect,0.425000X0.425000X0.425000X-0.425000X0.425000X-0.425000X-0.425000X0.425000X-0.425000X0*%
%ADD14O,1.700000X1.700000*%
%ADD15RoundRect,0.225000X0.330232X-0.286700X0.408374X0.156464X-0.330232X0.286700X-0.408374X-0.156464X0*%
%ADD16RoundRect,0.225000X0.408374X-0.156464X0.330232X0.286700X-0.408374X0.156464X-0.330232X-0.286700X0*%
%ADD17RoundRect,0.200000X-0.300000X-0.200000X0.300000X-0.200000X0.300000X0.200000X-0.300000X0.200000X0*%
%ADD18RoundRect,0.175000X-0.175000X-0.575000X0.175000X-0.575000X0.175000X0.575000X-0.175000X0.575000X0*%
%ADD19RoundRect,0.300000X-0.692219X-0.182571X0.588031X-0.408314X0.692219X0.182571X-0.588031X0.408314X0*%
%ADD20RoundRect,0.225000X0.375000X-0.225000X0.375000X0.225000X-0.375000X0.225000X-0.375000X-0.225000X0*%
G04 APERTURE END LIST*
G36*
X212841231Y-167293668D02*
G01*
X212856530Y-167302580D01*
X212859766Y-167303794D01*
X212877895Y-167316917D01*
X212903953Y-167339802D01*
X212912429Y-167346994D01*
X212925328Y-167357940D01*
X212967373Y-167389008D01*
X213011957Y-167418064D01*
X213043775Y-167437860D01*
X213059927Y-167448644D01*
X213081142Y-167462809D01*
X213105728Y-167481280D01*
X213107683Y-167482946D01*
X213142772Y-167507678D01*
X213189899Y-167535334D01*
X213219271Y-167550295D01*
X213238313Y-167559994D01*
X213277264Y-167575738D01*
X213278665Y-167576178D01*
X213311892Y-167590975D01*
X213347149Y-167612268D01*
X213353334Y-167616564D01*
X213377122Y-167631675D01*
X213388311Y-167636361D01*
X213390683Y-167635717D01*
X213407370Y-167639045D01*
X213457535Y-167655866D01*
X213524472Y-167677322D01*
X213578722Y-167693489D01*
X213614693Y-167702652D01*
X213646583Y-167709118D01*
X213683867Y-167716612D01*
X213715090Y-167723533D01*
X213754430Y-167733381D01*
X213760272Y-167734602D01*
X213793746Y-167737842D01*
X213843307Y-167739795D01*
X213902043Y-167740499D01*
X213963040Y-167739990D01*
X214019386Y-167738306D01*
X214064167Y-167735484D01*
X214090470Y-167731563D01*
X214114003Y-167724799D01*
X214147649Y-167715547D01*
X214168660Y-167709046D01*
X214217382Y-167690270D01*
X214269494Y-167666779D01*
X214315833Y-167642835D01*
X214347236Y-167622700D01*
X214365117Y-167608024D01*
X214408224Y-167569532D01*
X214436250Y-167539284D01*
X214446248Y-167520330D01*
X214446831Y-167515747D01*
X214457575Y-167505823D01*
X214460634Y-167504574D01*
X214473619Y-167487771D01*
X214488190Y-167457617D01*
X214493415Y-167441658D01*
X214499441Y-167381196D01*
X214489747Y-167314171D01*
X214465364Y-167249943D01*
X214445683Y-167212296D01*
X214424911Y-167172281D01*
X214410678Y-167149256D01*
X214383174Y-167110181D01*
X214347356Y-167062350D01*
X214307378Y-167011449D01*
X214260220Y-166952544D01*
X214202776Y-166879554D01*
X214161625Y-166825438D01*
X214136864Y-166790324D01*
X214128589Y-166774339D01*
X214128583Y-166774198D01*
X214122250Y-166759644D01*
X214106311Y-166729781D01*
X214084117Y-166690897D01*
X214061743Y-166650311D01*
X214045747Y-166616684D01*
X214039645Y-166597388D01*
X214040058Y-166589757D01*
X214048479Y-166574729D01*
X214068571Y-166578809D01*
X214101418Y-166602485D01*
X214148103Y-166646245D01*
X214157584Y-166655618D01*
X214248882Y-166736161D01*
X214342947Y-166803168D01*
X214433130Y-166851843D01*
X214467368Y-166864107D01*
X214521499Y-166873811D01*
X214591960Y-166876632D01*
X214619083Y-166876157D01*
X214678224Y-166870531D01*
X214730315Y-166856428D01*
X214781295Y-166831180D01*
X214837102Y-166792117D01*
X214903677Y-166736573D01*
X214927425Y-166715798D01*
X214970874Y-166677785D01*
X215007336Y-166645877D01*
X215030740Y-166625389D01*
X215047949Y-166610861D01*
X215083972Y-166581799D01*
X215123292Y-166551184D01*
X215149374Y-166530727D01*
X215187022Y-166499466D01*
X215214216Y-166474823D01*
X215240648Y-166449483D01*
X215272896Y-166422523D01*
X215291538Y-166413077D01*
X215295627Y-166411241D01*
X215314102Y-166396486D01*
X215340028Y-166371781D01*
X215347801Y-166364235D01*
X215382208Y-166333947D01*
X215427100Y-166297297D01*
X215474821Y-166260600D01*
X215493238Y-166246794D01*
X215537101Y-166212976D01*
X215573235Y-166183862D01*
X215595226Y-166164569D01*
X215600767Y-166159375D01*
X215632396Y-166134262D01*
X215669235Y-166109531D01*
X215682053Y-166101372D01*
X215706981Y-166082547D01*
X215716883Y-166070176D01*
X215721043Y-166063831D01*
X215741775Y-166046966D01*
X215774062Y-166026205D01*
X215795344Y-166012877D01*
X215821163Y-165993451D01*
X215831241Y-165980851D01*
X215831662Y-165978948D01*
X215845410Y-165964684D01*
X215872536Y-165947862D01*
X215891394Y-165937014D01*
X215931038Y-165910387D01*
X215971010Y-165879968D01*
X215993491Y-165862207D01*
X216037701Y-165829741D01*
X216075838Y-165804452D01*
X216088532Y-165796354D01*
X216113545Y-165777009D01*
X216123487Y-165763702D01*
X216132306Y-165752200D01*
X216156352Y-165739222D01*
X216182146Y-165725754D01*
X216220049Y-165701375D01*
X216261180Y-165671674D01*
X216332292Y-165618627D01*
X216399965Y-165571100D01*
X216455514Y-165535419D01*
X216495390Y-165513973D01*
X216530575Y-165498543D01*
X216509735Y-165538843D01*
X216493183Y-165564637D01*
X216451899Y-165612796D01*
X216393197Y-165669876D01*
X216319635Y-165733263D01*
X216311632Y-165739975D01*
X216272381Y-165775177D01*
X216220322Y-165824258D01*
X216159083Y-165883589D01*
X216092289Y-165949538D01*
X216023567Y-166018475D01*
X215956543Y-166086771D01*
X215894845Y-166150794D01*
X215842099Y-166206915D01*
X215801931Y-166251503D01*
X215777615Y-166279357D01*
X215740527Y-166321315D01*
X215710268Y-166354918D01*
X215691714Y-166374714D01*
X215669043Y-166402726D01*
X215647348Y-166437814D01*
X215645343Y-166441587D01*
X215628835Y-166466442D01*
X215615943Y-166476608D01*
X215611796Y-166478381D01*
X215595506Y-166495277D01*
X215575380Y-166524257D01*
X215573908Y-166526641D01*
X215550730Y-166562121D01*
X215519325Y-166607882D01*
X215486047Y-166654647D01*
X215470113Y-166677759D01*
X215436654Y-166731574D01*
X215400208Y-166795420D01*
X215363482Y-166864013D01*
X215329187Y-166932068D01*
X215300030Y-166994301D01*
X215278720Y-167045427D01*
X215267965Y-167080160D01*
X215264573Y-167095744D01*
X215256072Y-167124632D01*
X215250145Y-167142158D01*
X215235422Y-167205213D01*
X215224959Y-167279454D01*
X215219495Y-167355993D01*
X215219769Y-167425941D01*
X215226518Y-167480410D01*
X215233750Y-167513500D01*
X215241787Y-167553612D01*
X215242225Y-167555850D01*
X215250976Y-167585777D01*
X215260895Y-167602011D01*
X215266548Y-167608561D01*
X215272161Y-167631458D01*
X215275955Y-167646582D01*
X215290954Y-167678705D01*
X215313457Y-167716389D01*
X215338225Y-167750533D01*
X215373316Y-167793588D01*
X215412886Y-167838534D01*
X215452850Y-167881037D01*
X215489119Y-167916763D01*
X215517609Y-167941377D01*
X215534231Y-167950545D01*
X215545923Y-167953611D01*
X215568277Y-167968937D01*
X215572958Y-167973073D01*
X215599182Y-167991498D01*
X215638694Y-168015969D01*
X215685677Y-168043250D01*
X215734317Y-168070104D01*
X215778797Y-168093292D01*
X215813302Y-168109580D01*
X215832014Y-168115728D01*
X215834431Y-168116057D01*
X215855258Y-168122615D01*
X215886807Y-168134933D01*
X215895271Y-168138422D01*
X215925374Y-168150011D01*
X215942361Y-168155245D01*
X215943088Y-168155335D01*
X215967278Y-168164007D01*
X215985875Y-168178852D01*
X215989676Y-168192604D01*
X215987020Y-168195675D01*
X215964945Y-168203590D01*
X215935784Y-168202782D01*
X215913197Y-168193152D01*
X215911945Y-168192035D01*
X215885697Y-168177352D01*
X215839917Y-168159170D01*
X215779532Y-168138898D01*
X215709470Y-168117943D01*
X215634657Y-168097711D01*
X215560022Y-168079610D01*
X215490490Y-168065048D01*
X215430990Y-168055431D01*
X215397121Y-168051897D01*
X215316635Y-168047374D01*
X215225990Y-168046190D01*
X215132278Y-168048138D01*
X215042593Y-168053014D01*
X214964028Y-168060611D01*
X214903677Y-168070724D01*
X214903534Y-168070757D01*
X214868065Y-168078106D01*
X214827439Y-168085465D01*
X214824738Y-168085927D01*
X214789174Y-168094027D01*
X214763907Y-168103035D01*
X214740779Y-168111745D01*
X214706728Y-168119954D01*
X214697335Y-168121947D01*
X214657075Y-168134064D01*
X214604017Y-168153480D01*
X214542727Y-168178146D01*
X214477769Y-168206012D01*
X214433349Y-168226131D01*
X214413710Y-168235026D01*
X214355115Y-168263139D01*
X214306549Y-168288301D01*
X214272579Y-168308461D01*
X214257771Y-168321568D01*
X214254965Y-168325352D01*
X214236508Y-168331736D01*
X214225840Y-168334863D01*
X214198200Y-168349845D01*
X214164211Y-168373032D01*
X214131265Y-168397072D01*
X214082044Y-168431903D01*
X214033739Y-168465153D01*
X214013745Y-168478687D01*
X213984517Y-168498795D01*
X213959262Y-168517051D01*
X213933310Y-168537114D01*
X213901991Y-168562644D01*
X213860637Y-168597300D01*
X213804577Y-168644742D01*
X213750566Y-168692134D01*
X213674312Y-168762874D01*
X213591766Y-168842806D01*
X213507159Y-168927606D01*
X213424726Y-169012948D01*
X213348698Y-169094508D01*
X213283309Y-169167959D01*
X213232791Y-169228978D01*
X213223714Y-169240413D01*
X213189804Y-169281065D01*
X213158446Y-169316194D01*
X213153607Y-169321456D01*
X213125215Y-169356752D01*
X213104118Y-169389540D01*
X213103928Y-169389905D01*
X213087473Y-169414338D01*
X213073237Y-169424482D01*
X213065034Y-169427996D01*
X213052038Y-169446718D01*
X213046476Y-169458947D01*
X213030201Y-169483674D01*
X213026894Y-169487624D01*
X213009596Y-169510468D01*
X212983632Y-169546271D01*
X212953252Y-169589204D01*
X212946086Y-169599366D01*
X212910375Y-169648147D01*
X212875612Y-169693084D01*
X212848424Y-169725562D01*
X212835007Y-169740923D01*
X212815001Y-169766707D01*
X212807129Y-169781437D01*
X212800943Y-169793977D01*
X212782637Y-169823087D01*
X212755128Y-169864051D01*
X212721361Y-169912375D01*
X212695687Y-169948800D01*
X212649815Y-170015354D01*
X212606239Y-170080277D01*
X212567434Y-170139749D01*
X212535879Y-170189945D01*
X212514049Y-170227042D01*
X212504421Y-170247219D01*
X212502339Y-170253002D01*
X212491715Y-170263342D01*
X212484085Y-170269954D01*
X212466762Y-170293331D01*
X212444997Y-170327727D01*
X212430601Y-170351215D01*
X212397162Y-170402477D01*
X212365583Y-170447435D01*
X212349295Y-170470052D01*
X212331288Y-170497404D01*
X212324287Y-170511602D01*
X212323460Y-170514109D01*
X212313045Y-170534230D01*
X212292558Y-170570404D01*
X212264371Y-170618495D01*
X212230857Y-170674370D01*
X212223821Y-170686062D01*
X212190973Y-170742369D01*
X212155346Y-170805720D01*
X212118846Y-170872465D01*
X212083375Y-170938956D01*
X212050838Y-171001542D01*
X212023137Y-171056572D01*
X212002176Y-171100399D01*
X211989859Y-171129371D01*
X211988089Y-171139840D01*
X211987073Y-171148200D01*
X211975132Y-171169410D01*
X211965335Y-171187280D01*
X211946676Y-171226874D01*
X211923412Y-171279830D01*
X211897992Y-171340300D01*
X211872863Y-171402438D01*
X211850471Y-171460395D01*
X211833266Y-171508324D01*
X211827776Y-171524243D01*
X211813217Y-171563596D01*
X211801577Y-171591459D01*
X211793950Y-171609561D01*
X211786095Y-171635931D01*
X211781291Y-171652430D01*
X211768220Y-171681366D01*
X211760345Y-171700212D01*
X211760317Y-171715206D01*
X211760385Y-171715277D01*
X211758961Y-171729682D01*
X211746141Y-171754326D01*
X211745974Y-171754581D01*
X211731732Y-171778290D01*
X211726886Y-171790371D01*
X211727038Y-171794318D01*
X211722586Y-171813277D01*
X211717453Y-171831728D01*
X211710039Y-171864102D01*
X211709559Y-171866397D01*
X211702258Y-171896348D01*
X211690418Y-171940851D01*
X211676356Y-171991166D01*
X211652634Y-172076534D01*
X211621549Y-172195649D01*
X211592434Y-172315061D01*
X211566718Y-172428639D01*
X211545830Y-172530254D01*
X211531200Y-172613777D01*
X211526388Y-172643924D01*
X211519653Y-172683662D01*
X211517467Y-172696827D01*
X211511203Y-172739104D01*
X211505073Y-172785313D01*
X211502533Y-172805466D01*
X211496794Y-172848918D01*
X211492271Y-172880610D01*
X211491582Y-172885047D01*
X211485918Y-172921502D01*
X211479436Y-172963202D01*
X211459602Y-173113469D01*
X211448136Y-173275058D01*
X211450202Y-173416625D01*
X211465817Y-173538995D01*
X211495001Y-173642992D01*
X211498118Y-173651783D01*
X211505430Y-173677305D01*
X211507423Y-173683344D01*
X211518913Y-173709925D01*
X211537683Y-173749771D01*
X211560651Y-173796551D01*
X211584735Y-173843933D01*
X211606851Y-173885588D01*
X211607530Y-173886766D01*
X211625020Y-173909139D01*
X211656279Y-173943218D01*
X211696452Y-173984250D01*
X211740686Y-174027485D01*
X211784129Y-174068169D01*
X211821925Y-174101552D01*
X211849223Y-174122882D01*
X211850895Y-174123985D01*
X211879688Y-174140568D01*
X211922783Y-174162961D01*
X211974036Y-174188246D01*
X212027303Y-174213503D01*
X212076442Y-174235817D01*
X212115307Y-174252267D01*
X212137757Y-174259936D01*
X212169999Y-174266664D01*
X212211922Y-174276132D01*
X212248049Y-174284852D01*
X212248299Y-174284910D01*
X212264470Y-174287246D01*
X212298481Y-174291564D01*
X212343347Y-174296975D01*
X212419365Y-174303867D01*
X212506805Y-174305357D01*
X212598964Y-174299113D01*
X212705478Y-174284813D01*
X212710151Y-174284029D01*
X212753502Y-174274302D01*
X212808196Y-174259150D01*
X212867036Y-174240898D01*
X212922824Y-174221871D01*
X212968363Y-174204396D01*
X212996455Y-174190798D01*
X213020647Y-174177119D01*
X213041223Y-174169141D01*
X213057734Y-174162506D01*
X213090826Y-174143967D01*
X213133246Y-174117365D01*
X213179030Y-174086460D01*
X213222213Y-174055014D01*
X213234787Y-174045096D01*
X213277496Y-174007974D01*
X213323922Y-173963605D01*
X213370315Y-173916048D01*
X213412925Y-173869367D01*
X213448003Y-173827621D01*
X213471800Y-173794873D01*
X213480565Y-173775183D01*
X213481708Y-173767564D01*
X213492415Y-173757349D01*
X213501914Y-173750919D01*
X213513303Y-173728759D01*
X213513946Y-173726828D01*
X213528598Y-173695933D01*
X213549974Y-173662051D01*
X213565287Y-173637836D01*
X213585726Y-173600223D01*
X213605533Y-173559805D01*
X213620680Y-173524852D01*
X213627139Y-173503633D01*
X213630376Y-173494173D01*
X213641718Y-173471456D01*
X213645822Y-173463168D01*
X213659117Y-173429436D01*
X213672150Y-173388864D01*
X213678732Y-173365819D01*
X213686676Y-173337510D01*
X213691582Y-173317630D01*
X213695880Y-173295840D01*
X213701999Y-173261801D01*
X213704661Y-173247203D01*
X213712285Y-173207308D01*
X213718136Y-173179210D01*
X213718318Y-173178412D01*
X213724108Y-173147490D01*
X213729835Y-173109325D01*
X213729837Y-173109304D01*
X213735880Y-173068574D01*
X213742211Y-173033087D01*
X213750623Y-172988581D01*
X213758441Y-172934792D01*
X213765644Y-172867904D01*
X213768418Y-172840975D01*
X213773627Y-172797109D01*
X213778153Y-172766253D01*
X213783510Y-172736156D01*
X213790398Y-172696368D01*
X213796180Y-172663096D01*
X213803906Y-172620130D01*
X213803960Y-172619838D01*
X213811790Y-172576250D01*
X213818842Y-172535095D01*
X213823861Y-172503896D01*
X213825592Y-172490176D01*
X213825720Y-172488793D01*
X213831479Y-172469895D01*
X213844092Y-172434415D01*
X213861377Y-172388053D01*
X213881154Y-172336508D01*
X213901243Y-172285479D01*
X213919464Y-172240665D01*
X213933636Y-172207766D01*
X213941978Y-172190249D01*
X213965989Y-172144045D01*
X213995191Y-172091569D01*
X214026179Y-172038575D01*
X214055546Y-171990812D01*
X214079886Y-171954032D01*
X214095792Y-171933987D01*
X214107891Y-171920922D01*
X214131642Y-171892972D01*
X214160355Y-171857749D01*
X214188213Y-171824130D01*
X214240876Y-171765670D01*
X214293896Y-171712287D01*
X214342093Y-171669082D01*
X214380286Y-171641155D01*
X214386606Y-171637311D01*
X214410969Y-171619875D01*
X214420835Y-171608136D01*
X214423666Y-171603740D01*
X214441639Y-171587846D01*
X214469942Y-171566422D01*
X214501243Y-171544675D01*
X214528212Y-171527809D01*
X214543517Y-171521031D01*
X214549198Y-171518875D01*
X214571544Y-171506250D01*
X214603235Y-171486088D01*
X214609312Y-171482071D01*
X214641557Y-171461669D01*
X214672572Y-171444482D01*
X214710606Y-171426226D01*
X214763907Y-171402616D01*
X214834539Y-171374664D01*
X214993582Y-171328655D01*
X215163600Y-171300186D01*
X215338555Y-171290434D01*
X215382906Y-171290835D01*
X215433317Y-171292406D01*
X215469983Y-171294891D01*
X215487073Y-171297992D01*
X215491675Y-171300031D01*
X215517529Y-171306560D01*
X215554091Y-171312489D01*
X215563039Y-171313712D01*
X215609538Y-171322089D01*
X215649207Y-171331951D01*
X215686034Y-171342178D01*
X215724234Y-171350766D01*
X215751848Y-171357988D01*
X215785557Y-171371886D01*
X215803676Y-171381544D01*
X215818534Y-171388312D01*
X215821360Y-171389284D01*
X215841789Y-171397713D01*
X215873353Y-171411510D01*
X215895522Y-171422590D01*
X215914910Y-171439887D01*
X215917825Y-171461187D01*
X215917529Y-171463027D01*
X215908902Y-171479639D01*
X215887977Y-171487399D01*
X215850726Y-171486871D01*
X215793122Y-171478618D01*
X215669750Y-171461535D01*
X215497360Y-171453786D01*
X215329807Y-171466831D01*
X215160980Y-171500884D01*
X215140954Y-171506026D01*
X215110155Y-171513712D01*
X215100997Y-171516094D01*
X215047808Y-171533655D01*
X214984969Y-171558852D01*
X214922736Y-171587637D01*
X214876410Y-171610873D01*
X214825389Y-171636885D01*
X214791795Y-171654767D01*
X214772382Y-171666265D01*
X214763907Y-171673124D01*
X214761159Y-171675857D01*
X214742123Y-171690886D01*
X214713081Y-171711600D01*
X214703397Y-171718464D01*
X214674882Y-171741339D01*
X214658448Y-171758637D01*
X214652683Y-171765584D01*
X214632287Y-171775158D01*
X214632031Y-171775163D01*
X214613301Y-171785110D01*
X214582889Y-171811465D01*
X214544226Y-171850352D01*
X214500746Y-171897893D01*
X214455882Y-171950210D01*
X214413067Y-172003426D01*
X214375732Y-172053664D01*
X214347312Y-172097046D01*
X214333862Y-172120024D01*
X214306531Y-172167897D01*
X214284694Y-172207703D01*
X214272152Y-172232586D01*
X214252901Y-172277001D01*
X214227129Y-172339050D01*
X214210879Y-172382885D01*
X214203103Y-172411452D01*
X214202756Y-172427696D01*
X214202908Y-172433473D01*
X214193761Y-172453108D01*
X214186826Y-172464042D01*
X214179494Y-172484632D01*
X214173674Y-172515087D01*
X214169176Y-172557999D01*
X214165811Y-172615958D01*
X214163390Y-172691554D01*
X214161721Y-172787379D01*
X214160616Y-172906023D01*
X214160190Y-172954920D01*
X214158508Y-173060845D01*
X214155961Y-173150623D01*
X214152648Y-173221938D01*
X214148664Y-173272476D01*
X214144107Y-173299920D01*
X214143941Y-173300445D01*
X214132192Y-173342846D01*
X214123675Y-173382511D01*
X214122735Y-173387881D01*
X214113916Y-173428239D01*
X214102455Y-173471456D01*
X214098879Y-173483903D01*
X214091406Y-173512568D01*
X214089253Y-173525591D01*
X214089330Y-173526057D01*
X214084142Y-173540378D01*
X214071342Y-173566887D01*
X214069195Y-173571106D01*
X214058662Y-173595086D01*
X214057434Y-173604872D01*
X214058063Y-173606501D01*
X214053392Y-173624848D01*
X214041034Y-173659704D01*
X214022872Y-173706190D01*
X214000784Y-173759424D01*
X213976651Y-173814527D01*
X213966597Y-173836881D01*
X213945507Y-173884036D01*
X213928426Y-173922531D01*
X213926588Y-173926685D01*
X213909663Y-173963511D01*
X213895443Y-173992416D01*
X213880295Y-174021129D01*
X213861915Y-174055948D01*
X213854241Y-174070091D01*
X213819912Y-174127783D01*
X213779852Y-174188910D01*
X213739902Y-174244823D01*
X213705905Y-174286874D01*
X213692673Y-174301349D01*
X213642068Y-174354085D01*
X213586931Y-174408354D01*
X213532664Y-174459068D01*
X213484668Y-174501137D01*
X213448347Y-174529474D01*
X213432016Y-174541065D01*
X213405963Y-174561292D01*
X213393873Y-174573328D01*
X213382810Y-174582888D01*
X213355255Y-174601034D01*
X213317635Y-174623315D01*
X213282069Y-174644064D01*
X213252758Y-174662416D01*
X213239145Y-174672620D01*
X213237023Y-174674619D01*
X213216877Y-174686862D01*
X213182603Y-174704519D01*
X213141487Y-174724185D01*
X213100810Y-174742450D01*
X213067857Y-174755907D01*
X213049909Y-174761151D01*
X213045685Y-174761740D01*
X213035843Y-174773857D01*
X213035529Y-174777020D01*
X213026313Y-174784546D01*
X213019983Y-174784479D01*
X212997724Y-174790349D01*
X212980709Y-174796751D01*
X212942597Y-174809690D01*
X212895231Y-174824853D01*
X212845289Y-174840202D01*
X212799448Y-174853697D01*
X212764384Y-174863300D01*
X212746773Y-174866972D01*
X212741003Y-174867577D01*
X212730890Y-174875508D01*
X212729817Y-174878629D01*
X212715007Y-174884970D01*
X212691036Y-174887874D01*
X212645975Y-174895417D01*
X212578414Y-174907938D01*
X212569398Y-174909619D01*
X212523962Y-174917562D01*
X212476763Y-174925221D01*
X212469889Y-174926106D01*
X212430809Y-174928721D01*
X212374672Y-174930357D01*
X212307543Y-174931056D01*
X212235489Y-174930861D01*
X212164576Y-174929815D01*
X212100868Y-174927961D01*
X212050432Y-174925341D01*
X212019335Y-174921998D01*
X212014993Y-174921192D01*
X211978513Y-174915099D01*
X211936743Y-174908857D01*
X211929107Y-174907779D01*
X211863949Y-174897149D01*
X211818773Y-174886422D01*
X211788655Y-174874456D01*
X211774392Y-174868558D01*
X211765208Y-174870263D01*
X211761548Y-174872135D01*
X211746148Y-174862801D01*
X211734999Y-174854920D01*
X211727089Y-174854193D01*
X211719203Y-174854023D01*
X211693895Y-174845642D01*
X211657204Y-174830497D01*
X211625058Y-174817076D01*
X211597798Y-174807577D01*
X211587319Y-174806648D01*
X211587082Y-174807302D01*
X211575660Y-174803686D01*
X211552376Y-174789088D01*
X211542525Y-174782458D01*
X211504322Y-174759342D01*
X211462743Y-174736788D01*
X211389565Y-174692394D01*
X211310051Y-174631337D01*
X211230916Y-174559647D01*
X211157761Y-174482795D01*
X211096190Y-174406252D01*
X211051803Y-174335488D01*
X211038613Y-174309797D01*
X211016727Y-174267147D01*
X210993121Y-174221131D01*
X210984683Y-174203793D01*
X210963785Y-174156017D01*
X210941350Y-174099940D01*
X210920356Y-174043437D01*
X210903781Y-173994382D01*
X210894603Y-173960650D01*
X210894601Y-173960638D01*
X210891087Y-173944937D01*
X210884361Y-173916178D01*
X210881147Y-173902426D01*
X210866888Y-173833413D01*
X210856416Y-173763702D01*
X210855263Y-173755092D01*
X210849260Y-173718052D01*
X210843596Y-173692767D01*
X210841490Y-173684338D01*
X210837221Y-173656296D01*
X210832850Y-173612216D01*
X210828277Y-173550537D01*
X210823405Y-173469699D01*
X210818135Y-173368141D01*
X210812369Y-173244301D01*
X210806008Y-173096618D01*
X210802481Y-173020194D01*
X210793713Y-172878994D01*
X210782426Y-172753170D01*
X210768065Y-172636013D01*
X210768037Y-172635808D01*
X210761598Y-172588769D01*
X210755462Y-172542545D01*
X210748123Y-172506283D01*
X210728639Y-172442406D01*
X210699925Y-172366253D01*
X210663953Y-172283412D01*
X210649587Y-172252278D01*
X210630500Y-172210838D01*
X210617148Y-172181761D01*
X210605782Y-172158873D01*
X210596243Y-172143642D01*
X210595267Y-172142395D01*
X210584911Y-172124543D01*
X210567254Y-172091192D01*
X210545492Y-172048344D01*
X210539970Y-172037502D01*
X210508671Y-171980589D01*
X210471136Y-171917443D01*
X210434311Y-171859843D01*
X210417908Y-171835150D01*
X210391951Y-171794880D01*
X210374010Y-171765413D01*
X210367246Y-171751839D01*
X210362874Y-171743449D01*
X210344794Y-171717661D01*
X210315256Y-171678468D01*
X210277032Y-171629383D01*
X210232894Y-171573915D01*
X210185617Y-171515575D01*
X210137972Y-171457872D01*
X210092733Y-171404318D01*
X210088729Y-171399665D01*
X210021397Y-171325618D01*
X209941750Y-171244256D01*
X209855492Y-171160956D01*
X209768330Y-171081096D01*
X209685968Y-171010053D01*
X209614111Y-170953203D01*
X209600630Y-170943113D01*
X209556571Y-170909352D01*
X209514435Y-170876183D01*
X209495028Y-170861569D01*
X209464520Y-170842395D01*
X209444697Y-170834887D01*
X209435436Y-170832720D01*
X209419127Y-170815828D01*
X209414247Y-170806907D01*
X209399367Y-170796768D01*
X209389118Y-170793245D01*
X209362282Y-170778593D01*
X209327665Y-170756430D01*
X209304733Y-170740834D01*
X209264613Y-170713611D01*
X209233981Y-170692898D01*
X209232940Y-170692200D01*
X209205234Y-170676289D01*
X209186080Y-170669705D01*
X209181042Y-170668708D01*
X209157148Y-170658198D01*
X209125210Y-170639922D01*
X209119259Y-170636248D01*
X209072927Y-170610181D01*
X209026988Y-170587513D01*
X208997823Y-170574387D01*
X208949001Y-170552120D01*
X208899464Y-170529275D01*
X208860492Y-170512108D01*
X208816615Y-170494801D01*
X208785107Y-170484634D01*
X208755582Y-170475940D01*
X208734742Y-170466750D01*
X208731603Y-170464903D01*
X208704516Y-170454658D01*
X208660303Y-170441913D01*
X208605387Y-170428201D01*
X208546192Y-170415053D01*
X208489142Y-170404002D01*
X208440659Y-170396582D01*
X208428521Y-170395106D01*
X208385436Y-170389825D01*
X208339008Y-170384092D01*
X208313009Y-170381623D01*
X208251994Y-170378639D01*
X208178930Y-170377408D01*
X208102309Y-170377927D01*
X208030622Y-170380194D01*
X207972361Y-170384205D01*
X207956487Y-170385798D01*
X207901451Y-170391342D01*
X207851651Y-170396383D01*
X207838533Y-170397800D01*
X207795519Y-170403410D01*
X207762706Y-170408991D01*
X207759846Y-170409602D01*
X207687991Y-170424348D01*
X207622936Y-170436233D01*
X207591967Y-170441606D01*
X207565108Y-170446692D01*
X207546824Y-170451181D01*
X207527639Y-170457151D01*
X207503977Y-170463659D01*
X207467740Y-170471333D01*
X207463782Y-170472099D01*
X207431744Y-170480427D01*
X207386000Y-170494296D01*
X207335076Y-170511148D01*
X207323723Y-170515046D01*
X207275059Y-170531312D01*
X207234803Y-170544105D01*
X207210733Y-170550934D01*
X207189572Y-170555880D01*
X207160686Y-170564250D01*
X207127389Y-170576996D01*
X207105829Y-170585384D01*
X207065244Y-170600606D01*
X207019385Y-170617393D01*
X206982675Y-170630860D01*
X206942985Y-170645893D01*
X206917734Y-170656029D01*
X206915254Y-170657108D01*
X206884606Y-170670344D01*
X206847849Y-170686098D01*
X206825782Y-170695611D01*
X206780547Y-170715376D01*
X206733492Y-170736168D01*
X206703410Y-170749510D01*
X206657476Y-170769757D01*
X206622311Y-170785113D01*
X206617147Y-170787422D01*
X206591469Y-170801686D01*
X206581015Y-170812577D01*
X206579251Y-170816710D01*
X206563001Y-170822181D01*
X206557428Y-170823658D01*
X206531904Y-170834123D01*
X206490992Y-170852661D01*
X206439460Y-170876938D01*
X206382081Y-170904618D01*
X206323623Y-170933368D01*
X206268857Y-170960852D01*
X206222553Y-170984736D01*
X206189482Y-171002686D01*
X206174412Y-171012366D01*
X206154689Y-171027381D01*
X206121338Y-171047026D01*
X206085524Y-171064504D01*
X206081634Y-171066255D01*
X206048464Y-171084862D01*
X206013310Y-171108946D01*
X206005179Y-171114963D01*
X205977578Y-171132703D01*
X205960160Y-171139840D01*
X205951231Y-171142233D01*
X205930722Y-171156479D01*
X205924667Y-171161723D01*
X205899027Y-171181131D01*
X205860699Y-171208428D01*
X205815458Y-171239457D01*
X205791694Y-171255750D01*
X205753311Y-171283487D01*
X205726846Y-171304566D01*
X205716983Y-171315377D01*
X205716953Y-171315796D01*
X205706229Y-171328694D01*
X205682041Y-171345818D01*
X205664438Y-171358407D01*
X205628670Y-171388708D01*
X205584483Y-171429349D01*
X205536935Y-171475397D01*
X205491088Y-171521917D01*
X205452002Y-171563978D01*
X205424737Y-171596645D01*
X205420485Y-171602256D01*
X205391352Y-171637924D01*
X205364382Y-171667324D01*
X205363599Y-171668098D01*
X205343934Y-171689817D01*
X205335793Y-171703253D01*
X205335245Y-171705144D01*
X205325232Y-171723486D01*
X205305220Y-171755712D01*
X205278614Y-171796281D01*
X205271015Y-171807716D01*
X205245766Y-171847413D01*
X205228092Y-171877893D01*
X205221436Y-171893316D01*
X205221224Y-171895490D01*
X205213000Y-171919308D01*
X205194404Y-171960315D01*
X205167603Y-172014545D01*
X205134765Y-172078034D01*
X205098057Y-172146815D01*
X205059646Y-172216924D01*
X205021701Y-172284396D01*
X204986388Y-172345264D01*
X204955875Y-172395563D01*
X204932330Y-172431328D01*
X204917919Y-172448594D01*
X204915439Y-172451077D01*
X204900295Y-172470062D01*
X204876027Y-172502751D01*
X204846566Y-172543892D01*
X204838696Y-172554957D01*
X204805216Y-172600141D01*
X204774361Y-172639167D01*
X204751958Y-172664602D01*
X204751227Y-172665333D01*
X204726524Y-172691723D01*
X204693047Y-172729526D01*
X204657822Y-172770812D01*
X204632117Y-172801016D01*
X204575695Y-172863022D01*
X204514757Y-172923499D01*
X204443821Y-172987746D01*
X204357404Y-173061059D01*
X204309338Y-173100948D01*
X204264090Y-173138539D01*
X204228301Y-173168316D01*
X204207025Y-173186077D01*
X204183491Y-173203577D01*
X204168125Y-173210976D01*
X204155791Y-173216519D01*
X204133816Y-173233212D01*
X204127838Y-173238358D01*
X204096968Y-173262424D01*
X204059804Y-173288858D01*
X204022982Y-173313226D01*
X203993136Y-173331097D01*
X203976900Y-173338039D01*
X203975863Y-173338078D01*
X203961389Y-173347569D01*
X203960180Y-173349313D01*
X203941835Y-173362984D01*
X203905860Y-173384244D01*
X203856818Y-173410790D01*
X203799277Y-173440319D01*
X203737801Y-173470530D01*
X203676956Y-173499119D01*
X203621308Y-173523784D01*
X203575422Y-173542223D01*
X203539072Y-173556240D01*
X203504834Y-173570831D01*
X203486624Y-173580397D01*
X203471564Y-173588185D01*
X203442152Y-173596981D01*
X203421476Y-173601673D01*
X203380807Y-173611862D01*
X203334542Y-173624155D01*
X203298723Y-173633877D01*
X203259841Y-173644245D01*
X203236068Y-173650353D01*
X203218514Y-173654667D01*
X203185243Y-173663107D01*
X203165930Y-173667708D01*
X203083108Y-173681585D01*
X202983979Y-173691351D01*
X202875414Y-173696894D01*
X202764285Y-173698103D01*
X202657465Y-173694863D01*
X202561825Y-173687063D01*
X202484237Y-173674591D01*
X202462464Y-173670062D01*
X202426038Y-173663352D01*
X202397349Y-173656730D01*
X202359330Y-173644475D01*
X202358969Y-173644335D01*
X202334533Y-173637108D01*
X202324387Y-173638509D01*
X202319839Y-173639439D01*
X202303375Y-173628664D01*
X202289676Y-173619094D01*
X202277387Y-173615909D01*
X202270015Y-173615915D01*
X202241550Y-173608387D01*
X202195062Y-173592746D01*
X202133792Y-173570027D01*
X202124339Y-173566995D01*
X202105203Y-173564736D01*
X202102781Y-173564830D01*
X202095673Y-173554047D01*
X202094554Y-173549367D01*
X202079790Y-173541225D01*
X202075062Y-173540901D01*
X202039465Y-173529925D01*
X201988974Y-173505172D01*
X201927166Y-173469113D01*
X201857621Y-173424222D01*
X201783916Y-173372970D01*
X201709630Y-173317829D01*
X201638339Y-173261271D01*
X201573623Y-173205770D01*
X201519060Y-173153797D01*
X201465709Y-173093341D01*
X201429706Y-173039595D01*
X201411838Y-172994757D01*
X201412493Y-172960617D01*
X201432059Y-172938966D01*
X201470924Y-172931595D01*
X201484818Y-172937806D01*
X201513985Y-172958606D01*
X201552707Y-172990563D01*
X201596385Y-173030069D01*
X201646859Y-173076818D01*
X201739736Y-173157337D01*
X201820915Y-173219416D01*
X201892371Y-173264622D01*
X201908331Y-173273490D01*
X201955842Y-173300037D01*
X201997585Y-173323536D01*
X202009611Y-173330086D01*
X202041180Y-173344852D01*
X202061305Y-173350745D01*
X202065996Y-173351386D01*
X202091221Y-173360241D01*
X202124450Y-173376183D01*
X202137299Y-173382772D01*
X202162072Y-173393236D01*
X202171911Y-173393686D01*
X202174159Y-173391441D01*
X202187794Y-173398548D01*
X202209114Y-173409518D01*
X202241796Y-173419377D01*
X202274634Y-173426484D01*
X202311681Y-173434857D01*
X202378291Y-173447835D01*
X202489383Y-173461233D01*
X202608649Y-173467701D01*
X202727969Y-173467116D01*
X202839223Y-173459355D01*
X202934292Y-173444296D01*
X202958573Y-173439218D01*
X202997824Y-173431909D01*
X203028562Y-173425742D01*
X203111978Y-173402177D01*
X203208417Y-173367585D01*
X203312438Y-173324433D01*
X203418599Y-173275188D01*
X203521458Y-173222319D01*
X203615571Y-173168292D01*
X203695498Y-173115576D01*
X203709277Y-173105573D01*
X203782658Y-173050512D01*
X203857911Y-172991444D01*
X203930523Y-172932120D01*
X203995978Y-172876289D01*
X204049762Y-172827700D01*
X204087360Y-172790104D01*
X204102562Y-172773384D01*
X204144327Y-172727627D01*
X204183231Y-172685203D01*
X204194666Y-172672373D01*
X204228685Y-172631784D01*
X204268390Y-172582065D01*
X204307358Y-172531186D01*
X204328143Y-172503412D01*
X204359272Y-172462011D01*
X204383130Y-172430526D01*
X204395762Y-172414188D01*
X204400930Y-172406628D01*
X204408229Y-172385599D01*
X204408683Y-172382097D01*
X204420935Y-172372356D01*
X204426781Y-172370206D01*
X204433642Y-172353297D01*
X204434975Y-172344542D01*
X204445492Y-172334237D01*
X204454990Y-172327808D01*
X204466380Y-172305648D01*
X204467002Y-172303776D01*
X204481600Y-172272865D01*
X204502890Y-172238939D01*
X204515770Y-172219004D01*
X204539194Y-172176711D01*
X204561284Y-172130935D01*
X204575778Y-172099300D01*
X204590954Y-172068911D01*
X204599786Y-172054697D01*
X204599962Y-172054543D01*
X204609411Y-172038677D01*
X204621351Y-172010225D01*
X204631775Y-171983070D01*
X204649286Y-171939264D01*
X204668838Y-171891629D01*
X204685990Y-171849356D01*
X204700256Y-171812102D01*
X204707706Y-171789978D01*
X204712069Y-171775368D01*
X204723436Y-171740129D01*
X204739569Y-171691501D01*
X204758528Y-171635388D01*
X204773867Y-171590011D01*
X204790745Y-171539156D01*
X204803242Y-171500411D01*
X204809410Y-171479735D01*
X204813679Y-171462251D01*
X204821837Y-171428909D01*
X204827116Y-171406136D01*
X204835042Y-171368554D01*
X204840133Y-171344856D01*
X204847631Y-171315567D01*
X204862084Y-171259203D01*
X204878696Y-171165224D01*
X204890241Y-171061226D01*
X204896568Y-170952994D01*
X204897523Y-170846316D01*
X204892955Y-170746978D01*
X204882711Y-170660766D01*
X204866639Y-170593467D01*
X204843334Y-170527164D01*
X204824104Y-170478071D01*
X204810059Y-170449956D01*
X204800402Y-170440991D01*
X204793611Y-170434613D01*
X204784886Y-170412401D01*
X204772010Y-170384818D01*
X204743680Y-170343025D01*
X204704324Y-170293451D01*
X204657996Y-170240908D01*
X204608752Y-170190212D01*
X204560645Y-170146176D01*
X204537057Y-170126939D01*
X204486024Y-170089021D01*
X204434706Y-170054861D01*
X204389649Y-170028693D01*
X204357404Y-170014753D01*
X204354909Y-170013880D01*
X204334954Y-170005596D01*
X204303793Y-169991936D01*
X204300061Y-169990310D01*
X204253896Y-169974085D01*
X204208495Y-169963239D01*
X204200463Y-169961917D01*
X204169158Y-169955719D01*
X204152347Y-169950668D01*
X204146268Y-169949006D01*
X204118911Y-169946602D01*
X204077300Y-169945325D01*
X204028812Y-169945160D01*
X203980824Y-169946090D01*
X203940713Y-169948101D01*
X203915858Y-169951176D01*
X203895971Y-169956046D01*
X203858679Y-169965245D01*
X203839039Y-169970009D01*
X203816115Y-169975240D01*
X203796465Y-169983710D01*
X203768466Y-170000203D01*
X203766012Y-170001790D01*
X203743882Y-170013810D01*
X203734792Y-170014413D01*
X203730233Y-170014020D01*
X203709476Y-170022738D01*
X203677614Y-170040069D01*
X203655270Y-170052488D01*
X203630192Y-170064119D01*
X203620435Y-170065133D01*
X203618163Y-170062634D01*
X203604552Y-170069553D01*
X203604307Y-170069749D01*
X203585776Y-170081481D01*
X203550441Y-170101698D01*
X203503930Y-170127362D01*
X203451870Y-170155438D01*
X203399887Y-170182891D01*
X203353608Y-170206685D01*
X203318659Y-170223786D01*
X203313184Y-170226420D01*
X203287718Y-170241585D01*
X203277364Y-170253043D01*
X203276196Y-170256793D01*
X203261254Y-170263102D01*
X203253771Y-170264800D01*
X203227644Y-170277149D01*
X203194545Y-170297526D01*
X203184016Y-170304551D01*
X203137214Y-170333794D01*
X203092637Y-170359269D01*
X203080280Y-170365863D01*
X203023822Y-170396599D01*
X202988378Y-170417197D01*
X202972411Y-170428543D01*
X202972103Y-170428845D01*
X202956391Y-170439100D01*
X202928923Y-170453955D01*
X202887414Y-170475335D01*
X202860961Y-170490310D01*
X202848480Y-170500056D01*
X202845348Y-170507535D01*
X202844164Y-170511166D01*
X202829175Y-170517229D01*
X202814406Y-170522090D01*
X202783999Y-170537937D01*
X202746584Y-170560970D01*
X202714608Y-170580921D01*
X202689615Y-170594158D01*
X202679970Y-170595913D01*
X202679003Y-170593450D01*
X202670441Y-170600462D01*
X202668212Y-170602787D01*
X202648306Y-170617259D01*
X202613213Y-170639748D01*
X202568184Y-170667188D01*
X202518468Y-170696513D01*
X202469317Y-170724658D01*
X202425981Y-170748558D01*
X202393710Y-170765145D01*
X202377754Y-170771356D01*
X202368733Y-170774352D01*
X202349916Y-170790275D01*
X202339123Y-170799701D01*
X202322947Y-170802232D01*
X202319346Y-170800637D01*
X202311681Y-170807243D01*
X202308213Y-170814809D01*
X202289445Y-170826683D01*
X202277545Y-170831173D01*
X202248149Y-170845250D01*
X202233558Y-170853373D01*
X202203677Y-170868863D01*
X202195560Y-170872881D01*
X202157827Y-170891776D01*
X202108076Y-170916879D01*
X202054365Y-170944106D01*
X202004756Y-170969375D01*
X201967309Y-170988601D01*
X201956893Y-170993678D01*
X201928632Y-171003958D01*
X201913307Y-171004064D01*
X201910106Y-171002037D01*
X201905077Y-171010659D01*
X201902459Y-171017922D01*
X201884802Y-171025483D01*
X201861995Y-171030263D01*
X201830800Y-171043331D01*
X201807995Y-171054439D01*
X201758803Y-171075535D01*
X201697549Y-171099629D01*
X201629325Y-171124938D01*
X201559224Y-171149682D01*
X201492338Y-171172079D01*
X201433757Y-171190348D01*
X201388574Y-171202707D01*
X201361881Y-171207376D01*
X201356090Y-171208193D01*
X201345998Y-171218196D01*
X201345899Y-171219690D01*
X201336468Y-171226351D01*
X201326395Y-171226740D01*
X201296957Y-171231408D01*
X201257053Y-171239618D01*
X201230391Y-171245402D01*
X201181340Y-171255198D01*
X201142696Y-171261921D01*
X201142573Y-171261939D01*
X201101887Y-171268429D01*
X201066458Y-171274766D01*
X201045616Y-171278599D01*
X201010472Y-171284032D01*
X200965929Y-171289734D01*
X200908006Y-171296166D01*
X200832721Y-171303789D01*
X200736093Y-171313066D01*
X200701568Y-171315636D01*
X200635871Y-171318610D01*
X200556891Y-171320664D01*
X200470152Y-171321794D01*
X200381181Y-171321996D01*
X200295503Y-171321267D01*
X200218643Y-171319604D01*
X200156128Y-171317003D01*
X200113482Y-171313460D01*
X200027415Y-171302061D01*
X199948436Y-171290924D01*
X199884953Y-171280929D01*
X199831765Y-171271185D01*
X199783671Y-171260806D01*
X199735468Y-171248903D01*
X199715435Y-171243826D01*
X199684642Y-171236390D01*
X199650983Y-171227428D01*
X199587421Y-171207107D01*
X199513228Y-171180644D01*
X199435746Y-171150797D01*
X199362315Y-171120324D01*
X199300275Y-171091983D01*
X199261636Y-171073269D01*
X199217270Y-171052302D01*
X199185433Y-171037889D01*
X199171244Y-171032395D01*
X199166635Y-171030402D01*
X199144568Y-171017062D01*
X199109469Y-170993982D01*
X199066417Y-170964455D01*
X199026375Y-170934973D01*
X198987705Y-170899606D01*
X198969818Y-170869842D01*
X198971287Y-170842883D01*
X198990683Y-170815930D01*
X198993930Y-170813132D01*
X199025806Y-170802926D01*
X199075029Y-170804529D01*
X199137425Y-170817457D01*
X199208820Y-170841225D01*
X199213744Y-170843104D01*
X199254948Y-170856678D01*
X199290536Y-170865389D01*
X199316640Y-170871209D01*
X199337835Y-170879014D01*
X199340350Y-170880190D01*
X199364126Y-170887028D01*
X199406467Y-170896805D01*
X199462223Y-170908502D01*
X199526245Y-170921097D01*
X199593386Y-170933570D01*
X199658497Y-170944901D01*
X199716428Y-170954068D01*
X199805620Y-170964698D01*
X199915391Y-170973083D01*
X200033813Y-170978268D01*
X200155242Y-170980243D01*
X200274038Y-170978995D01*
X200384559Y-170974514D01*
X200481161Y-170966787D01*
X200558204Y-170955803D01*
X200582326Y-170951108D01*
X200621736Y-170943325D01*
X200656446Y-170936833D01*
X200696905Y-170929851D01*
X200700864Y-170929188D01*
X200731248Y-170923135D01*
X200747730Y-170918183D01*
X200748814Y-170917639D01*
X200767974Y-170912366D01*
X200799625Y-170906259D01*
X200808147Y-170904836D01*
X200844320Y-170898349D01*
X200876033Y-170891319D01*
X200910408Y-170881813D01*
X200954567Y-170867898D01*
X201015633Y-170847642D01*
X201038879Y-170839862D01*
X201091374Y-170822362D01*
X201126327Y-170810905D01*
X201148590Y-170803958D01*
X201163017Y-170799987D01*
X201174462Y-170797459D01*
X201175747Y-170797139D01*
X201196158Y-170787954D01*
X201225288Y-170771356D01*
X201229280Y-170768917D01*
X201256674Y-170753716D01*
X201273077Y-170747164D01*
X201275154Y-170746818D01*
X201297174Y-170738737D01*
X201334157Y-170722307D01*
X201379917Y-170700582D01*
X201428272Y-170676613D01*
X201473037Y-170653454D01*
X201508029Y-170634158D01*
X201527063Y-170621778D01*
X201541480Y-170611279D01*
X201549300Y-170611275D01*
X201549364Y-170611792D01*
X201560281Y-170611965D01*
X201584242Y-170601620D01*
X201604723Y-170591025D01*
X201644690Y-170570870D01*
X201696040Y-170545287D01*
X201752601Y-170517364D01*
X201797999Y-170494988D01*
X201851221Y-170468370D01*
X201898551Y-170443946D01*
X201943914Y-170419487D01*
X201991235Y-170392763D01*
X202044439Y-170361544D01*
X202107453Y-170323602D01*
X202184202Y-170276707D01*
X202278610Y-170218629D01*
X202290149Y-170211284D01*
X202329986Y-170183983D01*
X202369771Y-170154613D01*
X202381498Y-170145703D01*
X202428215Y-170112028D01*
X202473428Y-170081542D01*
X202481413Y-170076139D01*
X202511144Y-170054502D01*
X202553479Y-170022573D01*
X202604314Y-169983564D01*
X202659545Y-169940684D01*
X202715071Y-169897144D01*
X202766788Y-169856155D01*
X202810593Y-169820926D01*
X202842382Y-169794668D01*
X202858054Y-169780593D01*
X202858287Y-169780344D01*
X202871645Y-169768558D01*
X202898846Y-169745767D01*
X202934292Y-169716664D01*
X202976073Y-169680800D01*
X203030138Y-169631061D01*
X203089275Y-169574108D01*
X203149504Y-169513990D01*
X203206841Y-169454755D01*
X203257304Y-169400451D01*
X203296912Y-169355127D01*
X203321681Y-169322831D01*
X203357115Y-169264358D01*
X203397302Y-169182107D01*
X203422959Y-169106679D01*
X203432024Y-169043292D01*
X203431913Y-169036339D01*
X203418678Y-168963865D01*
X203385284Y-168886453D01*
X203334430Y-168809166D01*
X203268815Y-168737067D01*
X203239201Y-168710895D01*
X203195613Y-168676028D01*
X203149761Y-168642287D01*
X203107077Y-168613476D01*
X203072990Y-168593400D01*
X203052934Y-168585863D01*
X203046127Y-168585054D01*
X203035943Y-168576258D01*
X203035655Y-168575009D01*
X203022139Y-168563544D01*
X202994647Y-168550013D01*
X202993126Y-168549399D01*
X202958697Y-168534716D01*
X202936004Y-168523960D01*
X203936534Y-168523960D01*
X203938086Y-168530311D01*
X203941828Y-168556715D01*
X203942744Y-168562186D01*
X203951587Y-168566317D01*
X203961321Y-168570043D01*
X203974000Y-168591220D01*
X203985251Y-168623174D01*
X203991782Y-168658366D01*
X203993064Y-168663818D01*
X204002794Y-168667732D01*
X204005116Y-168668062D01*
X204015093Y-168684048D01*
X204028915Y-168718816D01*
X204044977Y-168768012D01*
X204061671Y-168827284D01*
X204063934Y-168844821D01*
X204065991Y-168884325D01*
X204067264Y-168937767D01*
X204067751Y-168998837D01*
X204067450Y-169061230D01*
X204066358Y-169118635D01*
X204064473Y-169164747D01*
X204061793Y-169193257D01*
X204061681Y-169193894D01*
X204052296Y-169228258D01*
X204040131Y-169252481D01*
X204034080Y-169262811D01*
X204036315Y-169276239D01*
X204037972Y-169276840D01*
X204059188Y-169279443D01*
X204099612Y-169281934D01*
X204154222Y-169284057D01*
X204217997Y-169285553D01*
X204233204Y-169285831D01*
X204295620Y-169287570D01*
X204347935Y-169289962D01*
X204385044Y-169292728D01*
X204401844Y-169295589D01*
X204420268Y-169301232D01*
X204451397Y-169305620D01*
X204478844Y-169310411D01*
X204495901Y-169318809D01*
X204504588Y-169326495D01*
X204526932Y-169333660D01*
X204567627Y-169338498D01*
X204587930Y-169342227D01*
X204598824Y-169349534D01*
X204605307Y-169356951D01*
X204627414Y-169367128D01*
X204645397Y-169372874D01*
X204674140Y-169381995D01*
X204690739Y-169387085D01*
X204703652Y-169390764D01*
X204751301Y-169408576D01*
X204827689Y-169458175D01*
X204841530Y-169469251D01*
X204858071Y-169479884D01*
X204859621Y-169475985D01*
X204858048Y-169472321D01*
X204865712Y-169472183D01*
X204887561Y-169485515D01*
X204894041Y-169490045D01*
X204920424Y-169506692D01*
X204935670Y-169513427D01*
X204944062Y-169515932D01*
X204965192Y-169530275D01*
X204987764Y-169551163D01*
X205004445Y-169571437D01*
X205007900Y-169583936D01*
X205005680Y-169587623D01*
X205015279Y-169584400D01*
X205020338Y-169583230D01*
X205041612Y-169591553D01*
X205068053Y-169611925D01*
X205093065Y-169637838D01*
X205110052Y-169662783D01*
X205112417Y-169680251D01*
X205109135Y-169687814D01*
X205118143Y-169685977D01*
X205123027Y-169684799D01*
X205143769Y-169693240D01*
X205169831Y-169713758D01*
X205194626Y-169739765D01*
X205211567Y-169764675D01*
X205214068Y-169781902D01*
X205210785Y-169789465D01*
X205219794Y-169787628D01*
X205224678Y-169786449D01*
X205245420Y-169794891D01*
X205271482Y-169815408D01*
X205296277Y-169841416D01*
X205313218Y-169866326D01*
X205315719Y-169883552D01*
X205312567Y-169890452D01*
X205319733Y-169890336D01*
X205320957Y-169889761D01*
X205337010Y-169895556D01*
X205356326Y-169916963D01*
X205361514Y-169924808D01*
X205385883Y-169964195D01*
X205405274Y-169999389D01*
X205416726Y-170024687D01*
X205417279Y-170034387D01*
X205416513Y-170035831D01*
X205424643Y-170050192D01*
X205443917Y-170074967D01*
X205447495Y-170079292D01*
X205474364Y-170117156D01*
X205491949Y-170151489D01*
X205496277Y-170174716D01*
X205496221Y-170175436D01*
X205502663Y-170191390D01*
X205518176Y-170217576D01*
X205522038Y-170223640D01*
X205531002Y-170242336D01*
X205524530Y-170243422D01*
X205524381Y-170243336D01*
X205518936Y-170243808D01*
X205529592Y-170258772D01*
X205542378Y-170278193D01*
X205543358Y-170292722D01*
X205541421Y-170295173D01*
X205546912Y-170301221D01*
X205554332Y-170306857D01*
X205562352Y-170334564D01*
X205567747Y-170386430D01*
X205568987Y-170391903D01*
X205579331Y-170395209D01*
X205586118Y-170396681D01*
X205591508Y-170414828D01*
X205592601Y-170431236D01*
X205594685Y-170456873D01*
X205601311Y-170469792D01*
X205622100Y-170476811D01*
X205647060Y-170471452D01*
X205665936Y-170454112D01*
X205677660Y-170438666D01*
X205691184Y-170434398D01*
X205699730Y-170435553D01*
X205719186Y-170425224D01*
X205733873Y-170412168D01*
X205760768Y-170390165D01*
X205771542Y-170382026D01*
X205780160Y-170377968D01*
X205774523Y-170390165D01*
X205772863Y-170393908D01*
X205779111Y-170391363D01*
X205797553Y-170373567D01*
X205804343Y-170366823D01*
X205828185Y-170348993D01*
X205844103Y-170345728D01*
X205848898Y-170347781D01*
X205856753Y-170341417D01*
X205858725Y-170337092D01*
X205876665Y-170321931D01*
X205907240Y-170304310D01*
X205922952Y-170297094D01*
X205945127Y-170289957D01*
X205950744Y-170293453D01*
X205950275Y-170294470D01*
X205953717Y-170294631D01*
X205969003Y-170278985D01*
X205990330Y-170259092D01*
X206007525Y-170250395D01*
X206012599Y-170249301D01*
X206036076Y-170238137D01*
X206067350Y-170218810D01*
X206080627Y-170210298D01*
X206108188Y-170196093D01*
X206123653Y-170193258D01*
X206131801Y-170193396D01*
X206148999Y-170180510D01*
X206159433Y-170171061D01*
X206174520Y-170167871D01*
X206180683Y-170168231D01*
X206191970Y-170154429D01*
X206197822Y-170145220D01*
X206215608Y-170138548D01*
X206216139Y-170138652D01*
X206235987Y-170132379D01*
X206260714Y-170113268D01*
X206262388Y-170111623D01*
X206285217Y-170094415D01*
X206300854Y-170091182D01*
X206304388Y-170092662D01*
X206316273Y-170085401D01*
X206328270Y-170076099D01*
X206355172Y-170069870D01*
X206380119Y-170063392D01*
X206396575Y-170049382D01*
X206402668Y-170041507D01*
X206422774Y-170039208D01*
X206433525Y-170040528D01*
X206449307Y-170028165D01*
X206449968Y-170026739D01*
X206468165Y-170012077D01*
X206499198Y-170001638D01*
X206501105Y-170001266D01*
X206534546Y-169990424D01*
X206556590Y-169976019D01*
X206566107Y-169967728D01*
X206582455Y-169965392D01*
X206586015Y-169967009D01*
X206593722Y-169961017D01*
X206595821Y-169955626D01*
X206612781Y-169947560D01*
X206619978Y-169946761D01*
X206650900Y-169943325D01*
X206659569Y-169941359D01*
X206669960Y-169932101D01*
X206676434Y-169924276D01*
X206698549Y-169913853D01*
X206718333Y-169907478D01*
X206739845Y-169900407D01*
X206752397Y-169896752D01*
X206780316Y-169889895D01*
X206800029Y-169884121D01*
X206834318Y-169869646D01*
X206851213Y-169862317D01*
X206860555Y-169862851D01*
X206868041Y-169863577D01*
X206889145Y-169854246D01*
X206910140Y-169844640D01*
X206927778Y-169841264D01*
X206940874Y-169839426D01*
X206965897Y-169828531D01*
X206986035Y-169818094D01*
X207003502Y-169810888D01*
X207016208Y-169806289D01*
X207017175Y-169805677D01*
X207036258Y-169800218D01*
X207069841Y-169794172D01*
X207108454Y-169789284D01*
X207138899Y-169784068D01*
X207162456Y-169775793D01*
X207169780Y-169772137D01*
X207178214Y-169773604D01*
X207185737Y-169774461D01*
X207206803Y-169765064D01*
X207228895Y-169754467D01*
X207254452Y-169746549D01*
X207254618Y-169746528D01*
X207279931Y-169741111D01*
X207313851Y-169731587D01*
X207316881Y-169730669D01*
X207345386Y-169724490D01*
X207360654Y-169725515D01*
X207365584Y-169727299D01*
X207383847Y-169721399D01*
X207400899Y-169714314D01*
X207432341Y-169708103D01*
X207446083Y-169706724D01*
X207506593Y-169698103D01*
X207591171Y-169683184D01*
X207605203Y-169680983D01*
X207649714Y-169676104D01*
X207705831Y-169671592D01*
X207764337Y-169668046D01*
X207816017Y-169666066D01*
X207851651Y-169666250D01*
X207874990Y-169667134D01*
X207902476Y-169666838D01*
X207920699Y-169666313D01*
X207953302Y-169666838D01*
X207976617Y-169667363D01*
X208004127Y-169666838D01*
X208022349Y-169666313D01*
X208054952Y-169666838D01*
X208078267Y-169667363D01*
X208105778Y-169666838D01*
X208124000Y-169666313D01*
X208156603Y-169666838D01*
X208179648Y-169667406D01*
X208204252Y-169667026D01*
X208207864Y-169666772D01*
X208236018Y-169664859D01*
X208262528Y-169664647D01*
X208307049Y-169666107D01*
X208361544Y-169668860D01*
X208418941Y-169672461D01*
X208472164Y-169676465D01*
X208514139Y-169680423D01*
X208537794Y-169683891D01*
X208541969Y-169684892D01*
X208578491Y-169691557D01*
X208620385Y-169696921D01*
X208631858Y-169698102D01*
X208659963Y-169701611D01*
X208671211Y-169704066D01*
X208671478Y-169704334D01*
X208685548Y-169707132D01*
X208714410Y-169710632D01*
X208717260Y-169710956D01*
X208749195Y-169719121D01*
X208768218Y-169731766D01*
X208773610Y-169739145D01*
X208779020Y-169740671D01*
X208785292Y-169738176D01*
X208811467Y-169740350D01*
X208853450Y-169748268D01*
X208906278Y-169761134D01*
X208929920Y-169766723D01*
X208953927Y-169770692D01*
X208959647Y-169771614D01*
X208969810Y-169779607D01*
X208977967Y-169785403D01*
X209007776Y-169791638D01*
X209055578Y-169796207D01*
X209061323Y-169797287D01*
X209071461Y-169807791D01*
X209073743Y-169812750D01*
X209090928Y-169818379D01*
X209095249Y-169818730D01*
X209122709Y-169825919D01*
X209157637Y-169839467D01*
X209168019Y-169844064D01*
X209196644Y-169856308D01*
X209211231Y-169861850D01*
X209211488Y-169861907D01*
X209227455Y-169867230D01*
X209255703Y-169877690D01*
X209259923Y-169879301D01*
X209307227Y-169897301D01*
X209336898Y-169908302D01*
X209354641Y-169914216D01*
X209366161Y-169916958D01*
X209377163Y-169918442D01*
X209381775Y-169920102D01*
X209382572Y-169933051D01*
X209380226Y-169938035D01*
X209384998Y-169943153D01*
X209399017Y-169943558D01*
X209426172Y-169950650D01*
X209455520Y-169961837D01*
X209478137Y-169973612D01*
X209485093Y-169982468D01*
X209484006Y-169986265D01*
X209494506Y-169993406D01*
X209524318Y-169998361D01*
X209558116Y-170009562D01*
X209580667Y-170023206D01*
X209585051Y-170036033D01*
X209583189Y-170039936D01*
X209588300Y-170044804D01*
X209601837Y-170044403D01*
X209629539Y-170051336D01*
X209658520Y-170063782D01*
X209680150Y-170077790D01*
X209685799Y-170089413D01*
X209682976Y-170095396D01*
X209687465Y-170095077D01*
X209688801Y-170094159D01*
X209708071Y-170095556D01*
X209738017Y-170108894D01*
X209771034Y-170130100D01*
X209799512Y-170155098D01*
X209800243Y-170155882D01*
X209813468Y-170167715D01*
X209813456Y-170162128D01*
X209811586Y-170157716D01*
X209817278Y-170154802D01*
X209841132Y-170168482D01*
X209865849Y-170184772D01*
X209904652Y-170209454D01*
X209932966Y-170225631D01*
X209957729Y-170237405D01*
X209976038Y-170248002D01*
X209986318Y-170261246D01*
X209986331Y-170261561D01*
X209997455Y-170274068D01*
X210023106Y-170287963D01*
X210035635Y-170294620D01*
X210068658Y-170320232D01*
X210100147Y-170353290D01*
X210115489Y-170371068D01*
X210137618Y-170391692D01*
X210150646Y-170397046D01*
X210153046Y-170396422D01*
X210171500Y-170403417D01*
X210197492Y-170422190D01*
X210203178Y-170426931D01*
X210230373Y-170445960D01*
X210249254Y-170453681D01*
X210261481Y-170458143D01*
X210281020Y-170476465D01*
X210290244Y-170487146D01*
X210317387Y-170513176D01*
X210351249Y-170541821D01*
X210371934Y-170559840D01*
X210392298Y-170582967D01*
X210396934Y-170597254D01*
X210394809Y-170602681D01*
X210403986Y-170600834D01*
X210410474Y-170599819D01*
X210433492Y-170610645D01*
X210464077Y-170636668D01*
X210477646Y-170651233D01*
X210497133Y-170679048D01*
X210499911Y-170696759D01*
X210496628Y-170704322D01*
X210505637Y-170702485D01*
X210512125Y-170701470D01*
X210535143Y-170712296D01*
X210565728Y-170738319D01*
X210579297Y-170752884D01*
X210598784Y-170780699D01*
X210601562Y-170798410D01*
X210598279Y-170805973D01*
X210607288Y-170804136D01*
X210612163Y-170803094D01*
X210632694Y-170811814D01*
X210658826Y-170832182D01*
X210683899Y-170857722D01*
X210701254Y-170881957D01*
X210704231Y-170898412D01*
X210701808Y-170903676D01*
X210707118Y-170908264D01*
X210714695Y-170910792D01*
X210735547Y-170927663D01*
X210762065Y-170955554D01*
X210777579Y-170973034D01*
X210808716Y-171005732D01*
X210833107Y-171028468D01*
X210833364Y-171028678D01*
X210852817Y-171049943D01*
X210874191Y-171080695D01*
X210893173Y-171113493D01*
X210905453Y-171140899D01*
X210906719Y-171155474D01*
X210906299Y-171156786D01*
X210914837Y-171170406D01*
X210936168Y-171191674D01*
X210971060Y-171222431D01*
X210939295Y-171184697D01*
X210931321Y-171174852D01*
X210922822Y-171161430D01*
X210929752Y-171164006D01*
X210939340Y-171173491D01*
X210961406Y-171199597D01*
X210989412Y-171235230D01*
X211018977Y-171274531D01*
X211045719Y-171311641D01*
X211065257Y-171340700D01*
X211073209Y-171355848D01*
X211073816Y-171357800D01*
X211083249Y-171375844D01*
X211100280Y-171404187D01*
X211101009Y-171405346D01*
X211118277Y-171430206D01*
X211128503Y-171435323D01*
X211136538Y-171423247D01*
X211143271Y-171407004D01*
X211151681Y-171381633D01*
X211160193Y-171346270D01*
X211165499Y-171326872D01*
X211174521Y-171304765D01*
X211181307Y-171287734D01*
X211188723Y-171257435D01*
X211196692Y-171232149D01*
X211210080Y-171213367D01*
X211215942Y-171208753D01*
X211214102Y-171203566D01*
X211210630Y-171199715D01*
X211218834Y-171184312D01*
X211226554Y-171173124D01*
X211226485Y-171165253D01*
X211225235Y-171162808D01*
X211230462Y-171144594D01*
X211244247Y-171114427D01*
X211251782Y-171098887D01*
X211261761Y-171073589D01*
X211262009Y-171063602D01*
X211259861Y-171060822D01*
X211267994Y-171046550D01*
X211274141Y-171036416D01*
X211273785Y-171021137D01*
X211271705Y-171017877D01*
X211280248Y-171012776D01*
X211288877Y-171007996D01*
X211295072Y-170987364D01*
X211296942Y-170972616D01*
X211305075Y-170961951D01*
X211311474Y-170956564D01*
X211317099Y-170935116D01*
X211321830Y-170915814D01*
X211338862Y-170886467D01*
X211350726Y-170870223D01*
X211358604Y-170849139D01*
X211358726Y-170847267D01*
X211365755Y-170824230D01*
X211380276Y-170792961D01*
X211383079Y-170787578D01*
X211395614Y-170759293D01*
X211399336Y-170742766D01*
X211399095Y-170740285D01*
X211409430Y-170733237D01*
X211414750Y-170731619D01*
X211422136Y-170715733D01*
X211425049Y-170704044D01*
X211441196Y-170682411D01*
X211451010Y-170670779D01*
X211460255Y-170642338D01*
X211463288Y-170628085D01*
X211479315Y-170610768D01*
X211489038Y-170603840D01*
X211498374Y-170580760D01*
X211501059Y-170568152D01*
X211517434Y-170550753D01*
X211526240Y-170545335D01*
X211536493Y-170525536D01*
X211539395Y-170513661D01*
X211555553Y-170491816D01*
X211565591Y-170480639D01*
X211574612Y-170457146D01*
X211576480Y-170448973D01*
X211590150Y-170422365D01*
X211612731Y-170390165D01*
X211624388Y-170374465D01*
X211643361Y-170343197D01*
X211650850Y-170321628D01*
X211652537Y-170311598D01*
X211663829Y-170301221D01*
X211677381Y-170291098D01*
X211692130Y-170266278D01*
X211711900Y-170233407D01*
X211739506Y-170201254D01*
X211745181Y-170195811D01*
X211757952Y-170181544D01*
X211754533Y-170180475D01*
X211751477Y-170178791D01*
X211757535Y-170163088D01*
X211771450Y-170137973D01*
X211789325Y-170109864D01*
X211807265Y-170085182D01*
X211821373Y-170070346D01*
X211827901Y-170062781D01*
X211836673Y-170038580D01*
X211844342Y-170020509D01*
X211866156Y-169997895D01*
X211882444Y-169981691D01*
X211892271Y-169956200D01*
X211895306Y-169941942D01*
X211911331Y-169924625D01*
X211920288Y-169919892D01*
X211930390Y-169906336D01*
X211932267Y-169900243D01*
X211944995Y-169876729D01*
X211965564Y-169844094D01*
X211989021Y-169809731D01*
X212010415Y-169781033D01*
X212024794Y-169765393D01*
X212031160Y-169758037D01*
X212039967Y-169733976D01*
X212044275Y-169720621D01*
X212062900Y-169696761D01*
X212072558Y-169687135D01*
X212074198Y-169674176D01*
X212072153Y-169670956D01*
X212080749Y-169665903D01*
X212087737Y-169663590D01*
X212095573Y-169646445D01*
X212097729Y-169636654D01*
X212114632Y-169619673D01*
X212123457Y-169614348D01*
X212133692Y-169595408D01*
X212134621Y-169588911D01*
X212148361Y-169569392D01*
X212156083Y-169566301D01*
X212152751Y-169576958D01*
X212148551Y-169586211D01*
X212157349Y-169584397D01*
X212162975Y-169579606D01*
X212165838Y-169564868D01*
X212165558Y-169564329D01*
X212169050Y-169547457D01*
X212184690Y-169522446D01*
X212185736Y-169521111D01*
X212202859Y-169497211D01*
X212209930Y-169483411D01*
X212210228Y-169482172D01*
X212220980Y-169467149D01*
X212242380Y-169444013D01*
X212246733Y-169439442D01*
X212263703Y-169414685D01*
X212265829Y-169397000D01*
X212262863Y-169390368D01*
X212270584Y-169390938D01*
X212280752Y-169390726D01*
X212292467Y-169373828D01*
X212301145Y-169357375D01*
X212325148Y-169335077D01*
X212339694Y-169324136D01*
X212349700Y-169305808D01*
X212352648Y-169296829D01*
X212368744Y-169271804D01*
X212394172Y-169241126D01*
X212410749Y-169222675D01*
X212430814Y-169199003D01*
X212438644Y-169187702D01*
X212443239Y-169180080D01*
X212460487Y-169155782D01*
X212487546Y-169119164D01*
X212521236Y-169074584D01*
X212549091Y-169038500D01*
X212577428Y-169002874D01*
X212596709Y-168979955D01*
X212603827Y-168973544D01*
X212603867Y-168973890D01*
X212612736Y-168970442D01*
X212632416Y-168954063D01*
X212652502Y-168930963D01*
X212661240Y-168912037D01*
X212665840Y-168901126D01*
X212684316Y-168875838D01*
X212712066Y-168844993D01*
X212732540Y-168823495D01*
X212761033Y-168791624D01*
X212779013Y-168768990D01*
X212787730Y-168757302D01*
X212786579Y-168762539D01*
X212783421Y-168772326D01*
X212792459Y-168771318D01*
X212799942Y-168763420D01*
X212807129Y-168739001D01*
X212810459Y-168725751D01*
X212829365Y-168717515D01*
X212841532Y-168715485D01*
X212850164Y-168699013D01*
X212854513Y-168683388D01*
X212873730Y-168663133D01*
X212878858Y-168659986D01*
X212892239Y-168653959D01*
X212889086Y-168663126D01*
X212885448Y-168671527D01*
X212894976Y-168669132D01*
X212900985Y-168663503D01*
X212904285Y-168643305D01*
X212903951Y-168628971D01*
X212917533Y-168608086D01*
X212939910Y-168598764D01*
X212944089Y-168601438D01*
X212934192Y-168612438D01*
X212930223Y-168615267D01*
X212921578Y-168622989D01*
X212934192Y-168620405D01*
X212942868Y-168615678D01*
X212951815Y-168595995D01*
X212956192Y-168581155D01*
X212975381Y-168561482D01*
X212980509Y-168558335D01*
X212993890Y-168552308D01*
X212990737Y-168561475D01*
X212987099Y-168569876D01*
X212996627Y-168567481D01*
X213002636Y-168561852D01*
X213005936Y-168541654D01*
X213005602Y-168527320D01*
X213019184Y-168506435D01*
X213041561Y-168497113D01*
X213045740Y-168499787D01*
X213035843Y-168510787D01*
X213031874Y-168513616D01*
X213023229Y-168521338D01*
X213035843Y-168518754D01*
X213044519Y-168514027D01*
X213053466Y-168494344D01*
X213057843Y-168479504D01*
X213077032Y-168459831D01*
X213082160Y-168456684D01*
X213095541Y-168450657D01*
X213092388Y-168459825D01*
X213088750Y-168468226D01*
X213098278Y-168465831D01*
X213104287Y-168460202D01*
X213107587Y-168440003D01*
X213107253Y-168425670D01*
X213120835Y-168404784D01*
X213143212Y-168395462D01*
X213147394Y-168397837D01*
X213137494Y-168407974D01*
X213127259Y-168416500D01*
X213134632Y-168420486D01*
X213148092Y-168413108D01*
X213162437Y-168390149D01*
X213173299Y-168368649D01*
X213189499Y-168350066D01*
X213198193Y-168346575D01*
X213194298Y-168357754D01*
X213193607Y-168359687D01*
X213202894Y-168353360D01*
X213225372Y-168333193D01*
X213257627Y-168302182D01*
X213269276Y-168290616D01*
X213300168Y-168258758D01*
X213320615Y-168235815D01*
X213326673Y-168226131D01*
X213297984Y-168210664D01*
X213261421Y-168195014D01*
X213232248Y-168185847D01*
X213217418Y-168182861D01*
X213201025Y-168178727D01*
X213185143Y-168177755D01*
X213182772Y-168177729D01*
X213175613Y-168166553D01*
X213175275Y-168163308D01*
X213166083Y-168156766D01*
X213159648Y-168156331D01*
X213134468Y-168148862D01*
X213099375Y-168135087D01*
X213080332Y-168127177D01*
X213047343Y-168114906D01*
X213028035Y-168109740D01*
X213016360Y-168106273D01*
X212993093Y-168091744D01*
X212980088Y-168083442D01*
X212971907Y-168085583D01*
X212967843Y-168087591D01*
X212954781Y-168074648D01*
X212941088Y-168061821D01*
X212911279Y-168048540D01*
X212888838Y-168040886D01*
X212859321Y-168021667D01*
X212839312Y-168008329D01*
X212822075Y-168006339D01*
X212812554Y-168007236D01*
X212794306Y-167994878D01*
X212783405Y-167984921D01*
X212761100Y-167975958D01*
X212753808Y-167975002D01*
X212743597Y-167965504D01*
X212738993Y-167959266D01*
X212717094Y-167943942D01*
X212683242Y-167925628D01*
X212662678Y-167914255D01*
X212615143Y-167880841D01*
X212574382Y-167843961D01*
X212553528Y-167822276D01*
X212537064Y-167807194D01*
X212533836Y-167807599D01*
X212536626Y-167814595D01*
X212534834Y-167823482D01*
X212530334Y-167821936D01*
X212508904Y-167808419D01*
X212476605Y-167784717D01*
X212439170Y-167755388D01*
X212402334Y-167724990D01*
X212371830Y-167698082D01*
X212353392Y-167679223D01*
X212332648Y-167657153D01*
X212305752Y-167636455D01*
X212304759Y-167635844D01*
X212287523Y-167621574D01*
X212256490Y-167593037D01*
X212214576Y-167553137D01*
X212211645Y-167550295D01*
X212222636Y-167550295D01*
X212228989Y-167556648D01*
X212235343Y-167550295D01*
X212228989Y-167543942D01*
X212222636Y-167550295D01*
X212211645Y-167550295D01*
X212164696Y-167504776D01*
X212109766Y-167450856D01*
X212107535Y-167448644D01*
X212120985Y-167448644D01*
X212127339Y-167454998D01*
X212133692Y-167448644D01*
X212127339Y-167442291D01*
X212120985Y-167448644D01*
X212107535Y-167448644D01*
X212052700Y-167394280D01*
X212005453Y-167346994D01*
X212019335Y-167346994D01*
X212025688Y-167353347D01*
X212032041Y-167346994D01*
X212025688Y-167340640D01*
X212019335Y-167346994D01*
X212005453Y-167346994D01*
X211996416Y-167337949D01*
X211943827Y-167284768D01*
X211905366Y-167245343D01*
X211917684Y-167245343D01*
X211924037Y-167251696D01*
X211930390Y-167245343D01*
X211924037Y-167238990D01*
X211917684Y-167245343D01*
X211905366Y-167245343D01*
X211897849Y-167237637D01*
X211861398Y-167199459D01*
X211837390Y-167173138D01*
X211828739Y-167161574D01*
X211828716Y-167161306D01*
X211819383Y-167147912D01*
X211796417Y-167122715D01*
X211764564Y-167090939D01*
X211757415Y-167083956D01*
X211724643Y-167049965D01*
X211686639Y-167008270D01*
X211647147Y-166963268D01*
X211609912Y-166919356D01*
X211578679Y-166880929D01*
X211557194Y-166852383D01*
X211549200Y-166838115D01*
X211550974Y-166835827D01*
X211565082Y-166840038D01*
X211567705Y-166841200D01*
X211566045Y-166834692D01*
X211550161Y-166815376D01*
X211545922Y-166810784D01*
X211524969Y-166790005D01*
X211513249Y-166781561D01*
X211516005Y-166789493D01*
X211531347Y-166808773D01*
X211546861Y-166826688D01*
X211546366Y-166829840D01*
X211526963Y-166818423D01*
X211508161Y-166803033D01*
X211498374Y-166785393D01*
X211493612Y-166773869D01*
X211475154Y-166748012D01*
X211447549Y-166716496D01*
X211425858Y-166692671D01*
X211404847Y-166666720D01*
X211396723Y-166652429D01*
X211396221Y-166649556D01*
X211383267Y-166641791D01*
X211379191Y-166641198D01*
X211376312Y-166631271D01*
X211373827Y-166623717D01*
X211356901Y-166601180D01*
X211327521Y-166568429D01*
X211293357Y-166533787D01*
X211307779Y-166533787D01*
X211314132Y-166540140D01*
X211320485Y-166533787D01*
X211314132Y-166527434D01*
X211307779Y-166533787D01*
X211293357Y-166533787D01*
X211289247Y-166529620D01*
X211260332Y-166500981D01*
X211229166Y-166468688D01*
X211209702Y-166446645D01*
X211205291Y-166438489D01*
X211205670Y-166437618D01*
X211195772Y-166424524D01*
X211171506Y-166398102D01*
X211136018Y-166361441D01*
X211092454Y-166317630D01*
X211043959Y-166269757D01*
X210993680Y-166220911D01*
X210944763Y-166174181D01*
X210900354Y-166132654D01*
X210863599Y-166099419D01*
X210837644Y-166077565D01*
X210816098Y-166060761D01*
X210774460Y-166027916D01*
X210740602Y-166000778D01*
X210732154Y-165994102D01*
X210705786Y-165975801D01*
X210689777Y-165968549D01*
X210686948Y-165970860D01*
X210697874Y-165981061D01*
X210706244Y-165988226D01*
X210702606Y-165993572D01*
X210692412Y-165990670D01*
X210672461Y-165974707D01*
X210661371Y-165964629D01*
X210638741Y-165955648D01*
X210629007Y-165953067D01*
X210613116Y-165935523D01*
X210605086Y-165922806D01*
X210594649Y-165932346D01*
X210586878Y-165941904D01*
X210583711Y-165933412D01*
X210581992Y-165926723D01*
X210566013Y-165917529D01*
X210554435Y-165914678D01*
X210532807Y-165898609D01*
X210522038Y-165889168D01*
X210505980Y-165886566D01*
X210504275Y-165887272D01*
X210483727Y-165885229D01*
X210453417Y-165874216D01*
X210452246Y-165873677D01*
X210414145Y-165859251D01*
X210380215Y-165850996D01*
X210357163Y-165846383D01*
X210332566Y-165837042D01*
X210324948Y-165833541D01*
X210316489Y-165837364D01*
X210314195Y-165839811D01*
X210303977Y-165828584D01*
X210294973Y-165817824D01*
X210291465Y-165826158D01*
X210289300Y-165833897D01*
X210275388Y-165832705D01*
X210273759Y-165831847D01*
X210251375Y-165827070D01*
X210213965Y-165824038D01*
X210168261Y-165822716D01*
X210120995Y-165823073D01*
X210078899Y-165825074D01*
X210048704Y-165828687D01*
X210037144Y-165833879D01*
X210036887Y-165836636D01*
X210029642Y-165838024D01*
X210026094Y-165836716D01*
X210004101Y-165839048D01*
X209971110Y-165848527D01*
X209958429Y-165852670D01*
X209926760Y-165859945D01*
X209908637Y-165859459D01*
X209901552Y-165858703D01*
X209889571Y-165872251D01*
X209883447Y-165881796D01*
X209862072Y-165892116D01*
X209843246Y-165897381D01*
X209816775Y-165914352D01*
X209811228Y-165919105D01*
X209798571Y-165927361D01*
X209801183Y-165917529D01*
X209802581Y-165913691D01*
X209795509Y-165918708D01*
X209777486Y-165939186D01*
X209769199Y-165948519D01*
X209745050Y-165968594D01*
X209727405Y-165973551D01*
X209713388Y-165974508D01*
X209692931Y-165990012D01*
X209683925Y-166001782D01*
X209683125Y-166006062D01*
X209700425Y-165993767D01*
X209713412Y-165984235D01*
X209719247Y-165982111D01*
X209708399Y-165996943D01*
X209695936Y-166010308D01*
X209681154Y-166019180D01*
X209680905Y-166019186D01*
X209664837Y-166027812D01*
X209640658Y-166048114D01*
X209615348Y-166073191D01*
X209595884Y-166096142D01*
X209589245Y-166110067D01*
X209587415Y-166115911D01*
X209570185Y-166121025D01*
X209567336Y-166121066D01*
X209555327Y-166123690D01*
X209567008Y-166133537D01*
X209569442Y-166135129D01*
X209578546Y-166143950D01*
X209563832Y-166146049D01*
X209552333Y-166147815D01*
X209544772Y-166156670D01*
X209544520Y-166159876D01*
X209533015Y-166177870D01*
X209509830Y-166202168D01*
X209499754Y-166211700D01*
X209485786Y-166226859D01*
X209487594Y-166229110D01*
X209494948Y-166226885D01*
X209503477Y-166234438D01*
X209503000Y-166238119D01*
X209491012Y-166247894D01*
X209481017Y-166255378D01*
X209470806Y-166278740D01*
X209461876Y-166299821D01*
X209445366Y-166316379D01*
X209437455Y-166322479D01*
X209435124Y-166342604D01*
X209436328Y-166353880D01*
X209422277Y-166369829D01*
X209412493Y-166375446D01*
X209408112Y-166387556D01*
X209408661Y-166395107D01*
X209396662Y-166412090D01*
X209395876Y-166412777D01*
X209381507Y-166435815D01*
X209371044Y-166469481D01*
X209370381Y-166472748D01*
X209359266Y-166503031D01*
X209344516Y-166519373D01*
X209336161Y-166525526D01*
X209333473Y-166545905D01*
X209334810Y-166556649D01*
X209323299Y-166572105D01*
X209310899Y-166585173D01*
X209302859Y-166612796D01*
X209297116Y-166637521D01*
X209284230Y-166656768D01*
X209277731Y-166661726D01*
X209278197Y-166667009D01*
X209279945Y-166669536D01*
X209275511Y-166687854D01*
X209262056Y-166718029D01*
X209254506Y-166733530D01*
X209244265Y-166758855D01*
X209243603Y-166768854D01*
X209244427Y-166769258D01*
X209240298Y-166781417D01*
X209225178Y-166805231D01*
X209221928Y-166809932D01*
X209208177Y-166834796D01*
X209206282Y-166848615D01*
X209206742Y-166861042D01*
X209196988Y-166885300D01*
X209185845Y-166907673D01*
X209178447Y-166927684D01*
X209177184Y-166932432D01*
X209168063Y-166957144D01*
X209153704Y-166991216D01*
X209148053Y-167004284D01*
X209135502Y-167036040D01*
X209129861Y-167054747D01*
X209125189Y-167069596D01*
X209112250Y-167096043D01*
X209103181Y-167115335D01*
X209103227Y-167124632D01*
X209104573Y-167130836D01*
X209096432Y-167150870D01*
X209087729Y-167170061D01*
X209077223Y-167203938D01*
X209071433Y-167220950D01*
X209055875Y-167241038D01*
X209046294Y-167248796D01*
X209055685Y-167251501D01*
X209059570Y-167251785D01*
X209065198Y-167258917D01*
X209055685Y-167280285D01*
X209042661Y-167300524D01*
X209026988Y-167318210D01*
X209022620Y-167322089D01*
X209024138Y-167327739D01*
X209025563Y-167328464D01*
X209023798Y-167342659D01*
X209011964Y-167369230D01*
X209008761Y-167375269D01*
X208994813Y-167402515D01*
X208988305Y-167416878D01*
X208986609Y-167421983D01*
X208978390Y-167442291D01*
X208973553Y-167455497D01*
X208965547Y-167486763D01*
X208958715Y-167512998D01*
X208946339Y-167547946D01*
X208936119Y-167575904D01*
X208931691Y-167594235D01*
X208928713Y-167600776D01*
X208910813Y-167612767D01*
X208900638Y-167618391D01*
X208897517Y-167628361D01*
X208896302Y-167641946D01*
X208885498Y-167671618D01*
X208867387Y-167710653D01*
X208849736Y-167748291D01*
X208839665Y-167775256D01*
X208839387Y-167785645D01*
X208840213Y-167785811D01*
X208836131Y-167794474D01*
X208817334Y-167812161D01*
X208812943Y-167815839D01*
X208799199Y-167828891D01*
X208802389Y-167829608D01*
X208807778Y-167827039D01*
X208812626Y-167829012D01*
X208802509Y-167847565D01*
X208789345Y-167864733D01*
X208775408Y-167874307D01*
X208772217Y-167875105D01*
X208772575Y-167886550D01*
X208772955Y-167887285D01*
X208768997Y-167904484D01*
X208751159Y-167927776D01*
X208750122Y-167928824D01*
X208731357Y-167952977D01*
X208725475Y-167971124D01*
X208725477Y-167971134D01*
X208718292Y-167987507D01*
X208696411Y-168006695D01*
X208695650Y-168007198D01*
X208675726Y-168025755D01*
X208672081Y-168040898D01*
X208668941Y-168053366D01*
X208650877Y-168077747D01*
X208621660Y-168107563D01*
X208594765Y-168133990D01*
X208571969Y-168160484D01*
X208563207Y-168176597D01*
X208562343Y-168182001D01*
X208549750Y-168191966D01*
X208545154Y-168192964D01*
X208544147Y-168204672D01*
X208544101Y-168212154D01*
X208527807Y-168217379D01*
X208526697Y-168217398D01*
X208497281Y-168228771D01*
X208472180Y-168254197D01*
X208461556Y-168283532D01*
X208461073Y-168288757D01*
X208455693Y-168299970D01*
X208450924Y-168309910D01*
X208434082Y-168324094D01*
X208419169Y-168323233D01*
X208405558Y-168323922D01*
X208385617Y-168338223D01*
X208367688Y-168358822D01*
X208359905Y-168378177D01*
X208358884Y-168385111D01*
X208348103Y-168395268D01*
X208340846Y-168398168D01*
X208318310Y-168414258D01*
X208289147Y-168439740D01*
X208271646Y-168456001D01*
X208248785Y-168476286D01*
X208238261Y-168484212D01*
X208228257Y-168487985D01*
X208203153Y-168502574D01*
X208171232Y-168523573D01*
X208139616Y-168546060D01*
X208115424Y-168565112D01*
X208105778Y-168575806D01*
X208105095Y-168579268D01*
X208094096Y-168580143D01*
X208082700Y-168579958D01*
X208062330Y-168593007D01*
X208049604Y-168604012D01*
X208042246Y-168605537D01*
X208042234Y-168605340D01*
X208032628Y-168606437D01*
X208010480Y-168618797D01*
X208009464Y-168619458D01*
X207987712Y-168630863D01*
X207978714Y-168630241D01*
X207975970Y-168627413D01*
X207961834Y-168634880D01*
X207950319Y-168642282D01*
X207920538Y-168652686D01*
X207906228Y-168655910D01*
X207880240Y-168666395D01*
X207872633Y-168669872D01*
X207864163Y-168666028D01*
X207862915Y-168662972D01*
X207854362Y-168670855D01*
X207837067Y-168683376D01*
X207806908Y-168693247D01*
X207767674Y-168700798D01*
X207724587Y-168709091D01*
X207708545Y-168711645D01*
X207662228Y-168716265D01*
X207613435Y-168718465D01*
X207587673Y-168719582D01*
X207558210Y-168723673D01*
X207546727Y-168729559D01*
X207546472Y-168731715D01*
X207537009Y-168733851D01*
X207536795Y-168733728D01*
X207519280Y-168729734D01*
X207484067Y-168725045D01*
X207438535Y-168720651D01*
X207385753Y-168715877D01*
X207329170Y-168708662D01*
X207285768Y-168699662D01*
X207248431Y-168687640D01*
X207226405Y-168681588D01*
X207216333Y-168683904D01*
X207211139Y-168683176D01*
X207196331Y-168667706D01*
X207185048Y-168655609D01*
X207185588Y-168660888D01*
X207188997Y-168671909D01*
X207177001Y-168667598D01*
X207167901Y-168662496D01*
X207146448Y-168654204D01*
X207136490Y-168651053D01*
X207107836Y-168639617D01*
X207070210Y-168623178D01*
X207044211Y-168611956D01*
X207013008Y-168600250D01*
X206996795Y-168596608D01*
X206991096Y-168595273D01*
X206979581Y-168579701D01*
X206974440Y-168570984D01*
X206961635Y-168567156D01*
X206957104Y-168567545D01*
X206936655Y-168557942D01*
X206908965Y-168537079D01*
X206901817Y-168531031D01*
X206863307Y-168502264D01*
X206827338Y-168480187D01*
X206820159Y-168476032D01*
X206788768Y-168452973D01*
X206748989Y-168419031D01*
X206707681Y-168379951D01*
X206688813Y-168361300D01*
X206659311Y-168333143D01*
X206640851Y-168316972D01*
X206636821Y-168315853D01*
X206641231Y-168326453D01*
X206635683Y-168331438D01*
X206618887Y-168322835D01*
X206595937Y-168302328D01*
X206593825Y-168299970D01*
X208436143Y-168299970D01*
X208442496Y-168306323D01*
X208448849Y-168299970D01*
X208442496Y-168293617D01*
X208436143Y-168299970D01*
X206593825Y-168299970D01*
X206587258Y-168292638D01*
X206571426Y-168270287D01*
X206570010Y-168259145D01*
X206584192Y-168263150D01*
X206586814Y-168264311D01*
X206585154Y-168257804D01*
X206569271Y-168238487D01*
X206561197Y-168229792D01*
X206540252Y-168209616D01*
X206531602Y-168205555D01*
X206537562Y-168219027D01*
X206540048Y-168226315D01*
X206528782Y-168226969D01*
X206521270Y-168222673D01*
X206514175Y-168206657D01*
X206510629Y-168195659D01*
X206493482Y-168170546D01*
X206466526Y-168139469D01*
X206444961Y-168115782D01*
X206423956Y-168089838D01*
X206415833Y-168075541D01*
X206415478Y-168073047D01*
X206403127Y-168064902D01*
X206399867Y-168064560D01*
X206393505Y-168055373D01*
X206389542Y-168042448D01*
X206374677Y-168014182D01*
X206352209Y-167977535D01*
X206330960Y-167943972D01*
X206313975Y-167915289D01*
X206307244Y-167901297D01*
X206303471Y-167890210D01*
X206291415Y-167861724D01*
X206274045Y-167823482D01*
X206244185Y-167756238D01*
X206221333Y-167695045D01*
X206206019Y-167639240D01*
X206198763Y-167607060D01*
X206191667Y-167575708D01*
X206186804Y-167551433D01*
X206180719Y-167515055D01*
X206175322Y-167488452D01*
X206167875Y-167467406D01*
X206165959Y-167462765D01*
X206173263Y-167454998D01*
X206178298Y-167453470D01*
X206180734Y-167439115D01*
X206176367Y-167425129D01*
X206169695Y-167390839D01*
X206169420Y-167364117D01*
X206176003Y-167353347D01*
X206180873Y-167351331D01*
X206178674Y-167337464D01*
X206174965Y-167331369D01*
X206170510Y-167321339D01*
X206167660Y-167306766D01*
X206165905Y-167282435D01*
X206164736Y-167243127D01*
X206163641Y-167183628D01*
X206162808Y-167145397D01*
X206160773Y-167106345D01*
X206156888Y-167085431D01*
X206150128Y-167078290D01*
X206139470Y-167080554D01*
X206137415Y-167081304D01*
X206111267Y-167085954D01*
X206069030Y-167089577D01*
X206018797Y-167091444D01*
X206007221Y-167091665D01*
X205963034Y-167093635D01*
X205932030Y-167096835D01*
X205920323Y-167100690D01*
X205918847Y-167102286D01*
X205901017Y-167103288D01*
X205869460Y-167099220D01*
X205858690Y-167097484D01*
X205829778Y-167096129D01*
X205818634Y-167101676D01*
X205817773Y-167105442D01*
X205806272Y-167105785D01*
X205804040Y-167104642D01*
X205780611Y-167097944D01*
X205746177Y-167092033D01*
X205744821Y-167091859D01*
X205607939Y-167062130D01*
X205469210Y-167008650D01*
X205418384Y-166984793D01*
X205400915Y-167026123D01*
X205383809Y-167064481D01*
X205366307Y-167100613D01*
X205356448Y-167125919D01*
X205356573Y-167141177D01*
X205357472Y-167143988D01*
X205351107Y-167162735D01*
X205334052Y-167190609D01*
X205326971Y-167200783D01*
X205312682Y-167223550D01*
X205309603Y-167232636D01*
X205310173Y-167232957D01*
X205308848Y-167246535D01*
X205300685Y-167273932D01*
X205299155Y-167278115D01*
X205285408Y-167304459D01*
X205272172Y-167315228D01*
X205267595Y-167315906D01*
X205264500Y-167325655D01*
X205265249Y-167328914D01*
X205259442Y-167349870D01*
X205243785Y-167379657D01*
X205238710Y-167387994D01*
X205221974Y-167418700D01*
X205213814Y-167439027D01*
X205211199Y-167446050D01*
X205196361Y-167471042D01*
X205173488Y-167502559D01*
X205164501Y-167514353D01*
X205136666Y-167554611D01*
X205115643Y-167590051D01*
X205114119Y-167592947D01*
X205094400Y-167621526D01*
X205075187Y-167637530D01*
X205065494Y-167643708D01*
X205058788Y-167661482D01*
X205057501Y-167667261D01*
X205043029Y-167689642D01*
X205015888Y-167722219D01*
X204979969Y-167760127D01*
X204958362Y-167781942D01*
X204932593Y-167808941D01*
X204919911Y-167823719D01*
X204922836Y-167823482D01*
X204935823Y-167813950D01*
X204941658Y-167811826D01*
X204930810Y-167826658D01*
X204918348Y-167840022D01*
X204903565Y-167848894D01*
X204903316Y-167848901D01*
X204887248Y-167857527D01*
X204863069Y-167877829D01*
X204837759Y-167902906D01*
X204818295Y-167925857D01*
X204811656Y-167939782D01*
X204812061Y-167942410D01*
X204802639Y-167950545D01*
X204792677Y-167955293D01*
X204768649Y-167973847D01*
X204738330Y-168001630D01*
X204715453Y-168023022D01*
X204688102Y-168045671D01*
X204671552Y-168055632D01*
X204665587Y-168058271D01*
X204643477Y-168074850D01*
X204615866Y-168100864D01*
X204603582Y-168112848D01*
X204575581Y-168135657D01*
X204555551Y-168146011D01*
X204534365Y-168156810D01*
X204509880Y-168179260D01*
X204485674Y-168201439D01*
X204463809Y-168212567D01*
X204447850Y-168218180D01*
X204421997Y-168235478D01*
X204405664Y-168247697D01*
X204386352Y-168255498D01*
X204379189Y-168257716D01*
X204365515Y-168274557D01*
X204359944Y-168283337D01*
X204338743Y-168293617D01*
X204329570Y-168295379D01*
X204319285Y-168308441D01*
X204318628Y-168313555D01*
X204311011Y-168314992D01*
X204304212Y-168313441D01*
X204288775Y-168324882D01*
X204279861Y-168333960D01*
X204255753Y-168346921D01*
X204252484Y-168347810D01*
X204227416Y-168359711D01*
X204196245Y-168379385D01*
X204189054Y-168384331D01*
X204160874Y-168401173D01*
X204142970Y-168407974D01*
X204139203Y-168408586D01*
X204116336Y-168417825D01*
X204084943Y-168434642D01*
X204073490Y-168441185D01*
X204049357Y-168453114D01*
X204039745Y-168454758D01*
X204036381Y-168454304D01*
X204016866Y-168461767D01*
X203985743Y-168477368D01*
X203969999Y-168486641D01*
X203944039Y-168507560D01*
X203936534Y-168523960D01*
X202936004Y-168523960D01*
X202932789Y-168522436D01*
X202930832Y-168521432D01*
X202901860Y-168509178D01*
X202856906Y-168492492D01*
X202803479Y-168473921D01*
X202749089Y-168456015D01*
X202701246Y-168441321D01*
X202667459Y-168432390D01*
X202666883Y-168432266D01*
X202626395Y-168423461D01*
X202591221Y-168415628D01*
X202567938Y-168410358D01*
X202519552Y-168399849D01*
X202479391Y-168392333D01*
X202439068Y-168386531D01*
X202390196Y-168381166D01*
X202324387Y-168374958D01*
X202321363Y-168374684D01*
X202171190Y-168367804D01*
X202015748Y-168372704D01*
X201860933Y-168388573D01*
X201712640Y-168414603D01*
X201576765Y-168449981D01*
X201459203Y-168493898D01*
X201415594Y-168513276D01*
X201369728Y-168533163D01*
X201336468Y-168547046D01*
X201331635Y-168549043D01*
X201305732Y-168562551D01*
X201295173Y-168573216D01*
X201291630Y-168579748D01*
X201272936Y-168591081D01*
X201241957Y-168604560D01*
X201172309Y-168646085D01*
X201097308Y-168702959D01*
X201021786Y-168770682D01*
X200950580Y-168844748D01*
X200888524Y-168920656D01*
X200840453Y-168993902D01*
X200816075Y-169036624D01*
X200795759Y-169068216D01*
X200779536Y-169085407D01*
X200763205Y-169092480D01*
X200742566Y-169093718D01*
X200721891Y-169090680D01*
X200687343Y-169069927D01*
X200667221Y-169035595D01*
X200667013Y-168994863D01*
X200674065Y-168968659D01*
X200679577Y-168946181D01*
X200683329Y-168933494D01*
X200697380Y-168897821D01*
X200717571Y-168852480D01*
X200740073Y-168805606D01*
X200761058Y-168765335D01*
X200776698Y-168739802D01*
X200792421Y-168714271D01*
X200799625Y-168692153D01*
X200800513Y-168685014D01*
X200809592Y-168674807D01*
X200811569Y-168674240D01*
X200825618Y-168660293D01*
X200843614Y-168633512D01*
X200855213Y-168616280D01*
X200885872Y-168578814D01*
X200927638Y-168533261D01*
X200976958Y-168482957D01*
X201030280Y-168431240D01*
X201084052Y-168381444D01*
X201134720Y-168336906D01*
X201178734Y-168300962D01*
X201212539Y-168276950D01*
X201232585Y-168268204D01*
X201244520Y-168263057D01*
X201271991Y-168246964D01*
X201307879Y-168223732D01*
X201339809Y-168203169D01*
X201369836Y-168185896D01*
X201386008Y-168179260D01*
X201392003Y-168178073D01*
X201417160Y-168168709D01*
X201451439Y-168153070D01*
X201461523Y-168148286D01*
X201509193Y-168128052D01*
X201566590Y-168106204D01*
X201625447Y-168085661D01*
X201677500Y-168069343D01*
X201714482Y-168060168D01*
X201724904Y-168058290D01*
X201771453Y-168048382D01*
X201811187Y-168037761D01*
X201834969Y-168028805D01*
X201841199Y-168025891D01*
X201866735Y-168019296D01*
X201870935Y-168018729D01*
X201899527Y-168014012D01*
X201936843Y-168007118D01*
X201953517Y-168004547D01*
X202005801Y-168000017D01*
X202075590Y-167996941D01*
X202157495Y-167995307D01*
X202246129Y-167995105D01*
X202336100Y-167996322D01*
X202422022Y-167998949D01*
X202498505Y-168002974D01*
X202560161Y-168008386D01*
X202654334Y-168019191D01*
X202751252Y-168029764D01*
X202832012Y-168037720D01*
X202901597Y-168043463D01*
X202964989Y-168047395D01*
X203027170Y-168049917D01*
X203093122Y-168051434D01*
X203102887Y-168051586D01*
X203152942Y-168051716D01*
X203187632Y-168049751D01*
X203215627Y-168044816D01*
X203245598Y-168036036D01*
X203266948Y-168029938D01*
X203302776Y-168021715D01*
X203337887Y-168013844D01*
X203393507Y-167999192D01*
X203458794Y-167980474D01*
X203528049Y-167959471D01*
X203595571Y-167937960D01*
X203655657Y-167917721D01*
X203702607Y-167900534D01*
X203730720Y-167888176D01*
X203737341Y-167884572D01*
X203773766Y-167866399D01*
X203816639Y-167846786D01*
X203858638Y-167828878D01*
X203892442Y-167815826D01*
X203910731Y-167810775D01*
X203915413Y-167810270D01*
X203925388Y-167801171D01*
X203929963Y-167795322D01*
X203951861Y-167780557D01*
X203985743Y-167762664D01*
X204009351Y-167751249D01*
X204042009Y-167734537D01*
X204071362Y-167717473D01*
X204103286Y-167696294D01*
X204143663Y-167667235D01*
X204198370Y-167626533D01*
X204207266Y-167619791D01*
X204277267Y-167561805D01*
X204351328Y-167493017D01*
X204425429Y-167417829D01*
X204495551Y-167340639D01*
X204557672Y-167265850D01*
X204607773Y-167197862D01*
X204641835Y-167141075D01*
X204648328Y-167128010D01*
X204671357Y-167081702D01*
X204694258Y-167035688D01*
X204701163Y-167021147D01*
X204725431Y-166961876D01*
X204749580Y-166892857D01*
X204769984Y-166824978D01*
X204783019Y-166769124D01*
X204783494Y-166766478D01*
X204790572Y-166734777D01*
X204797205Y-166715712D01*
X204803112Y-166699691D01*
X204809653Y-166670171D01*
X204811878Y-166657129D01*
X204819045Y-166616864D01*
X204827315Y-166571906D01*
X204828859Y-166563637D01*
X204845476Y-166471557D01*
X204858829Y-166391835D01*
X204863510Y-166365543D01*
X204871071Y-166328303D01*
X204881022Y-166281461D01*
X204890817Y-166229920D01*
X204894670Y-166200245D01*
X204895783Y-166194449D01*
X204908012Y-166184362D01*
X204911483Y-166184060D01*
X204914043Y-166177687D01*
X204913272Y-166163308D01*
X204919928Y-166129781D01*
X204932692Y-166082433D01*
X204949927Y-166026336D01*
X204969995Y-165966560D01*
X204991260Y-165908177D01*
X205012085Y-165856259D01*
X205030831Y-165815878D01*
X205034359Y-165809058D01*
X205050873Y-165775747D01*
X205061406Y-165752346D01*
X205063705Y-165746806D01*
X205087645Y-165704507D01*
X205121277Y-165660330D01*
X205124649Y-165656252D01*
X205145075Y-165626405D01*
X205165750Y-165590103D01*
X205169246Y-165583476D01*
X205194489Y-165540521D01*
X205229958Y-165485050D01*
X205271365Y-165423472D01*
X205314419Y-165362194D01*
X205354832Y-165307624D01*
X205372693Y-165283004D01*
X205391567Y-165252784D01*
X205399016Y-165234562D01*
X205399788Y-165228791D01*
X205408929Y-165218679D01*
X205411034Y-165217936D01*
X205423032Y-165201524D01*
X205439015Y-165168088D01*
X205456727Y-165123603D01*
X205473911Y-165074046D01*
X205488312Y-165025390D01*
X205497674Y-164983612D01*
X205500491Y-164963204D01*
X205504214Y-164900548D01*
X205503144Y-164829108D01*
X205497917Y-164754581D01*
X205489168Y-164682663D01*
X205477532Y-164619050D01*
X205463645Y-164569439D01*
X205448141Y-164539525D01*
X205444681Y-164534680D01*
X205437444Y-164510048D01*
X205434805Y-164499866D01*
X205420996Y-164471844D01*
X205399325Y-164437239D01*
X205385010Y-164415688D01*
X205367811Y-164387007D01*
X205361026Y-164371418D01*
X205359727Y-164367058D01*
X205344121Y-164345875D01*
X205314441Y-164314663D01*
X205275218Y-164277384D01*
X205230987Y-164238000D01*
X205186282Y-164200472D01*
X205145634Y-164168762D01*
X205113579Y-164146830D01*
X205094649Y-164138639D01*
X205092216Y-164138347D01*
X205070681Y-164130368D01*
X205040156Y-164114891D01*
X205017256Y-164103892D01*
X204971376Y-164086391D01*
X204922236Y-164071428D01*
X204914498Y-164069543D01*
X204855247Y-164060415D01*
X204782785Y-164055770D01*
X204704781Y-164055462D01*
X204628904Y-164059349D01*
X204562822Y-164067284D01*
X204514205Y-164079123D01*
X204499195Y-164084242D01*
X204469218Y-164091629D01*
X204453850Y-164091080D01*
X204450976Y-164089344D01*
X204446348Y-164098403D01*
X204445739Y-164103412D01*
X204436818Y-164110205D01*
X204426880Y-164111147D01*
X204397727Y-164120061D01*
X204357231Y-164135346D01*
X204312182Y-164154132D01*
X204269373Y-164173550D01*
X204235593Y-164190732D01*
X204217634Y-164202808D01*
X204206143Y-164211255D01*
X204178484Y-164229176D01*
X204141396Y-164252063D01*
X204107779Y-164273695D01*
X204077053Y-164296370D01*
X204061350Y-164311781D01*
X204055065Y-164319490D01*
X204033825Y-164329235D01*
X204029289Y-164330364D01*
X204006339Y-164345591D01*
X203971277Y-164376028D01*
X203927114Y-164418393D01*
X203876863Y-164469408D01*
X203823537Y-164525792D01*
X203770149Y-164584264D01*
X203719712Y-164641545D01*
X203675239Y-164694353D01*
X203639742Y-164739410D01*
X203616234Y-164773434D01*
X203607729Y-164793146D01*
X203605795Y-164798467D01*
X203593826Y-164820637D01*
X203574546Y-164852439D01*
X203563810Y-164869981D01*
X203546764Y-164900629D01*
X203538993Y-164918895D01*
X203532671Y-164936590D01*
X203518624Y-164964552D01*
X203505839Y-164988112D01*
X203499078Y-165002671D01*
X203497518Y-165007684D01*
X203489831Y-165028084D01*
X203483386Y-165045215D01*
X203469816Y-165084621D01*
X203454995Y-165130184D01*
X203442160Y-165171864D01*
X203434545Y-165199620D01*
X203432386Y-165209634D01*
X203418630Y-165305297D01*
X203412314Y-165419846D01*
X203413414Y-165548459D01*
X203421905Y-165686313D01*
X203437763Y-165828584D01*
X203443066Y-165866645D01*
X203449320Y-165907236D01*
X203456309Y-165945222D01*
X203466306Y-165993767D01*
X203468679Y-166005030D01*
X203479622Y-166056707D01*
X203487149Y-166091145D01*
X203492793Y-166114842D01*
X203498087Y-166134297D01*
X203504562Y-166156008D01*
X203505671Y-166159676D01*
X203514187Y-166188464D01*
X203518312Y-166203523D01*
X203520093Y-166211164D01*
X203526318Y-166232572D01*
X203537847Y-166268669D01*
X203556147Y-166324132D01*
X203570290Y-166367331D01*
X203582049Y-166404499D01*
X203588281Y-166425783D01*
X203589544Y-166430282D01*
X203599305Y-166457895D01*
X203613571Y-166493327D01*
X203618556Y-166505258D01*
X203627226Y-166533336D01*
X203623919Y-166555422D01*
X203607818Y-166584468D01*
X203592278Y-166606756D01*
X203571757Y-166621603D01*
X203544150Y-166622404D01*
X203532527Y-166620556D01*
X203494920Y-166609652D01*
X203466500Y-166594587D01*
X203455253Y-166579238D01*
X203450318Y-166567119D01*
X203434206Y-166539444D01*
X203410780Y-166503753D01*
X203390380Y-166473106D01*
X203372993Y-166444629D01*
X203366308Y-166430266D01*
X203362958Y-166421397D01*
X203348358Y-166401371D01*
X203345138Y-166397340D01*
X203328826Y-166371899D01*
X203306553Y-166332839D01*
X203281405Y-166286114D01*
X203256466Y-166237676D01*
X203234822Y-166193478D01*
X203219556Y-166159474D01*
X203213754Y-166141615D01*
X203213719Y-166140770D01*
X203207417Y-166119268D01*
X203193554Y-166089065D01*
X203192999Y-166088010D01*
X203177888Y-166056026D01*
X203169228Y-166031886D01*
X203165187Y-166015412D01*
X203155997Y-165980118D01*
X203144332Y-165936588D01*
X203135607Y-165902291D01*
X203124242Y-165850925D01*
X203117133Y-165810230D01*
X203115771Y-165800266D01*
X203110502Y-165769039D01*
X203106149Y-165752866D01*
X203106025Y-165752638D01*
X203102446Y-165736177D01*
X203097487Y-165701884D01*
X203092182Y-165656863D01*
X203086101Y-165575861D01*
X203083771Y-165472092D01*
X203086283Y-165366389D01*
X203093396Y-165267756D01*
X203104867Y-165185197D01*
X203106469Y-165176039D01*
X203111679Y-165142309D01*
X203117506Y-165100972D01*
X203120037Y-165084144D01*
X203128592Y-165040938D01*
X203137660Y-165008851D01*
X203144362Y-164987387D01*
X203144225Y-164977259D01*
X203144064Y-164977194D01*
X203146194Y-164964693D01*
X203155046Y-164934464D01*
X203168688Y-164892204D01*
X203185189Y-164843609D01*
X203202617Y-164794376D01*
X203219043Y-164750200D01*
X203232533Y-164716778D01*
X203246350Y-164682357D01*
X203258603Y-164646893D01*
X203266946Y-164624658D01*
X203277009Y-164608774D01*
X203277509Y-164608352D01*
X203288062Y-164592732D01*
X203305775Y-164561124D01*
X203327099Y-164519830D01*
X203341976Y-164491169D01*
X203385512Y-164416071D01*
X203433059Y-164343801D01*
X203477940Y-164284762D01*
X203481468Y-164280492D01*
X203504489Y-164250494D01*
X203529394Y-164215653D01*
X203539988Y-164201887D01*
X203567009Y-164170890D01*
X203603554Y-164131522D01*
X203645791Y-164087636D01*
X203689885Y-164043087D01*
X203732005Y-164001728D01*
X203768317Y-163967414D01*
X203794987Y-163943999D01*
X203808183Y-163935338D01*
X203808982Y-163935256D01*
X203825192Y-163926099D01*
X203849279Y-163906387D01*
X203896975Y-163867822D01*
X203965652Y-163821056D01*
X204043748Y-163774190D01*
X204124018Y-163731305D01*
X204199219Y-163696483D01*
X204262106Y-163673806D01*
X204272779Y-163670269D01*
X204302498Y-163659580D01*
X204341521Y-163645055D01*
X204369855Y-163634901D01*
X204397527Y-163626526D01*
X204408229Y-163625575D01*
X204413129Y-163626418D01*
X204431892Y-163618615D01*
X204451667Y-163610177D01*
X204481471Y-163602144D01*
X204525854Y-163593775D01*
X204590161Y-163583896D01*
X204598642Y-163582742D01*
X204668466Y-163576802D01*
X204755431Y-163573917D01*
X204852519Y-163573911D01*
X204952712Y-163576609D01*
X205048990Y-163581837D01*
X205134336Y-163589418D01*
X205201730Y-163599177D01*
X205209761Y-163600898D01*
X205260872Y-163616411D01*
X205325363Y-163641158D01*
X205396217Y-163671960D01*
X205466416Y-163705642D01*
X205528941Y-163739028D01*
X205576775Y-163768940D01*
X205675256Y-163847456D01*
X205773974Y-163944144D01*
X205860052Y-164047618D01*
X205927499Y-164151346D01*
X205932456Y-164160224D01*
X205948703Y-164187882D01*
X205958404Y-164202171D01*
X205959126Y-164202913D01*
X205975564Y-164227337D01*
X205990199Y-164259252D01*
X205996523Y-164284590D01*
X205998243Y-164293553D01*
X206011347Y-164303822D01*
X206016452Y-164304400D01*
X206018652Y-164311341D01*
X206017486Y-164316528D01*
X206022242Y-164339928D01*
X206034650Y-164373724D01*
X206040370Y-164387641D01*
X206055586Y-164430254D01*
X206064921Y-164464679D01*
X206069962Y-164490071D01*
X206079164Y-164534124D01*
X206089714Y-164583046D01*
X206097137Y-164628621D01*
X206103111Y-164701126D01*
X206105254Y-164783038D01*
X206103723Y-164867429D01*
X206098678Y-164947372D01*
X206090276Y-165015939D01*
X206078675Y-165066203D01*
X206071499Y-165089779D01*
X206067005Y-165110675D01*
X206066545Y-165114028D01*
X206059816Y-165139957D01*
X206047293Y-165179745D01*
X206031656Y-165225485D01*
X206015585Y-165269269D01*
X206001759Y-165303191D01*
X206000511Y-165306009D01*
X205988680Y-165336808D01*
X205983817Y-165357193D01*
X205983374Y-165361265D01*
X205973663Y-165371156D01*
X205972037Y-165371607D01*
X205960634Y-165386045D01*
X205947843Y-165414479D01*
X205936510Y-165438682D01*
X205911666Y-165479747D01*
X205881759Y-165521126D01*
X205858066Y-165552428D01*
X205838752Y-165581419D01*
X205831341Y-165597538D01*
X205831098Y-165599505D01*
X205821333Y-165619457D01*
X205801714Y-165646544D01*
X205759626Y-165708434D01*
X205718624Y-165792153D01*
X205684340Y-165886651D01*
X205658396Y-165985644D01*
X205642414Y-166082848D01*
X205638015Y-166171979D01*
X205646821Y-166246755D01*
X205650710Y-166259713D01*
X205675000Y-166307255D01*
X205710946Y-166352829D01*
X205751958Y-166389063D01*
X205791448Y-166408586D01*
X205816381Y-166416150D01*
X205837694Y-166426283D01*
X205840314Y-166427580D01*
X205863910Y-166431892D01*
X205904058Y-166434951D01*
X205953780Y-166436161D01*
X205984222Y-166435872D01*
X206036900Y-166432215D01*
X206078562Y-166422963D01*
X206118962Y-166406359D01*
X206169366Y-166378921D01*
X206216013Y-166342675D01*
X206247935Y-166300749D01*
X206258890Y-166281370D01*
X206289280Y-166226383D01*
X206326975Y-166157044D01*
X206368985Y-166078927D01*
X206412318Y-165997606D01*
X206453987Y-165918654D01*
X206491000Y-165847644D01*
X206505107Y-165821186D01*
X206522109Y-165791766D01*
X206532066Y-165777759D01*
X206536917Y-165771847D01*
X206551747Y-165748209D01*
X206570703Y-165714227D01*
X206578577Y-165699798D01*
X206607341Y-165650642D01*
X206635536Y-165606450D01*
X206646259Y-165589936D01*
X206663256Y-165559551D01*
X206669960Y-165540801D01*
X206670436Y-165536118D01*
X206680371Y-165521514D01*
X206681808Y-165520581D01*
X206695729Y-165504815D01*
X206718392Y-165474350D01*
X206745658Y-165434687D01*
X206749135Y-165429474D01*
X206778853Y-165386313D01*
X206805654Y-165349558D01*
X206824107Y-165326683D01*
X206844177Y-165304450D01*
X206874391Y-165270303D01*
X206908119Y-165231734D01*
X206940678Y-165194521D01*
X206974254Y-165157607D01*
X207004432Y-165127386D01*
X207037127Y-165098352D01*
X207078258Y-165065000D01*
X207133742Y-165021826D01*
X207175027Y-164989763D01*
X207214482Y-164958728D01*
X207242394Y-164936316D01*
X207254452Y-164925949D01*
X207256261Y-164924173D01*
X207274511Y-164910302D01*
X207306254Y-164888226D01*
X207345751Y-164861713D01*
X207387265Y-164834531D01*
X207425058Y-164810450D01*
X207453392Y-164793238D01*
X207466528Y-164786663D01*
X207475009Y-164783428D01*
X207494872Y-164769128D01*
X207497111Y-164767299D01*
X207520920Y-164751394D01*
X207558881Y-164728806D01*
X207603877Y-164703799D01*
X207612587Y-164699100D01*
X207656517Y-164674842D01*
X207691945Y-164654408D01*
X207711881Y-164641810D01*
X207714507Y-164639944D01*
X207740999Y-164624258D01*
X207775413Y-164606826D01*
X207804898Y-164592750D01*
X207850763Y-164570377D01*
X207898779Y-164546580D01*
X207899494Y-164546223D01*
X207940714Y-164526514D01*
X207973432Y-164512474D01*
X207990621Y-164507124D01*
X207993133Y-164506745D01*
X208015032Y-164499173D01*
X208051712Y-164483877D01*
X208096765Y-164463491D01*
X208105056Y-164459642D01*
X208154270Y-164437986D01*
X208197882Y-164420588D01*
X208227284Y-164410914D01*
X208256943Y-164401467D01*
X208280490Y-164389459D01*
X208288619Y-164384385D01*
X208296373Y-164386319D01*
X208296429Y-164386828D01*
X208306672Y-164386367D01*
X208329241Y-164374153D01*
X208330128Y-164373576D01*
X208354840Y-164360848D01*
X208369031Y-164359538D01*
X208379740Y-164360511D01*
X208402871Y-164351635D01*
X208422124Y-164342042D01*
X208442496Y-164334561D01*
X208447186Y-164333552D01*
X208464551Y-164329083D01*
X208495460Y-164320597D01*
X208542631Y-164307335D01*
X208608779Y-164288537D01*
X208696623Y-164263441D01*
X208706777Y-164260575D01*
X208742570Y-164251064D01*
X208766508Y-164245574D01*
X208766943Y-164245496D01*
X208789140Y-164240904D01*
X208827687Y-164232383D01*
X208874512Y-164221718D01*
X208923370Y-164210845D01*
X208969712Y-164201259D01*
X209001576Y-164195475D01*
X209034199Y-164190415D01*
X209071461Y-164184301D01*
X209147444Y-164171528D01*
X209219721Y-164160370D01*
X209286212Y-164151614D01*
X209354709Y-164144343D01*
X209433005Y-164137644D01*
X209528889Y-164130601D01*
X209538491Y-164129951D01*
X209628063Y-164125577D01*
X209728354Y-164123193D01*
X209834208Y-164122697D01*
X209940467Y-164123988D01*
X210041975Y-164126966D01*
X210133573Y-164131530D01*
X210210106Y-164137579D01*
X210266416Y-164145012D01*
X210270303Y-164145700D01*
X210307081Y-164151378D01*
X210349008Y-164156924D01*
X210361730Y-164158490D01*
X210423821Y-164167286D01*
X210474683Y-164176376D01*
X210507270Y-164184529D01*
X210511192Y-164185728D01*
X210539677Y-164191896D01*
X210577154Y-164197823D01*
X210612882Y-164204149D01*
X210663968Y-164215511D01*
X210716933Y-164229073D01*
X210767575Y-164243011D01*
X210816361Y-164256338D01*
X210848769Y-164265024D01*
X210869410Y-164270315D01*
X210887863Y-164275378D01*
X210934376Y-164290258D01*
X210984121Y-164307997D01*
X211023806Y-164323977D01*
X211027624Y-164325676D01*
X211055675Y-164337218D01*
X211071078Y-164341941D01*
X211082996Y-164345842D01*
X211112065Y-164357868D01*
X211150993Y-164375186D01*
X211185934Y-164390637D01*
X211219990Y-164404487D01*
X211239033Y-164410686D01*
X211247890Y-164413208D01*
X211271555Y-164426598D01*
X211274355Y-164428611D01*
X211298006Y-164442512D01*
X211336159Y-164462784D01*
X211382021Y-164485789D01*
X211388978Y-164489213D01*
X211439157Y-164515442D01*
X211484324Y-164541378D01*
X211515438Y-164561866D01*
X211520691Y-164565766D01*
X211555034Y-164587727D01*
X211584142Y-164601449D01*
X211602171Y-164609586D01*
X211612731Y-164621301D01*
X211614492Y-164625279D01*
X211631384Y-164641201D01*
X211660380Y-164661069D01*
X211672902Y-164668818D01*
X211700427Y-164686987D01*
X211714382Y-164697970D01*
X211715351Y-164699024D01*
X211730832Y-164712797D01*
X211759823Y-164737072D01*
X211796973Y-164767357D01*
X211798784Y-164768818D01*
X211874509Y-164833285D01*
X211944962Y-164900918D01*
X212014537Y-164976485D01*
X212087630Y-165064752D01*
X212168634Y-165170485D01*
X212170776Y-165173367D01*
X212196985Y-165209792D01*
X212215573Y-165237698D01*
X212222636Y-165251248D01*
X212224213Y-165255739D01*
X212236865Y-165276452D01*
X212258045Y-165305795D01*
X212276689Y-165332876D01*
X212304699Y-165379706D01*
X212330267Y-165428334D01*
X212349373Y-165466329D01*
X212372692Y-165509314D01*
X212391022Y-165539515D01*
X212393721Y-165543549D01*
X212405575Y-165565504D01*
X212405202Y-165574457D01*
X212402363Y-165576906D01*
X212410690Y-165589705D01*
X212423725Y-165615646D01*
X212426274Y-165654434D01*
X212417551Y-165692803D01*
X212398631Y-165719206D01*
X212382132Y-165729153D01*
X212362207Y-165731038D01*
X212333992Y-165719028D01*
X212301610Y-165694066D01*
X212275532Y-165660513D01*
X212275525Y-165660502D01*
X212254073Y-165625934D01*
X212232166Y-165597880D01*
X212217757Y-165580471D01*
X212209769Y-165564927D01*
X212201776Y-165549129D01*
X212179654Y-165518416D01*
X212146636Y-165476776D01*
X212105955Y-165428078D01*
X212060845Y-165376191D01*
X212014540Y-165324986D01*
X211970273Y-165278331D01*
X211966062Y-165274053D01*
X211915755Y-165225711D01*
X211857447Y-165173721D01*
X211794504Y-165120661D01*
X211730289Y-165069107D01*
X211668168Y-165021637D01*
X211611504Y-164980828D01*
X211563662Y-164949258D01*
X211528007Y-164929503D01*
X211507904Y-164924142D01*
X211506462Y-164924365D01*
X211498374Y-164915688D01*
X211489134Y-164907443D01*
X211460998Y-164890372D01*
X211418370Y-164867049D01*
X211365722Y-164839745D01*
X211307525Y-164810728D01*
X211248253Y-164782267D01*
X211192377Y-164756630D01*
X211144370Y-164736087D01*
X211089754Y-164714895D01*
X210977519Y-164675864D01*
X210864160Y-164641590D01*
X210761406Y-164615758D01*
X210745355Y-164612270D01*
X210653399Y-164592843D01*
X210577959Y-164578206D01*
X210511982Y-164567163D01*
X210448418Y-164558516D01*
X210380215Y-164551070D01*
X210355546Y-164548596D01*
X210302982Y-164543215D01*
X210259505Y-164538639D01*
X210251928Y-164537944D01*
X210209807Y-164535802D01*
X210149707Y-164534307D01*
X210077468Y-164533457D01*
X209998929Y-164533250D01*
X209919928Y-164533684D01*
X209846304Y-164534758D01*
X209783897Y-164536469D01*
X209738544Y-164538815D01*
X209726781Y-164539731D01*
X209659832Y-164545531D01*
X209596167Y-164551921D01*
X209543143Y-164558119D01*
X209508114Y-164563342D01*
X209497442Y-164565173D01*
X209462969Y-164570345D01*
X209420885Y-164576082D01*
X209399500Y-164579049D01*
X209360835Y-164585379D01*
X209336133Y-164590731D01*
X209318632Y-164595601D01*
X209280913Y-164604533D01*
X209224533Y-164616495D01*
X209076155Y-164651185D01*
X208842746Y-164723988D01*
X208786485Y-164744339D01*
X208727286Y-164765740D01*
X208678072Y-164783518D01*
X208645798Y-164795159D01*
X208624695Y-164803530D01*
X208582210Y-164822301D01*
X208528892Y-164847218D01*
X208468969Y-164876158D01*
X208406667Y-164906998D01*
X208346213Y-164937613D01*
X208291836Y-164965882D01*
X208247761Y-164989680D01*
X208218216Y-165006883D01*
X208207429Y-165015369D01*
X208203912Y-165021849D01*
X208185193Y-165032921D01*
X208180168Y-165034923D01*
X208149262Y-165051076D01*
X208105494Y-165077336D01*
X208054646Y-165109853D01*
X208002503Y-165144775D01*
X207954846Y-165178249D01*
X207917458Y-165206425D01*
X207896123Y-165225452D01*
X207892533Y-165229145D01*
X207869978Y-165247901D01*
X207838944Y-165270359D01*
X207827970Y-165278507D01*
X207794273Y-165307251D01*
X207750065Y-165348094D01*
X207698979Y-165397353D01*
X207644647Y-165451342D01*
X207590702Y-165506380D01*
X207540776Y-165558781D01*
X207498501Y-165604863D01*
X207467511Y-165640941D01*
X207451437Y-165663332D01*
X207449708Y-165666596D01*
X207433371Y-165691368D01*
X207420633Y-165701521D01*
X207410858Y-165709076D01*
X207391589Y-165733231D01*
X207368254Y-165768229D01*
X207366307Y-165771365D01*
X207337380Y-165816974D01*
X207301996Y-165871521D01*
X207267366Y-165923882D01*
X207188741Y-166047979D01*
X207110924Y-166190715D01*
X207106281Y-166199952D01*
X207083107Y-166241949D01*
X207061030Y-166276942D01*
X207059799Y-166278702D01*
X207042233Y-166307692D01*
X207033611Y-166329036D01*
X207025716Y-166350109D01*
X207009390Y-166378956D01*
X206994232Y-166407414D01*
X206987619Y-166430939D01*
X206986689Y-166439228D01*
X206977174Y-166456151D01*
X206975867Y-166457362D01*
X206965294Y-166475816D01*
X206949678Y-166510588D01*
X206931894Y-166555375D01*
X206929210Y-166562491D01*
X206910837Y-166609717D01*
X206894745Y-166648777D01*
X206884153Y-166671820D01*
X206876558Y-166687474D01*
X206866088Y-166716292D01*
X206865201Y-166719853D01*
X206858471Y-166746666D01*
X206847870Y-166788767D01*
X206835264Y-166838739D01*
X206824852Y-166880573D01*
X206805979Y-166962297D01*
X206793244Y-167030141D01*
X206785643Y-167091327D01*
X206782170Y-167153080D01*
X206781820Y-167222623D01*
X206784758Y-167290850D01*
X206797789Y-167398874D01*
X206819809Y-167500183D01*
X206849376Y-167588687D01*
X206885047Y-167658299D01*
X206902550Y-167686825D01*
X206923345Y-167724689D01*
X206948166Y-167763069D01*
X206987667Y-167811418D01*
X207035835Y-167863066D01*
X207086909Y-167911841D01*
X207135129Y-167951570D01*
X207169289Y-167976028D01*
X207197029Y-167994362D01*
X207210652Y-168001371D01*
X207211034Y-168001393D01*
X207226890Y-168008649D01*
X207252491Y-168024985D01*
X207276318Y-168038706D01*
X207320347Y-168059314D01*
X207372320Y-168080702D01*
X207423239Y-168099206D01*
X207464107Y-168111160D01*
X207506777Y-168116552D01*
X207563275Y-168118145D01*
X207623792Y-168116239D01*
X207678562Y-168111141D01*
X207717816Y-168103159D01*
X207724936Y-168100686D01*
X207779800Y-168076256D01*
X207841893Y-168041800D01*
X207901077Y-168003340D01*
X207947216Y-167966897D01*
X207966515Y-167947896D01*
X208000564Y-167910252D01*
X208034561Y-167868766D01*
X208064189Y-167829047D01*
X208085131Y-167796705D01*
X208093071Y-167777350D01*
X208094255Y-167770111D01*
X208106050Y-167759950D01*
X208119613Y-167749825D01*
X208134381Y-167725008D01*
X208146970Y-167698884D01*
X208156444Y-167683712D01*
X208164603Y-167673278D01*
X208184365Y-167639644D01*
X208210663Y-167588813D01*
X208241743Y-167524761D01*
X208275852Y-167451463D01*
X208311235Y-167372894D01*
X208346140Y-167293032D01*
X208378812Y-167215850D01*
X208407498Y-167145326D01*
X208430444Y-167085434D01*
X208445896Y-167040151D01*
X208452101Y-167013452D01*
X208453028Y-167007725D01*
X208461556Y-166997569D01*
X208464679Y-166996495D01*
X208471058Y-166981686D01*
X208474187Y-166967944D01*
X208484375Y-166934764D01*
X208499371Y-166890183D01*
X208516853Y-166841064D01*
X208534498Y-166794267D01*
X208538052Y-166784919D01*
X208543500Y-166768854D01*
X208547378Y-166759673D01*
X208559098Y-166737089D01*
X208569047Y-166714504D01*
X208583544Y-166674967D01*
X208598720Y-166628533D01*
X208613718Y-166584208D01*
X208638449Y-166520002D01*
X208663633Y-166462120D01*
X208664818Y-166459603D01*
X208684087Y-166415746D01*
X208697772Y-166379269D01*
X208702976Y-166357844D01*
X208704720Y-166347256D01*
X208715683Y-166336838D01*
X208718957Y-166336479D01*
X208725213Y-166326964D01*
X208725532Y-166324118D01*
X208733346Y-166303055D01*
X208749260Y-166266788D01*
X208770658Y-166220709D01*
X208794925Y-166170211D01*
X208819443Y-166120687D01*
X208841598Y-166077529D01*
X208858773Y-166046132D01*
X208868352Y-166031886D01*
X208872580Y-166026910D01*
X208887279Y-166004393D01*
X208906389Y-165971531D01*
X208916983Y-165953523D01*
X208935068Y-165927682D01*
X208946737Y-165917529D01*
X208949161Y-165917176D01*
X208957104Y-165904822D01*
X208962324Y-165891148D01*
X208979340Y-165868613D01*
X208990468Y-165856596D01*
X209017925Y-165824756D01*
X209038162Y-165798310D01*
X209046048Y-165783782D01*
X209046319Y-165782727D01*
X209057946Y-165767676D01*
X209083720Y-165740354D01*
X209119497Y-165704701D01*
X209161132Y-165664654D01*
X209204480Y-165624151D01*
X209245396Y-165587132D01*
X209279735Y-165557535D01*
X209303352Y-165539299D01*
X209317012Y-165529799D01*
X209341358Y-165510211D01*
X209351000Y-165498110D01*
X209353504Y-165494922D01*
X209372461Y-165480698D01*
X209405770Y-165458698D01*
X209448325Y-165431995D01*
X209495022Y-165403661D01*
X209540757Y-165376770D01*
X209580424Y-165354394D01*
X209608919Y-165339608D01*
X209621138Y-165335483D01*
X209621279Y-165335591D01*
X209634123Y-165331728D01*
X209658221Y-165317822D01*
X209684628Y-165304365D01*
X209730424Y-165285610D01*
X209788027Y-165264466D01*
X209850879Y-165243152D01*
X209912425Y-165223885D01*
X209966110Y-165208884D01*
X210005378Y-165200367D01*
X210012417Y-165199317D01*
X210075296Y-165191154D01*
X210143039Y-165184044D01*
X210205655Y-165178939D01*
X210253152Y-165176790D01*
X210263969Y-165176834D01*
X210305132Y-165178392D01*
X210355104Y-165181609D01*
X210407049Y-165185883D01*
X210454129Y-165190614D01*
X210489507Y-165195201D01*
X210506345Y-165199043D01*
X210523040Y-165205046D01*
X210552641Y-165212239D01*
X210584250Y-165218717D01*
X210621241Y-165226362D01*
X210643794Y-165232981D01*
X210666882Y-165244735D01*
X210674017Y-165249086D01*
X210689513Y-165248217D01*
X210692774Y-165246137D01*
X210697874Y-165254681D01*
X210698455Y-165259642D01*
X210707404Y-165267453D01*
X210723934Y-165269293D01*
X210760240Y-165282318D01*
X210809019Y-165305034D01*
X210865401Y-165334968D01*
X210924514Y-165369648D01*
X210981488Y-165406599D01*
X211048984Y-165454161D01*
X211146537Y-165529067D01*
X211232448Y-165604337D01*
X211314132Y-165686203D01*
X211344088Y-165717955D01*
X211399051Y-165775824D01*
X211453242Y-165832477D01*
X211498374Y-165879235D01*
X211514694Y-165896142D01*
X211553681Y-165937473D01*
X211586308Y-165973312D01*
X211606812Y-165997379D01*
X211608859Y-165999970D01*
X211632008Y-166027416D01*
X211665249Y-166064976D01*
X211702110Y-166105319D01*
X211729476Y-166135218D01*
X211775036Y-166186046D01*
X211825159Y-166242839D01*
X211873083Y-166297978D01*
X211913939Y-166344813D01*
X211950401Y-166385462D01*
X211978377Y-166415434D01*
X211993893Y-166430374D01*
X211993929Y-166430400D01*
X212011452Y-166447294D01*
X212038787Y-166477582D01*
X212070032Y-166514727D01*
X212073198Y-166518597D01*
X212086222Y-166533787D01*
X212111546Y-166563324D01*
X212161565Y-166618764D01*
X212221014Y-166682671D01*
X212287653Y-166752802D01*
X212359241Y-166826911D01*
X212433538Y-166902754D01*
X212508303Y-166978087D01*
X212581294Y-167050664D01*
X212650272Y-167118243D01*
X212712995Y-167178577D01*
X212767223Y-167229422D01*
X212784927Y-167245343D01*
X212810716Y-167268534D01*
X212841231Y-167293668D01*
G37*
D10*
X142158303Y-154076691D03*
X155329980Y-153820029D03*
X178028303Y-170066691D03*
X191199980Y-169810029D03*
D11*
X241450471Y-164526186D03*
X253740014Y-159780024D03*
X278970471Y-157906186D03*
X291260014Y-153160024D03*
D10*
X129188303Y-117926691D03*
X142359980Y-117670029D03*
D11*
X223520471Y-172526186D03*
X235810014Y-167780024D03*
D10*
X102318303Y-160586691D03*
X115489980Y-160330029D03*
X67108303Y-140836691D03*
X80279980Y-140580029D03*
X108938303Y-123066691D03*
X122109980Y-122810029D03*
D12*
X264763000Y-179450000D03*
X277690000Y-176910000D03*
D10*
X166708303Y-124546691D03*
X179879980Y-124290029D03*
D11*
X220210471Y-153766186D03*
X232500014Y-149020024D03*
D10*
X85878303Y-144146691D03*
X99049980Y-143890029D03*
X185948344Y-193706673D03*
X199120020Y-193450012D03*
X163398303Y-143306691D03*
X176569980Y-143050029D03*
D11*
X216900471Y-135006186D03*
X229190014Y-130260024D03*
X315660471Y-146606186D03*
X327950014Y-141860024D03*
X292600471Y-125526186D03*
X304890014Y-120780024D03*
D10*
X89188303Y-125386691D03*
X102359980Y-125130029D03*
D12*
X136553000Y-179450000D03*
X149480000Y-176910000D03*
D10*
X181328303Y-151306691D03*
X194499980Y-151050029D03*
D11*
X272350471Y-120396186D03*
X284640014Y-115650024D03*
X238140471Y-145766186D03*
X250430014Y-141020024D03*
X252770471Y-119006186D03*
X265060014Y-114260024D03*
D10*
X148768303Y-116556691D03*
X161939980Y-116300029D03*
D11*
X256070471Y-137776186D03*
X268360014Y-133030024D03*
X334430471Y-143296186D03*
X346720014Y-138550024D03*
X240080471Y-191856186D03*
X252370014Y-187110024D03*
X318980471Y-165366186D03*
X331270014Y-160620024D03*
X312360471Y-127846186D03*
X324650014Y-123100024D03*
X215600411Y-196166203D03*
X227889955Y-191420042D03*
D10*
X184638303Y-132546691D03*
X197809980Y-132290029D03*
D11*
X295910471Y-144286186D03*
X308200014Y-139540024D03*
D10*
X160088303Y-162066691D03*
X173259980Y-161810029D03*
X161468303Y-189386691D03*
X174639980Y-189130029D03*
D11*
X299220471Y-163046186D03*
X311510014Y-158300024D03*
D10*
X82568303Y-162906691D03*
X95739980Y-162650029D03*
D11*
X234830471Y-127006186D03*
X247120014Y-122260024D03*
D10*
X145468303Y-135316691D03*
X158639980Y-135060029D03*
D11*
X259380471Y-156526186D03*
X271670014Y-151780024D03*
D10*
X105628303Y-141826691D03*
X118799980Y-141570029D03*
D11*
X275670471Y-139156186D03*
X287960014Y-134410024D03*
D10*
X122568303Y-155456691D03*
X135739980Y-155200029D03*
D13*
X204520000Y-158300000D03*
D14*
X204520000Y-155760000D03*
X204520000Y-153220000D03*
X204520000Y-150680000D03*
D10*
X125878303Y-136696691D03*
X139049980Y-136440029D03*
D15*
X165303481Y-132534933D03*
X165876519Y-129285067D03*
X81163481Y-170894933D03*
X81736519Y-167645067D03*
D16*
X242866519Y-172514933D03*
X242293481Y-169265067D03*
X218297319Y-142851433D03*
X217724281Y-139601567D03*
D15*
X140753481Y-162064933D03*
X141326519Y-158815067D03*
D17*
X226580000Y-115260000D03*
X226580000Y-113050000D03*
X219280000Y-113050000D03*
X219280000Y-115260000D03*
D18*
X220680000Y-115910000D03*
X223680000Y-115910000D03*
X225180000Y-115910000D03*
D19*
X189707924Y-125404143D03*
X195912213Y-126498126D03*
X196572076Y-122755857D03*
X190367787Y-121661874D03*
D16*
X257486519Y-145764933D03*
X256913481Y-142515067D03*
X236246519Y-134994933D03*
X235673481Y-131745067D03*
D15*
X183233481Y-140534933D03*
X183806519Y-137285067D03*
X104223481Y-149814933D03*
X104796519Y-146565067D03*
X147363481Y-124544933D03*
X147936519Y-121295067D03*
D16*
X297326519Y-152274933D03*
X296753481Y-149025067D03*
D15*
X65713481Y-148824933D03*
X66286519Y-145575067D03*
X179923481Y-159294933D03*
X180496519Y-156045067D03*
X127783481Y-125914933D03*
X128356519Y-122665067D03*
D20*
X264770000Y-187560000D03*
X264770000Y-184260000D03*
D15*
X107533481Y-131054933D03*
X108106519Y-127805067D03*
D16*
X313776519Y-135834933D03*
X313203481Y-132585067D03*
D20*
X136560000Y-187560000D03*
X136560000Y-184260000D03*
D16*
X277086519Y-147144933D03*
X276513481Y-143895067D03*
D15*
X100913481Y-168574933D03*
X101486519Y-165325067D03*
D16*
X320396519Y-173354933D03*
X319823481Y-170105067D03*
D15*
X121163481Y-163444933D03*
X121736519Y-160195067D03*
D16*
X239556519Y-153754933D03*
X238983481Y-150505067D03*
D15*
X144063481Y-143304933D03*
X144636519Y-140055067D03*
D16*
X294016519Y-133514933D03*
X293443481Y-130265067D03*
X224936519Y-180514933D03*
X224363481Y-177265067D03*
X300636519Y-171034933D03*
X300063481Y-167785067D03*
X254186519Y-126994933D03*
X253613481Y-123745067D03*
X335846519Y-151284933D03*
X335273481Y-148035067D03*
D15*
X184543481Y-201694933D03*
X185116519Y-198445067D03*
D16*
X280386519Y-165894933D03*
X279813481Y-162645067D03*
D15*
X87783481Y-133374933D03*
X88356519Y-130125067D03*
X160063481Y-197374933D03*
X160636519Y-194125067D03*
D16*
X241496519Y-199844933D03*
X240923481Y-196595067D03*
D15*
X161993481Y-151294933D03*
X162566519Y-148045067D03*
X124473481Y-144684933D03*
X125046519Y-141435067D03*
D16*
X260796519Y-164514933D03*
X260223481Y-161265067D03*
X317076519Y-154594933D03*
X316503481Y-151345067D03*
D15*
X84473481Y-152134933D03*
X85046519Y-148885067D03*
D16*
X273766519Y-128384933D03*
X273193481Y-125135067D03*
X221626519Y-161754933D03*
X221053481Y-158505067D03*
X217016519Y-204154933D03*
X216443481Y-200905067D03*
D15*
X176623481Y-178054933D03*
X177196519Y-174805067D03*
X158683481Y-170054933D03*
X159256519Y-166805067D03*
M02*
