M48
; DRILL file {KiCad (6.0.2)} date Tue Apr 12 17:10:14 2022
; FORMAT={-:-/ absolute / metric / decimal}
; #@! TF.CreationDate,2022-04-12T17:10:14+08:00
; #@! TF.GenerationSoftware,Kicad,Pcbnew,(6.0.2)
; #@! TF.FileFunction,Plated,1,2,PTH
FMAT,2
METRIC
; #@! TA.AperFunction,Plated,PTH,ViaDrill
T1C0.300
; #@! TA.AperFunction,Plated,PTH,ComponentDrill
T2C0.400
; #@! TA.AperFunction,Plated,PTH,ComponentDrill
T3C0.600
%
G90
G05
T1
X135.82Y-162.808
X195.2Y-147.33
X196.588Y-149.636
X197.614Y-149.778
X198.77Y-141.7
X199.796Y-150.4
X199.803Y-151.73
X199.83Y-137.97
X201.0Y-132.38
X202.057Y-125.394
X202.162Y-158.887
X202.186Y-154.213
X202.191Y-151.617
X202.25Y-142.69
X202.98Y-121.949
X204.21Y-124.87
X204.795Y-136.891
X205.007Y-136.077
X205.55Y-140.098
X206.0Y-120.75
X206.36Y-124.21
X206.75Y-137.553
X207.5Y-120.69
X208.648Y-121.181
X208.816Y-126.73
X210.265Y-120.756
X210.64Y-125.071
X212.52Y-130.528
X213.305Y-146.975
X213.314Y-158.565
X213.374Y-122.387
X213.845Y-129.065
X214.316Y-145.252
X215.547Y-127.111
X215.628Y-145.684
X215.677Y-151.73
X215.7Y-150.852
X217.006Y-145.037
X219.815Y-144.599
X302.43Y-174.04
T2
X65.713Y-148.825
X66.287Y-145.575
X67.108Y-140.837
X80.28Y-140.58
X81.163Y-170.895
X81.737Y-167.645
X82.568Y-162.907
X84.473Y-152.135
X85.047Y-148.885
X85.878Y-144.147
X87.783Y-133.375
X88.357Y-130.125
X89.188Y-125.387
X95.74Y-162.65
X99.05Y-143.89
X100.913Y-168.575
X101.487Y-165.325
X102.318Y-160.587
X102.36Y-125.13
X104.223Y-149.815
X104.797Y-146.565
X105.628Y-141.827
X107.533Y-131.055
X108.107Y-127.805
X108.938Y-123.067
X115.49Y-160.33
X118.8Y-141.57
X121.163Y-163.445
X121.737Y-160.195
X122.11Y-122.81
X122.568Y-155.457
X124.473Y-144.685
X125.047Y-141.435
X125.878Y-136.697
X127.783Y-125.915
X128.357Y-122.665
X129.188Y-117.927
X135.74Y-155.2
X136.553Y-179.45
X136.56Y-184.26
X136.56Y-187.56
X139.05Y-136.44
X140.753Y-162.065
X141.327Y-158.815
X142.158Y-154.077
X142.36Y-117.67
X144.063Y-143.305
X144.637Y-140.055
X145.468Y-135.317
X147.363Y-124.545
X147.937Y-121.295
X148.768Y-116.557
X149.48Y-176.91
X155.33Y-153.82
X158.64Y-135.06
X158.683Y-170.055
X159.257Y-166.805
X160.063Y-197.375
X160.088Y-162.067
X160.637Y-194.125
X161.468Y-189.387
X161.94Y-116.3
X161.993Y-151.295
X162.567Y-148.045
X163.398Y-143.307
X165.303Y-132.535
X165.877Y-129.285
X166.708Y-124.547
X173.26Y-161.81
X174.64Y-189.13
X176.57Y-143.05
X176.623Y-178.055
X177.197Y-174.805
X178.028Y-170.067
X179.88Y-124.29
X179.923Y-159.295
X180.497Y-156.045
X181.328Y-151.307
X183.233Y-140.535
X183.807Y-137.285
X184.543Y-201.695
X184.638Y-132.547
X185.117Y-198.445
X185.948Y-193.707
X191.2Y-169.81
X194.5Y-151.05
X197.81Y-132.29
X199.12Y-193.45
X207.89Y-125.35
X207.89Y-128.65
X215.6Y-196.166
X216.443Y-200.905
X216.9Y-135.006
X217.017Y-204.155
X217.724Y-139.602
X218.297Y-142.851
X220.21Y-153.766
X221.053Y-158.505
X221.627Y-161.755
X223.492Y-123.49
X223.52Y-172.526
X223.701Y-124.672
X224.363Y-177.265
X224.937Y-180.515
X227.89Y-191.42
X229.19Y-130.26
X232.5Y-149.02
X234.83Y-127.006
X235.673Y-131.745
X235.81Y-167.78
X236.247Y-134.995
X238.14Y-145.766
X238.983Y-150.505
X239.557Y-153.755
X240.08Y-191.856
X240.923Y-196.595
X241.45Y-164.526
X241.497Y-199.845
X242.293Y-169.265
X242.867Y-172.515
X247.12Y-122.26
X250.43Y-141.02
X252.37Y-187.11
X252.77Y-119.006
X253.613Y-123.745
X253.74Y-159.78
X254.187Y-126.995
X256.07Y-137.776
X256.913Y-142.515
X257.487Y-145.765
X259.38Y-156.526
X260.223Y-161.265
X260.797Y-164.515
X264.763Y-179.45
X264.77Y-184.26
X264.77Y-187.56
X265.06Y-114.26
X268.36Y-133.03
X271.67Y-151.78
X272.35Y-120.396
X273.193Y-125.135
X273.767Y-128.385
X275.67Y-139.156
X276.513Y-143.895
X277.087Y-147.145
X277.69Y-176.91
X278.97Y-157.906
X279.813Y-162.645
X280.387Y-165.895
X284.64Y-115.65
X287.96Y-134.41
X291.26Y-153.16
X292.6Y-125.526
X293.443Y-130.265
X294.017Y-133.515
X295.91Y-144.286
X296.753Y-149.025
X297.327Y-152.275
X299.22Y-163.046
X300.063Y-167.785
X300.637Y-171.035
X304.89Y-120.78
X308.2Y-139.54
X311.51Y-158.3
X312.36Y-127.846
X313.203Y-132.585
X313.777Y-135.835
X315.66Y-146.606
X316.503Y-151.345
X317.077Y-154.595
X318.98Y-165.366
X319.823Y-170.105
X320.397Y-173.355
X324.65Y-123.1
X327.95Y-141.86
X331.27Y-160.62
X334.43Y-143.296
X335.273Y-148.035
X335.847Y-151.285
X346.72Y-138.55
T3
X202.175Y-118.301G85X202.175Y-119.02
G05
X202.175Y-114.013G85X202.175Y-115.232
G05
X213.325Y-114.026G85X213.325Y-115.245
G05
X213.325Y-118.301G85X213.325Y-119.02
G05
T0
M30
